<ttFont>
    <TTGlyph name=".notdef" xMin="0" yMin="0" xMax="502" yMax="701">
      <contour>
        <pt x="251" y="302" on="1"/>
        <pt x="247" y="302" on="1"/>
        <pt x="147" y="93" on="1"/>
        <pt x="87" y="93" on="1"/>
        <pt x="221" y="353" on="1"/>
        <pt x="87" y="608" on="1"/>
        <pt x="147" y="608" on="1"/>
        <pt x="252" y="402" on="1"/>
        <pt x="256" y="402" on="1"/>
        <pt x="356" y="608" on="1"/>
        <pt x="416" y="608" on="1"/>
        <pt x="281" y="347" on="1"/>
        <pt x="416" y="93" on="1"/>
        <pt x="356" y="93" on="1"/>
      </contour>
      <contour>
        <pt x="51" y="652" on="1"/>
        <pt x="51" y="49" on="1"/>
        <pt x="451" y="49" on="1"/>
        <pt x="451" y="652" on="1"/>
      </contour>
      <contour>
        <pt x="0" y="0" on="1"/>
        <pt x="0" y="701" on="1"/>
        <pt x="502" y="701" on="1"/>
        <pt x="502" y="0" on="1"/>
      </contour>
    </TTGlyph>
    <TTGlyph name="A" xMin="12" yMin="0" xMax="373" yMax="626">
      <contour>
        <pt x="282" y="0" on="1"/>
        <pt x="257" y="145" on="1"/>
        <pt x="125" y="145" on="1"/>
        <pt x="102" y="0" on="1"/>
        <pt x="12" y="0" on="1"/>
        <pt x="123" y="626" on="1"/>
        <pt x="254" y="626" on="1"/>
        <pt x="373" y="0" on="1"/>
      </contour>
      <contour>
        <pt x="136" y="218" on="1"/>
        <pt x="245" y="218" on="1"/>
        <pt x="188" y="548" on="1"/>
      </contour>
    </TTGlyph>
    <TTGlyph name="AE" xMin="11" yMin="0" xMax="556" yMax="626">
      <contour>
        <pt x="375" y="73" on="1"/>
        <pt x="556" y="73" on="1"/>
        <pt x="556" y="0" on="1"/>
        <pt x="286" y="0" on="1"/>
        <pt x="286" y="149" on="1"/>
        <pt x="155" y="149" on="1"/>
        <pt x="102" y="0" on="1"/>
        <pt x="11" y="0" on="1"/>
        <pt x="243" y="626" on="1"/>
        <pt x="549" y="626" on="1"/>
        <pt x="549" y="553" on="1"/>
        <pt x="375" y="553" on="1"/>
        <pt x="375" y="360" on="1"/>
        <pt x="519" y="360" on="1"/>
        <pt x="519" y="287" on="1"/>
        <pt x="375" y="287" on="1"/>
      </contour>
      <contour>
        <pt x="286" y="221" on="1"/>
        <pt x="286" y="514" on="1"/>
        <pt x="181" y="221" on="1"/>
      </contour>
    </TTGlyph>
    <TTGlyph name="Aacute" xMin="12" yMin="0" xMax="373" yMax="789">
      <contour>
        <pt x="282" y="0" on="1"/>
        <pt x="257" y="145" on="1"/>
        <pt x="125" y="145" on="1"/>
        <pt x="102" y="0" on="1"/>
        <pt x="12" y="0" on="1"/>
        <pt x="123" y="626" on="1"/>
        <pt x="254" y="626" on="1"/>
        <pt x="373" y="0" on="1"/>
      </contour>
      <contour>
        <pt x="136" y="218" on="1"/>
        <pt x="245" y="218" on="1"/>
        <pt x="188" y="548" on="1"/>
      </contour>
      <contour>
        <pt x="333" y="789" on="1"/>
        <pt x="228" y="657" on="1"/>
        <pt x="151" y="657" on="1"/>
        <pt x="233" y="789" on="1"/>
      </contour>
    </TTGlyph>
    <TTGlyph name="Abreve" xMin="12" yMin="0" xMax="373" yMax="789">
      <contour>
        <pt x="282" y="0" on="1"/>
        <pt x="257" y="145" on="1"/>
        <pt x="125" y="145" on="1"/>
        <pt x="102" y="0" on="1"/>
        <pt x="12" y="0" on="1"/>
        <pt x="123" y="626" on="1"/>
        <pt x="254" y="626" on="1"/>
        <pt x="373" y="0" on="1"/>
      </contour>
      <contour>
        <pt x="136" y="218" on="1"/>
        <pt x="245" y="218" on="1"/>
        <pt x="188" y="548" on="1"/>
      </contour>
      <contour>
        <pt x="239" y="657" on="1"/>
        <pt x="138" y="657" on="1"/>
        <pt x="44" y="657" on="0"/>
        <pt x="44" y="746" on="1"/>
        <pt x="44" y="789" on="1"/>
        <pt x="128" y="789" on="1"/>
        <pt x="128" y="751" on="1"/>
        <pt x="128" y="733" on="0"/>
        <pt x="140" y="722" on="0"/>
        <pt x="158" y="722" on="1"/>
        <pt x="219" y="722" on="1"/>
        <pt x="237" y="722" on="0"/>
        <pt x="249" y="733" on="0"/>
        <pt x="249" y="751" on="1"/>
        <pt x="249" y="789" on="1"/>
        <pt x="333" y="789" on="1"/>
        <pt x="333" y="746" on="1"/>
        <pt x="333" y="657" on="0"/>
      </contour>
    </TTGlyph>
    <TTGlyph name="Acircumflex" xMin="12" yMin="0" xMax="373" yMax="789">
      <contour>
        <pt x="282" y="0" on="1"/>
        <pt x="257" y="145" on="1"/>
        <pt x="125" y="145" on="1"/>
        <pt x="102" y="0" on="1"/>
        <pt x="12" y="0" on="1"/>
        <pt x="123" y="626" on="1"/>
        <pt x="254" y="626" on="1"/>
        <pt x="373" y="0" on="1"/>
      </contour>
      <contour>
        <pt x="136" y="218" on="1"/>
        <pt x="245" y="218" on="1"/>
        <pt x="188" y="548" on="1"/>
      </contour>
      <contour>
        <pt x="188" y="738" on="1"/>
        <pt x="136" y="657" on="1"/>
        <pt x="42" y="657" on="1"/>
        <pt x="138" y="789" on="1"/>
        <pt x="239" y="789" on="1"/>
        <pt x="334" y="657" on="1"/>
        <pt x="241" y="657" on="1"/>
      </contour>
    </TTGlyph>
    <TTGlyph name="Adieresis" xMin="12" yMin="0" xMax="373" yMax="751">
      <contour>
        <pt x="282" y="0" on="1"/>
        <pt x="257" y="145" on="1"/>
        <pt x="125" y="145" on="1"/>
        <pt x="102" y="0" on="1"/>
        <pt x="12" y="0" on="1"/>
        <pt x="123" y="626" on="1"/>
        <pt x="254" y="626" on="1"/>
        <pt x="373" y="0" on="1"/>
      </contour>
      <contour>
        <pt x="136" y="218" on="1"/>
        <pt x="245" y="218" on="1"/>
        <pt x="188" y="548" on="1"/>
      </contour>
      <contour>
        <pt x="145" y="751" on="1"/>
        <pt x="145" y="657" on="1"/>
        <pt x="43" y="657" on="1"/>
        <pt x="43" y="751" on="1"/>
      </contour>
      <contour>
        <pt x="334" y="751" on="1"/>
        <pt x="334" y="657" on="1"/>
        <pt x="233" y="657" on="1"/>
        <pt x="233" y="751" on="1"/>
      </contour>
    </TTGlyph>
    <TTGlyph name="Agrave" xMin="12" yMin="0" xMax="373" yMax="789">
      <contour>
        <pt x="282" y="0" on="1"/>
        <pt x="257" y="145" on="1"/>
        <pt x="125" y="145" on="1"/>
        <pt x="102" y="0" on="1"/>
        <pt x="12" y="0" on="1"/>
        <pt x="123" y="626" on="1"/>
        <pt x="254" y="626" on="1"/>
        <pt x="373" y="0" on="1"/>
      </contour>
      <contour>
        <pt x="136" y="218" on="1"/>
        <pt x="245" y="218" on="1"/>
        <pt x="188" y="548" on="1"/>
      </contour>
      <contour>
        <pt x="220" y="657" on="1"/>
        <pt x="143" y="657" on="1"/>
        <pt x="38" y="789" on="1"/>
        <pt x="138" y="789" on="1"/>
      </contour>
    </TTGlyph>
    <TTGlyph name="Amacron" xMin="12" yMin="0" xMax="373" yMax="726">
      <contour>
        <pt x="282" y="0" on="1"/>
        <pt x="257" y="145" on="1"/>
        <pt x="125" y="145" on="1"/>
        <pt x="102" y="0" on="1"/>
        <pt x="12" y="0" on="1"/>
        <pt x="123" y="626" on="1"/>
        <pt x="254" y="626" on="1"/>
        <pt x="373" y="0" on="1"/>
      </contour>
      <contour>
        <pt x="136" y="218" on="1"/>
        <pt x="245" y="218" on="1"/>
        <pt x="188" y="548" on="1"/>
      </contour>
      <contour>
        <pt x="322" y="726" on="1"/>
        <pt x="322" y="658" on="1"/>
        <pt x="54" y="658" on="1"/>
        <pt x="54" y="726" on="1"/>
      </contour>
    </TTGlyph>
    <TTGlyph name="Aogonek" xMin="12" yMin="-225" xMax="391" yMax="626">
      <contour>
        <pt x="310" y="-162" on="1"/>
        <pt x="391" y="-162" on="1"/>
        <pt x="391" y="-225" on="1"/>
        <pt x="294" y="-225" on="1"/>
        <pt x="208" y="-225" on="0"/>
        <pt x="208" y="-141" on="1"/>
        <pt x="208" y="-108" on="1"/>
        <pt x="208" y="-23" on="0"/>
        <pt x="294" y="-23" on="1"/>
        <pt x="302" y="-23" on="1"/>
        <pt x="302" y="0" on="1"/>
        <pt x="282" y="0" on="1"/>
        <pt x="257" y="145" on="1"/>
        <pt x="125" y="145" on="1"/>
        <pt x="102" y="0" on="1"/>
        <pt x="12" y="0" on="1"/>
        <pt x="123" y="626" on="1"/>
        <pt x="254" y="626" on="1"/>
        <pt x="371" y="11" on="1"/>
        <pt x="373" y="11" on="1"/>
        <pt x="373" y="-86" on="1"/>
        <pt x="310" y="-86" on="1"/>
        <pt x="292" y="-86" on="0"/>
        <pt x="281" y="-96" on="0"/>
        <pt x="281" y="-113" on="1"/>
        <pt x="281" y="-135" on="1"/>
        <pt x="281" y="-152" on="0"/>
        <pt x="292" y="-162" on="0"/>
      </contour>
      <contour>
        <pt x="136" y="218" on="1"/>
        <pt x="245" y="218" on="1"/>
        <pt x="188" y="548" on="1"/>
      </contour>
    </TTGlyph>
    <TTGlyph name="Aring" xMin="12" yMin="0" xMax="373" yMax="815">
      <contour>
        <pt x="282" y="0" on="1"/>
        <pt x="257" y="145" on="1"/>
        <pt x="125" y="145" on="1"/>
        <pt x="102" y="0" on="1"/>
        <pt x="12" y="0" on="1"/>
        <pt x="123" y="626" on="1"/>
        <pt x="254" y="626" on="1"/>
        <pt x="373" y="0" on="1"/>
      </contour>
      <contour>
        <pt x="136" y="218" on="1"/>
        <pt x="245" y="218" on="1"/>
        <pt x="188" y="548" on="1"/>
      </contour>
      <contour>
        <pt x="221" y="658" on="1"/>
        <pt x="156" y="658" on="1"/>
        <pt x="83" y="658" on="0"/>
        <pt x="83" y="728" on="1"/>
        <pt x="83" y="745" on="1"/>
        <pt x="83" y="815" on="0"/>
        <pt x="156" y="815" on="1"/>
        <pt x="221" y="815" on="1"/>
        <pt x="294" y="815" on="0"/>
        <pt x="294" y="745" on="1"/>
        <pt x="294" y="728" on="1"/>
        <pt x="294" y="658" on="0"/>
      </contour>
      <contour>
        <pt x="146" y="740" on="1"/>
        <pt x="146" y="733" on="1"/>
        <pt x="146" y="718" on="0"/>
        <pt x="155" y="708" on="0"/>
        <pt x="172" y="708" on="1"/>
        <pt x="205" y="708" on="1"/>
        <pt x="222" y="708" on="0"/>
        <pt x="231" y="718" on="0"/>
        <pt x="231" y="733" on="1"/>
        <pt x="231" y="740" on="1"/>
        <pt x="231" y="755" on="0"/>
        <pt x="222" y="765" on="0"/>
        <pt x="205" y="765" on="1"/>
        <pt x="172" y="765" on="1"/>
        <pt x="155" y="765" on="0"/>
        <pt x="146" y="755" on="0"/>
      </contour>
    </TTGlyph>
    <TTGlyph name="Atilde" xMin="12" yMin="0" xMax="373" yMax="760">
      <contour>
        <pt x="282" y="0" on="1"/>
        <pt x="257" y="145" on="1"/>
        <pt x="125" y="145" on="1"/>
        <pt x="102" y="0" on="1"/>
        <pt x="12" y="0" on="1"/>
        <pt x="123" y="626" on="1"/>
        <pt x="254" y="626" on="1"/>
        <pt x="373" y="0" on="1"/>
      </contour>
      <contour>
        <pt x="136" y="218" on="1"/>
        <pt x="245" y="218" on="1"/>
        <pt x="188" y="548" on="1"/>
      </contour>
      <contour>
        <pt x="123" y="673" on="1"/>
        <pt x="123" y="658" on="1"/>
        <pt x="45" y="658" on="1"/>
        <pt x="45" y="680" on="1"/>
        <pt x="45" y="720" on="0"/>
        <pt x="81" y="760" on="0"/>
        <pt x="123" y="760" on="1"/>
        <pt x="132" y="760" on="1"/>
        <pt x="157" y="760" on="0"/>
        <pt x="220" y="722" on="0"/>
        <pt x="240" y="722" on="0"/>
        <pt x="248" y="731" on="0"/>
        <pt x="248" y="746" on="1"/>
        <pt x="248" y="760" on="1"/>
        <pt x="325" y="760" on="1"/>
        <pt x="325" y="737" on="1"/>
        <pt x="325" y="698" on="0"/>
        <pt x="291" y="658" on="0"/>
        <pt x="248" y="658" on="1"/>
        <pt x="241" y="658" on="1"/>
        <pt x="215" y="658" on="0"/>
        <pt x="149" y="696" on="0"/>
        <pt x="140" y="696" on="1"/>
        <pt x="123" y="696" on="0"/>
      </contour>
    </TTGlyph>
    <TTGlyph name="B" xMin="52" yMin="0" xMax="363" yMax="626">
      <contour>
        <pt x="272" y="383" on="1"/>
        <pt x="272" y="526" on="1"/>
        <pt x="272" y="544" on="0"/>
        <pt x="260" y="555" on="0"/>
        <pt x="242" y="555" on="1"/>
        <pt x="142" y="555" on="1"/>
        <pt x="142" y="354" on="1"/>
        <pt x="242" y="354" on="1"/>
        <pt x="260" y="354" on="0"/>
        <pt x="272" y="365" on="0"/>
      </contour>
      <contour>
        <pt x="272" y="100" on="1"/>
        <pt x="272" y="254" on="1"/>
        <pt x="272" y="272" on="0"/>
        <pt x="260" y="283" on="0"/>
        <pt x="242" y="283" on="1"/>
        <pt x="142" y="283" on="1"/>
        <pt x="142" y="71" on="1"/>
        <pt x="242" y="71" on="1"/>
        <pt x="260" y="71" on="0"/>
        <pt x="272" y="82" on="0"/>
      </contour>
      <contour>
        <pt x="52" y="626" on="1"/>
        <pt x="269" y="626" on="1"/>
        <pt x="363" y="626" on="0"/>
        <pt x="363" y="538" on="1"/>
        <pt x="363" y="379" on="1"/>
        <pt x="363" y="326" on="0"/>
        <pt x="323" y="317" on="1"/>
        <pt x="363" y="307" on="0"/>
        <pt x="363" y="259" on="1"/>
        <pt x="363" y="88" on="1"/>
        <pt x="363" y="0" on="0"/>
        <pt x="269" y="0" on="1"/>
        <pt x="52" y="0" on="1"/>
      </contour>
    </TTGlyph>
    <TTGlyph name="C" xMin="47" yMin="-1" xMax="340" yMax="626">
      <contour>
        <pt x="340" y="430" on="1"/>
        <pt x="248" y="430" on="1"/>
        <pt x="248" y="526" on="1"/>
        <pt x="248" y="544" on="0"/>
        <pt x="237" y="555" on="0"/>
        <pt x="219" y="555" on="1"/>
        <pt x="168" y="555" on="1"/>
        <pt x="150" y="555" on="0"/>
        <pt x="138" y="544" on="0"/>
        <pt x="138" y="526" on="1"/>
        <pt x="138" y="99" on="1"/>
        <pt x="138" y="81" on="0"/>
        <pt x="150" y="70" on="0"/>
        <pt x="168" y="70" on="1"/>
        <pt x="219" y="70" on="1"/>
        <pt x="237" y="70" on="0"/>
        <pt x="248" y="81" on="0"/>
        <pt x="248" y="99" on="1"/>
        <pt x="248" y="194" on="1"/>
        <pt x="340" y="194" on="1"/>
        <pt x="340" y="88" on="1"/>
        <pt x="340" y="-1" on="0"/>
        <pt x="246" y="-1" on="1"/>
        <pt x="140" y="-1" on="1"/>
        <pt x="47" y="-1" on="0"/>
        <pt x="47" y="88" on="1"/>
        <pt x="47" y="538" on="1"/>
        <pt x="47" y="626" on="0"/>
        <pt x="140" y="626" on="1"/>
        <pt x="246" y="626" on="1"/>
        <pt x="340" y="626" on="0"/>
        <pt x="340" y="538" on="1"/>
      </contour>
    </TTGlyph>
    <TTGlyph name="Cacute" xMin="47" yMin="-1" xMax="340" yMax="789">
      <contour>
        <pt x="340" y="430" on="1"/>
        <pt x="248" y="430" on="1"/>
        <pt x="248" y="526" on="1"/>
        <pt x="248" y="544" on="0"/>
        <pt x="237" y="555" on="0"/>
        <pt x="219" y="555" on="1"/>
        <pt x="168" y="555" on="1"/>
        <pt x="150" y="555" on="0"/>
        <pt x="138" y="544" on="0"/>
        <pt x="138" y="526" on="1"/>
        <pt x="138" y="99" on="1"/>
        <pt x="138" y="81" on="0"/>
        <pt x="150" y="70" on="0"/>
        <pt x="168" y="70" on="1"/>
        <pt x="219" y="70" on="1"/>
        <pt x="237" y="70" on="0"/>
        <pt x="248" y="81" on="0"/>
        <pt x="248" y="99" on="1"/>
        <pt x="248" y="194" on="1"/>
        <pt x="340" y="194" on="1"/>
        <pt x="340" y="88" on="1"/>
        <pt x="340" y="-1" on="0"/>
        <pt x="246" y="-1" on="1"/>
        <pt x="140" y="-1" on="1"/>
        <pt x="47" y="-1" on="0"/>
        <pt x="47" y="88" on="1"/>
        <pt x="47" y="538" on="1"/>
        <pt x="47" y="626" on="0"/>
        <pt x="140" y="626" on="1"/>
        <pt x="246" y="626" on="1"/>
        <pt x="340" y="626" on="0"/>
        <pt x="340" y="538" on="1"/>
      </contour>
      <contour>
        <pt x="336" y="789" on="1"/>
        <pt x="231" y="657" on="1"/>
        <pt x="154" y="657" on="1"/>
        <pt x="236" y="789" on="1"/>
      </contour>
    </TTGlyph>
    <TTGlyph name="Ccaron" xMin="47" yMin="-1" xMax="340" yMax="789">
      <contour>
        <pt x="340" y="430" on="1"/>
        <pt x="248" y="430" on="1"/>
        <pt x="248" y="526" on="1"/>
        <pt x="248" y="544" on="0"/>
        <pt x="237" y="555" on="0"/>
        <pt x="219" y="555" on="1"/>
        <pt x="168" y="555" on="1"/>
        <pt x="150" y="555" on="0"/>
        <pt x="138" y="544" on="0"/>
        <pt x="138" y="526" on="1"/>
        <pt x="138" y="99" on="1"/>
        <pt x="138" y="81" on="0"/>
        <pt x="150" y="70" on="0"/>
        <pt x="168" y="70" on="1"/>
        <pt x="219" y="70" on="1"/>
        <pt x="237" y="70" on="0"/>
        <pt x="248" y="81" on="0"/>
        <pt x="248" y="99" on="1"/>
        <pt x="248" y="194" on="1"/>
        <pt x="340" y="194" on="1"/>
        <pt x="340" y="88" on="1"/>
        <pt x="340" y="-1" on="0"/>
        <pt x="246" y="-1" on="1"/>
        <pt x="140" y="-1" on="1"/>
        <pt x="47" y="-1" on="0"/>
        <pt x="47" y="88" on="1"/>
        <pt x="47" y="538" on="1"/>
        <pt x="47" y="626" on="0"/>
        <pt x="140" y="626" on="1"/>
        <pt x="246" y="626" on="1"/>
        <pt x="340" y="626" on="0"/>
        <pt x="340" y="538" on="1"/>
      </contour>
      <contour>
        <pt x="244" y="657" on="1"/>
        <pt x="143" y="657" on="1"/>
        <pt x="47" y="789" on="1"/>
        <pt x="141" y="789" on="1"/>
        <pt x="193" y="708" on="1"/>
        <pt x="246" y="789" on="1"/>
        <pt x="339" y="789" on="1"/>
      </contour>
    </TTGlyph>
    <TTGlyph name="Ccedilla" xMin="47" yMin="-187" xMax="340" yMax="626">
      <contour>
        <pt x="340" y="430" on="1"/>
        <pt x="248" y="430" on="1"/>
        <pt x="248" y="526" on="1"/>
        <pt x="248" y="544" on="0"/>
        <pt x="237" y="555" on="0"/>
        <pt x="219" y="555" on="1"/>
        <pt x="168" y="555" on="1"/>
        <pt x="150" y="555" on="0"/>
        <pt x="138" y="544" on="0"/>
        <pt x="138" y="526" on="1"/>
        <pt x="138" y="99" on="1"/>
        <pt x="138" y="81" on="0"/>
        <pt x="150" y="70" on="0"/>
        <pt x="168" y="70" on="1"/>
        <pt x="219" y="70" on="1"/>
        <pt x="237" y="70" on="0"/>
        <pt x="248" y="81" on="0"/>
        <pt x="248" y="99" on="1"/>
        <pt x="248" y="194" on="1"/>
        <pt x="340" y="194" on="1"/>
        <pt x="340" y="88" on="1"/>
        <pt x="340" y="-1" on="0"/>
        <pt x="246" y="-1" on="1"/>
        <pt x="140" y="-1" on="1"/>
        <pt x="47" y="-1" on="0"/>
        <pt x="47" y="88" on="1"/>
        <pt x="47" y="538" on="1"/>
        <pt x="47" y="626" on="0"/>
        <pt x="140" y="626" on="1"/>
        <pt x="246" y="626" on="1"/>
        <pt x="340" y="626" on="0"/>
        <pt x="340" y="538" on="1"/>
      </contour>
      <contour>
        <pt x="153" y="-84" on="1"/>
        <pt x="153" y="-50" on="1"/>
        <pt x="238" y="-50" on="1"/>
        <pt x="238" y="-91" on="1"/>
        <pt x="238" y="-187" on="0"/>
        <pt x="137" y="-187" on="1"/>
        <pt x="80" y="-187" on="1"/>
        <pt x="80" y="-117" on="1"/>
        <pt x="120" y="-117" on="1"/>
        <pt x="153" y="-117" on="0"/>
      </contour>
    </TTGlyph>
    <TTGlyph name="D" xMin="54" yMin="0" xMax="365" yMax="626">
      <contour>
        <pt x="54" y="626" on="1"/>
        <pt x="272" y="626" on="1"/>
        <pt x="365" y="626" on="0"/>
        <pt x="365" y="538" on="1"/>
        <pt x="365" y="88" on="1"/>
        <pt x="365" y="0" on="0"/>
        <pt x="272" y="0" on="1"/>
        <pt x="54" y="0" on="1"/>
      </contour>
      <contour>
        <pt x="274" y="100" on="1"/>
        <pt x="274" y="526" on="1"/>
        <pt x="274" y="544" on="0"/>
        <pt x="262" y="555" on="0"/>
        <pt x="244" y="555" on="1"/>
        <pt x="145" y="555" on="1"/>
        <pt x="145" y="71" on="1"/>
        <pt x="244" y="71" on="1"/>
        <pt x="262" y="71" on="0"/>
        <pt x="274" y="82" on="0"/>
      </contour>
    </TTGlyph>
    <TTGlyph name="Dcaron" xMin="54" yMin="0" xMax="365" yMax="789">
      <contour>
        <pt x="54" y="626" on="1"/>
        <pt x="272" y="626" on="1"/>
        <pt x="365" y="626" on="0"/>
        <pt x="365" y="538" on="1"/>
        <pt x="365" y="88" on="1"/>
        <pt x="365" y="0" on="0"/>
        <pt x="272" y="0" on="1"/>
        <pt x="54" y="0" on="1"/>
      </contour>
      <contour>
        <pt x="274" y="100" on="1"/>
        <pt x="274" y="526" on="1"/>
        <pt x="274" y="544" on="0"/>
        <pt x="262" y="555" on="0"/>
        <pt x="244" y="555" on="1"/>
        <pt x="145" y="555" on="1"/>
        <pt x="145" y="71" on="1"/>
        <pt x="244" y="71" on="1"/>
        <pt x="262" y="71" on="0"/>
        <pt x="274" y="82" on="0"/>
      </contour>
      <contour>
        <pt x="254" y="657" on="1"/>
        <pt x="153" y="657" on="1"/>
        <pt x="57" y="789" on="1"/>
        <pt x="151" y="789" on="1"/>
        <pt x="203" y="708" on="1"/>
        <pt x="256" y="789" on="1"/>
        <pt x="349" y="789" on="1"/>
      </contour>
    </TTGlyph>
    <TTGlyph name="Dcroat" xMin="3" yMin="0" xMax="365" yMax="626">
      <contour>
        <pt x="54" y="626" on="1"/>
        <pt x="272" y="626" on="1"/>
        <pt x="365" y="626" on="0"/>
        <pt x="365" y="538" on="1"/>
        <pt x="365" y="88" on="1"/>
        <pt x="365" y="0" on="0"/>
        <pt x="272" y="0" on="1"/>
        <pt x="54" y="0" on="1"/>
        <pt x="54" y="280" on="1"/>
        <pt x="3" y="280" on="1"/>
        <pt x="3" y="351" on="1"/>
        <pt x="54" y="351" on="1"/>
      </contour>
      <contour>
        <pt x="274" y="102" on="1"/>
        <pt x="274" y="524" on="1"/>
        <pt x="274" y="542" on="0"/>
        <pt x="262" y="553" on="0"/>
        <pt x="244" y="553" on="1"/>
        <pt x="145" y="553" on="1"/>
        <pt x="145" y="351" on="1"/>
        <pt x="220" y="351" on="1"/>
        <pt x="220" y="280" on="1"/>
        <pt x="145" y="280" on="1"/>
        <pt x="145" y="73" on="1"/>
        <pt x="244" y="73" on="1"/>
        <pt x="262" y="73" on="0"/>
        <pt x="274" y="84" on="0"/>
      </contour>
    </TTGlyph>
    <TTGlyph name="E" xMin="52" yMin="0" xMax="324" yMax="626">
      <contour>
        <pt x="143" y="73" on="1"/>
        <pt x="324" y="73" on="1"/>
        <pt x="324" y="0" on="1"/>
        <pt x="52" y="0" on="1"/>
        <pt x="52" y="626" on="1"/>
        <pt x="317" y="626" on="1"/>
        <pt x="317" y="553" on="1"/>
        <pt x="143" y="553" on="1"/>
        <pt x="143" y="360" on="1"/>
        <pt x="287" y="360" on="1"/>
        <pt x="287" y="287" on="1"/>
        <pt x="143" y="287" on="1"/>
      </contour>
    </TTGlyph>
    <TTGlyph name="Eacute" xMin="52" yMin="0" xMax="325" yMax="789">
      <contour>
        <pt x="143" y="287" on="1"/>
        <pt x="143" y="73" on="1"/>
        <pt x="324" y="73" on="1"/>
        <pt x="324" y="0" on="1"/>
        <pt x="52" y="0" on="1"/>
        <pt x="52" y="626" on="1"/>
        <pt x="317" y="626" on="1"/>
        <pt x="317" y="553" on="1"/>
        <pt x="143" y="553" on="1"/>
        <pt x="143" y="360" on="1"/>
        <pt x="287" y="360" on="1"/>
        <pt x="287" y="287" on="1"/>
      </contour>
      <contour>
        <pt x="325" y="789" on="1"/>
        <pt x="220" y="657" on="1"/>
        <pt x="143" y="657" on="1"/>
        <pt x="225" y="789" on="1"/>
      </contour>
    </TTGlyph>
    <TTGlyph name="Ecaron" xMin="38" yMin="0" xMax="330" yMax="789">
      <contour>
        <pt x="143" y="287" on="1"/>
        <pt x="143" y="73" on="1"/>
        <pt x="324" y="73" on="1"/>
        <pt x="324" y="0" on="1"/>
        <pt x="52" y="0" on="1"/>
        <pt x="52" y="626" on="1"/>
        <pt x="317" y="626" on="1"/>
        <pt x="317" y="553" on="1"/>
        <pt x="143" y="553" on="1"/>
        <pt x="143" y="360" on="1"/>
        <pt x="287" y="360" on="1"/>
        <pt x="287" y="287" on="1"/>
      </contour>
      <contour>
        <pt x="235" y="657" on="1"/>
        <pt x="134" y="657" on="1"/>
        <pt x="38" y="789" on="1"/>
        <pt x="132" y="789" on="1"/>
        <pt x="184" y="708" on="1"/>
        <pt x="237" y="789" on="1"/>
        <pt x="330" y="789" on="1"/>
      </contour>
    </TTGlyph>
    <TTGlyph name="Ecircumflex" xMin="40" yMin="0" xMax="332" yMax="789">
      <contour>
        <pt x="143" y="287" on="1"/>
        <pt x="143" y="73" on="1"/>
        <pt x="324" y="73" on="1"/>
        <pt x="324" y="0" on="1"/>
        <pt x="52" y="0" on="1"/>
        <pt x="52" y="626" on="1"/>
        <pt x="317" y="626" on="1"/>
        <pt x="317" y="553" on="1"/>
        <pt x="143" y="553" on="1"/>
        <pt x="143" y="360" on="1"/>
        <pt x="287" y="360" on="1"/>
        <pt x="287" y="287" on="1"/>
      </contour>
      <contour>
        <pt x="186" y="738" on="1"/>
        <pt x="134" y="657" on="1"/>
        <pt x="40" y="657" on="1"/>
        <pt x="136" y="789" on="1"/>
        <pt x="237" y="789" on="1"/>
        <pt x="332" y="657" on="1"/>
        <pt x="239" y="657" on="1"/>
      </contour>
    </TTGlyph>
    <TTGlyph name="Edieresis" xMin="37" yMin="0" xMax="328" yMax="751">
      <contour>
        <pt x="227" y="751" on="1"/>
        <pt x="328" y="751" on="1"/>
        <pt x="328" y="657" on="1"/>
        <pt x="227" y="657" on="1"/>
      </contour>
      <contour>
        <pt x="143" y="287" on="1"/>
        <pt x="143" y="73" on="1"/>
        <pt x="324" y="73" on="1"/>
        <pt x="324" y="0" on="1"/>
        <pt x="52" y="0" on="1"/>
        <pt x="52" y="626" on="1"/>
        <pt x="317" y="626" on="1"/>
        <pt x="317" y="553" on="1"/>
        <pt x="143" y="553" on="1"/>
        <pt x="143" y="360" on="1"/>
        <pt x="287" y="360" on="1"/>
        <pt x="287" y="287" on="1"/>
      </contour>
      <contour>
        <pt x="139" y="751" on="1"/>
        <pt x="139" y="657" on="1"/>
        <pt x="37" y="657" on="1"/>
        <pt x="37" y="751" on="1"/>
      </contour>
    </TTGlyph>
    <TTGlyph name="Edotaccent" xMin="52" yMin="0" xMax="324" yMax="753">
      <contour>
        <pt x="143" y="73" on="1"/>
        <pt x="324" y="73" on="1"/>
        <pt x="324" y="0" on="1"/>
        <pt x="52" y="0" on="1"/>
        <pt x="52" y="626" on="1"/>
        <pt x="317" y="626" on="1"/>
        <pt x="317" y="553" on="1"/>
        <pt x="143" y="553" on="1"/>
        <pt x="143" y="360" on="1"/>
        <pt x="287" y="360" on="1"/>
        <pt x="287" y="287" on="1"/>
        <pt x="143" y="287" on="1"/>
      </contour>
      <contour>
        <pt x="246" y="753" on="1"/>
        <pt x="246" y="657" on="1"/>
        <pt x="139" y="657" on="1"/>
        <pt x="139" y="753" on="1"/>
      </contour>
    </TTGlyph>
    <TTGlyph name="Egrave" xMin="41" yMin="0" xMax="324" yMax="789">
      <contour>
        <pt x="143" y="73" on="1"/>
        <pt x="324" y="73" on="1"/>
        <pt x="324" y="0" on="1"/>
        <pt x="52" y="0" on="1"/>
        <pt x="52" y="626" on="1"/>
        <pt x="317" y="626" on="1"/>
        <pt x="317" y="553" on="1"/>
        <pt x="143" y="553" on="1"/>
        <pt x="143" y="360" on="1"/>
        <pt x="287" y="360" on="1"/>
        <pt x="287" y="287" on="1"/>
        <pt x="143" y="287" on="1"/>
      </contour>
      <contour>
        <pt x="223" y="657" on="1"/>
        <pt x="146" y="657" on="1"/>
        <pt x="41" y="789" on="1"/>
        <pt x="141" y="789" on="1"/>
      </contour>
    </TTGlyph>
    <TTGlyph name="Emacron" xMin="49" yMin="0" xMax="324" yMax="739">
      <contour>
        <pt x="143" y="73" on="1"/>
        <pt x="324" y="73" on="1"/>
        <pt x="324" y="0" on="1"/>
        <pt x="52" y="0" on="1"/>
        <pt x="52" y="626" on="1"/>
        <pt x="317" y="626" on="1"/>
        <pt x="317" y="553" on="1"/>
        <pt x="143" y="553" on="1"/>
        <pt x="143" y="360" on="1"/>
        <pt x="287" y="360" on="1"/>
        <pt x="287" y="287" on="1"/>
        <pt x="143" y="287" on="1"/>
      </contour>
      <contour>
        <pt x="317" y="739" on="1"/>
        <pt x="317" y="671" on="1"/>
        <pt x="49" y="671" on="1"/>
        <pt x="49" y="739" on="1"/>
      </contour>
    </TTGlyph>
    <TTGlyph name="Eogonek" xMin="52" yMin="-225" xMax="342" yMax="626">
      <contour>
        <pt x="261" y="-162" on="1"/>
        <pt x="342" y="-162" on="1"/>
        <pt x="342" y="-225" on="1"/>
        <pt x="245" y="-225" on="1"/>
        <pt x="159" y="-225" on="0"/>
        <pt x="159" y="-141" on="1"/>
        <pt x="159" y="-108" on="1"/>
        <pt x="159" y="-23" on="0"/>
        <pt x="245" y="-23" on="1"/>
        <pt x="253" y="-23" on="1"/>
        <pt x="253" y="0" on="1"/>
        <pt x="52" y="0" on="1"/>
        <pt x="52" y="626" on="1"/>
        <pt x="317" y="626" on="1"/>
        <pt x="317" y="553" on="1"/>
        <pt x="143" y="553" on="1"/>
        <pt x="143" y="360" on="1"/>
        <pt x="287" y="360" on="1"/>
        <pt x="287" y="287" on="1"/>
        <pt x="143" y="287" on="1"/>
        <pt x="143" y="73" on="1"/>
        <pt x="324" y="73" on="1"/>
        <pt x="324" y="-86" on="1"/>
        <pt x="261" y="-86" on="1"/>
        <pt x="243" y="-86" on="0"/>
        <pt x="232" y="-96" on="0"/>
        <pt x="232" y="-113" on="1"/>
        <pt x="232" y="-135" on="1"/>
        <pt x="232" y="-152" on="0"/>
        <pt x="243" y="-162" on="0"/>
      </contour>
    </TTGlyph>
    <TTGlyph name="Eth" xMin="3" yMin="0" xMax="365" yMax="626">
      <contour>
        <pt x="54" y="626" on="1"/>
        <pt x="272" y="626" on="1"/>
        <pt x="365" y="626" on="0"/>
        <pt x="365" y="538" on="1"/>
        <pt x="365" y="88" on="1"/>
        <pt x="365" y="0" on="0"/>
        <pt x="272" y="0" on="1"/>
        <pt x="54" y="0" on="1"/>
        <pt x="54" y="280" on="1"/>
        <pt x="3" y="280" on="1"/>
        <pt x="3" y="351" on="1"/>
        <pt x="54" y="351" on="1"/>
      </contour>
      <contour>
        <pt x="274" y="100" on="1"/>
        <pt x="274" y="526" on="1"/>
        <pt x="274" y="544" on="0"/>
        <pt x="262" y="555" on="0"/>
        <pt x="244" y="555" on="1"/>
        <pt x="145" y="555" on="1"/>
        <pt x="145" y="351" on="1"/>
        <pt x="220" y="351" on="1"/>
        <pt x="220" y="280" on="1"/>
        <pt x="145" y="280" on="1"/>
        <pt x="145" y="71" on="1"/>
        <pt x="244" y="71" on="1"/>
        <pt x="262" y="71" on="0"/>
        <pt x="274" y="82" on="0"/>
      </contour>
    </TTGlyph>
    <TTGlyph name="Euro" xMin="23" yMin="-1" xMax="362" yMax="626">
      <contour>
        <pt x="362" y="430" on="1"/>
        <pt x="271" y="430" on="1"/>
        <pt x="271" y="526" on="1"/>
        <pt x="271" y="544" on="0"/>
        <pt x="259" y="555" on="0"/>
        <pt x="241" y="555" on="1"/>
        <pt x="190" y="555" on="1"/>
        <pt x="172" y="555" on="0"/>
        <pt x="161" y="544" on="0"/>
        <pt x="161" y="526" on="1"/>
        <pt x="161" y="405" on="1"/>
        <pt x="248" y="405" on="1"/>
        <pt x="248" y="339" on="1"/>
        <pt x="161" y="339" on="1"/>
        <pt x="161" y="288" on="1"/>
        <pt x="248" y="288" on="1"/>
        <pt x="248" y="221" on="1"/>
        <pt x="161" y="221" on="1"/>
        <pt x="161" y="99" on="1"/>
        <pt x="161" y="81" on="0"/>
        <pt x="172" y="70" on="0"/>
        <pt x="190" y="70" on="1"/>
        <pt x="241" y="70" on="1"/>
        <pt x="259" y="70" on="0"/>
        <pt x="271" y="81" on="0"/>
        <pt x="271" y="99" on="1"/>
        <pt x="271" y="194" on="1"/>
        <pt x="362" y="194" on="1"/>
        <pt x="362" y="88" on="1"/>
        <pt x="362" y="-1" on="0"/>
        <pt x="269" y="-1" on="1"/>
        <pt x="163" y="-1" on="1"/>
        <pt x="69" y="-1" on="0"/>
        <pt x="69" y="88" on="1"/>
        <pt x="69" y="221" on="1"/>
        <pt x="23" y="221" on="1"/>
        <pt x="23" y="288" on="1"/>
        <pt x="69" y="288" on="1"/>
        <pt x="69" y="339" on="1"/>
        <pt x="23" y="339" on="1"/>
        <pt x="23" y="405" on="1"/>
        <pt x="69" y="405" on="1"/>
        <pt x="69" y="538" on="1"/>
        <pt x="69" y="626" on="0"/>
        <pt x="163" y="626" on="1"/>
        <pt x="269" y="626" on="1"/>
        <pt x="362" y="626" on="0"/>
        <pt x="362" y="538" on="1"/>
      </contour>
    </TTGlyph>
    <TTGlyph name="F" xMin="52" yMin="0" xMax="325" yMax="626">
      <contour>
        <pt x="325" y="553" on="1"/>
        <pt x="143" y="553" on="1"/>
        <pt x="143" y="347" on="1"/>
        <pt x="287" y="347" on="1"/>
        <pt x="287" y="276" on="1"/>
        <pt x="143" y="276" on="1"/>
        <pt x="143" y="0" on="1"/>
        <pt x="52" y="0" on="1"/>
        <pt x="52" y="626" on="1"/>
        <pt x="325" y="626" on="1"/>
      </contour>
    </TTGlyph>
    <TTGlyph name="G" xMin="47" yMin="-1" xMax="340" yMax="626">
      <contour>
        <pt x="340" y="443" on="1"/>
        <pt x="249" y="443" on="1"/>
        <pt x="249" y="526" on="1"/>
        <pt x="249" y="544" on="0"/>
        <pt x="237" y="555" on="0"/>
        <pt x="219" y="555" on="1"/>
        <pt x="168" y="555" on="1"/>
        <pt x="150" y="555" on="0"/>
        <pt x="138" y="544" on="0"/>
        <pt x="138" y="526" on="1"/>
        <pt x="138" y="99" on="1"/>
        <pt x="138" y="81" on="0"/>
        <pt x="150" y="70" on="0"/>
        <pt x="168" y="70" on="1"/>
        <pt x="219" y="70" on="1"/>
        <pt x="237" y="70" on="0"/>
        <pt x="249" y="81" on="0"/>
        <pt x="249" y="99" on="1"/>
        <pt x="249" y="252" on="1"/>
        <pt x="199" y="252" on="1"/>
        <pt x="199" y="322" on="1"/>
        <pt x="340" y="322" on="1"/>
        <pt x="340" y="88" on="1"/>
        <pt x="340" y="-1" on="0"/>
        <pt x="247" y="-1" on="1"/>
        <pt x="140" y="-1" on="1"/>
        <pt x="47" y="-1" on="0"/>
        <pt x="47" y="88" on="1"/>
        <pt x="47" y="538" on="1"/>
        <pt x="47" y="626" on="0"/>
        <pt x="140" y="626" on="1"/>
        <pt x="247" y="626" on="1"/>
        <pt x="340" y="626" on="0"/>
        <pt x="340" y="538" on="1"/>
      </contour>
    </TTGlyph>
    <TTGlyph name="Gbreve" xMin="47" yMin="-1" xMax="340" yMax="789">
      <contour>
        <pt x="340" y="443" on="1"/>
        <pt x="249" y="443" on="1"/>
        <pt x="249" y="526" on="1"/>
        <pt x="249" y="544" on="0"/>
        <pt x="237" y="555" on="0"/>
        <pt x="219" y="555" on="1"/>
        <pt x="168" y="555" on="1"/>
        <pt x="150" y="555" on="0"/>
        <pt x="138" y="544" on="0"/>
        <pt x="138" y="526" on="1"/>
        <pt x="138" y="99" on="1"/>
        <pt x="138" y="81" on="0"/>
        <pt x="150" y="70" on="0"/>
        <pt x="168" y="70" on="1"/>
        <pt x="219" y="70" on="1"/>
        <pt x="237" y="70" on="0"/>
        <pt x="249" y="81" on="0"/>
        <pt x="249" y="99" on="1"/>
        <pt x="249" y="252" on="1"/>
        <pt x="199" y="252" on="1"/>
        <pt x="199" y="322" on="1"/>
        <pt x="340" y="322" on="1"/>
        <pt x="340" y="88" on="1"/>
        <pt x="340" y="-1" on="0"/>
        <pt x="247" y="-1" on="1"/>
        <pt x="140" y="-1" on="1"/>
        <pt x="47" y="-1" on="0"/>
        <pt x="47" y="88" on="1"/>
        <pt x="47" y="538" on="1"/>
        <pt x="47" y="626" on="0"/>
        <pt x="140" y="626" on="1"/>
        <pt x="247" y="626" on="1"/>
        <pt x="340" y="626" on="0"/>
        <pt x="340" y="538" on="1"/>
      </contour>
      <contour>
        <pt x="244" y="657" on="1"/>
        <pt x="143" y="657" on="1"/>
        <pt x="49" y="657" on="0"/>
        <pt x="49" y="746" on="1"/>
        <pt x="49" y="789" on="1"/>
        <pt x="133" y="789" on="1"/>
        <pt x="133" y="751" on="1"/>
        <pt x="133" y="733" on="0"/>
        <pt x="145" y="722" on="0"/>
        <pt x="163" y="722" on="1"/>
        <pt x="224" y="722" on="1"/>
        <pt x="242" y="722" on="0"/>
        <pt x="254" y="733" on="0"/>
        <pt x="254" y="751" on="1"/>
        <pt x="254" y="789" on="1"/>
        <pt x="338" y="789" on="1"/>
        <pt x="338" y="746" on="1"/>
        <pt x="338" y="657" on="0"/>
      </contour>
    </TTGlyph>
    <TTGlyph name="H" xMin="52" yMin="0" xMax="365" yMax="626">
      <contour>
        <pt x="275" y="626" on="1"/>
        <pt x="365" y="626" on="1"/>
        <pt x="365" y="0" on="1"/>
        <pt x="275" y="0" on="1"/>
        <pt x="275" y="275" on="1"/>
        <pt x="142" y="275" on="1"/>
        <pt x="142" y="0" on="1"/>
        <pt x="52" y="0" on="1"/>
        <pt x="52" y="626" on="1"/>
        <pt x="142" y="626" on="1"/>
        <pt x="142" y="348" on="1"/>
        <pt x="275" y="348" on="1"/>
      </contour>
    </TTGlyph>
    <TTGlyph name="I" xMin="60" yMin="0" xMax="150" yMax="626">
      <contour>
        <pt x="60" y="626" on="1"/>
        <pt x="150" y="626" on="1"/>
        <pt x="150" y="0" on="1"/>
        <pt x="60" y="0" on="1"/>
      </contour>
    </TTGlyph>
    <TTGlyph name="Iacute" xMin="60" yMin="0" xMax="251" yMax="789">
      <contour>
        <pt x="69" y="657" on="1"/>
        <pt x="151" y="789" on="1"/>
        <pt x="251" y="789" on="1"/>
        <pt x="146" y="657" on="1"/>
      </contour>
      <contour>
        <pt x="60" y="626" on="1"/>
        <pt x="150" y="626" on="1"/>
        <pt x="150" y="0" on="1"/>
        <pt x="60" y="0" on="1"/>
      </contour>
    </TTGlyph>
    <TTGlyph name="Icircumflex" xMin="-40" yMin="0" xMax="252" yMax="789">
      <contour>
        <pt x="-40" y="657" on="1"/>
        <pt x="56" y="789" on="1"/>
        <pt x="157" y="789" on="1"/>
        <pt x="252" y="657" on="1"/>
        <pt x="159" y="657" on="1"/>
        <pt x="106" y="738" on="1"/>
        <pt x="54" y="657" on="1"/>
      </contour>
      <contour>
        <pt x="60" y="626" on="1"/>
        <pt x="150" y="626" on="1"/>
        <pt x="150" y="0" on="1"/>
        <pt x="60" y="0" on="1"/>
      </contour>
    </TTGlyph>
    <TTGlyph name="Idieresis" xMin="-42" yMin="0" xMax="249" yMax="751">
      <contour>
        <pt x="60" y="626" on="1"/>
        <pt x="150" y="626" on="1"/>
        <pt x="150" y="0" on="1"/>
        <pt x="60" y="0" on="1"/>
      </contour>
      <contour>
        <pt x="148" y="657" on="1"/>
        <pt x="148" y="751" on="1"/>
        <pt x="249" y="751" on="1"/>
        <pt x="249" y="657" on="1"/>
      </contour>
      <contour>
        <pt x="-42" y="657" on="1"/>
        <pt x="-42" y="751" on="1"/>
        <pt x="60" y="751" on="1"/>
        <pt x="60" y="657" on="1"/>
      </contour>
    </TTGlyph>
    <TTGlyph name="Idotaccent" xMin="51" yMin="0" xMax="158" yMax="766">
      <contour>
        <pt x="51" y="670" on="1"/>
        <pt x="51" y="766" on="1"/>
        <pt x="158" y="766" on="1"/>
        <pt x="158" y="670" on="1"/>
      </contour>
      <contour>
        <pt x="60" y="626" on="1"/>
        <pt x="150" y="626" on="1"/>
        <pt x="150" y="0" on="1"/>
        <pt x="60" y="0" on="1"/>
      </contour>
    </TTGlyph>
    <TTGlyph name="Igrave" xMin="-39" yMin="0" xMax="150" yMax="789">
      <contour>
        <pt x="61" y="789" on="1"/>
        <pt x="143" y="657" on="1"/>
        <pt x="66" y="657" on="1"/>
        <pt x="-39" y="789" on="1"/>
      </contour>
      <contour>
        <pt x="60" y="626" on="1"/>
        <pt x="150" y="626" on="1"/>
        <pt x="150" y="0" on="1"/>
        <pt x="60" y="0" on="1"/>
      </contour>
    </TTGlyph>
    <TTGlyph name="Imacron" xMin="-30" yMin="0" xMax="238" yMax="739">
      <contour>
        <pt x="-30" y="671" on="1"/>
        <pt x="-30" y="739" on="1"/>
        <pt x="238" y="739" on="1"/>
        <pt x="238" y="671" on="1"/>
      </contour>
      <contour>
        <pt x="60" y="626" on="1"/>
        <pt x="150" y="626" on="1"/>
        <pt x="150" y="0" on="1"/>
        <pt x="60" y="0" on="1"/>
      </contour>
    </TTGlyph>
    <TTGlyph name="Iogonek" xMin="-15" yMin="-225" xMax="168" yMax="626">
      <contour>
        <pt x="87" y="-162" on="1"/>
        <pt x="168" y="-162" on="1"/>
        <pt x="168" y="-225" on="1"/>
        <pt x="71" y="-225" on="1"/>
        <pt x="-15" y="-225" on="0"/>
        <pt x="-15" y="-141" on="1"/>
        <pt x="-15" y="-108" on="1"/>
        <pt x="-15" y="-23" on="0"/>
        <pt x="71" y="-23" on="1"/>
        <pt x="79" y="-23" on="1"/>
        <pt x="79" y="0" on="1"/>
        <pt x="60" y="0" on="1"/>
        <pt x="60" y="626" on="1"/>
        <pt x="150" y="626" on="1"/>
        <pt x="150" y="-86" on="1"/>
        <pt x="87" y="-86" on="1"/>
        <pt x="69" y="-86" on="0"/>
        <pt x="58" y="-96" on="0"/>
        <pt x="58" y="-113" on="1"/>
        <pt x="58" y="-135" on="1"/>
        <pt x="58" y="-152" on="0"/>
        <pt x="69" y="-162" on="0"/>
      </contour>
    </TTGlyph>
    <TTGlyph name="J" xMin="14" yMin="0" xMax="285" yMax="626">
      <contour>
        <pt x="14" y="206" on="1"/>
        <pt x="105" y="206" on="1"/>
        <pt x="105" y="102" on="1"/>
        <pt x="105" y="84" on="0"/>
        <pt x="117" y="73" on="0"/>
        <pt x="135" y="73" on="1"/>
        <pt x="164" y="73" on="1"/>
        <pt x="182" y="73" on="0"/>
        <pt x="194" y="84" on="0"/>
        <pt x="194" y="102" on="1"/>
        <pt x="194" y="626" on="1"/>
        <pt x="285" y="626" on="1"/>
        <pt x="285" y="88" on="1"/>
        <pt x="285" y="0" on="0"/>
        <pt x="192" y="0" on="1"/>
        <pt x="107" y="0" on="1"/>
        <pt x="14" y="0" on="0"/>
        <pt x="14" y="88" on="1"/>
      </contour>
    </TTGlyph>
    <TTGlyph name="K" xMin="52" yMin="0" xMax="374" yMax="626">
      <contour>
        <pt x="374" y="626" on="1"/>
        <pt x="242" y="312" on="1"/>
        <pt x="373" y="0" on="1"/>
        <pt x="275" y="0" on="1"/>
        <pt x="148" y="312" on="1"/>
        <pt x="277" y="626" on="1"/>
      </contour>
      <contour>
        <pt x="52" y="0" on="1"/>
        <pt x="52" y="626" on="1"/>
        <pt x="142" y="626" on="1"/>
        <pt x="142" y="0" on="1"/>
      </contour>
    </TTGlyph>
    <TTGlyph name="L" xMin="52" yMin="0" xMax="297" yMax="626">
      <contour>
        <pt x="142" y="73" on="1"/>
        <pt x="297" y="73" on="1"/>
        <pt x="297" y="0" on="1"/>
        <pt x="52" y="0" on="1"/>
        <pt x="52" y="626" on="1"/>
        <pt x="142" y="626" on="1"/>
      </contour>
    </TTGlyph>
    <TTGlyph name="Lacute" xMin="52" yMin="0" xMax="297" yMax="789">
      <contour>
        <pt x="142" y="73" on="1"/>
        <pt x="297" y="73" on="1"/>
        <pt x="297" y="0" on="1"/>
        <pt x="52" y="0" on="1"/>
        <pt x="52" y="626" on="1"/>
        <pt x="142" y="626" on="1"/>
      </contour>
      <contour>
        <pt x="241" y="789" on="1"/>
        <pt x="136" y="657" on="1"/>
        <pt x="59" y="657" on="1"/>
        <pt x="141" y="789" on="1"/>
      </contour>
    </TTGlyph>
    <TTGlyph name="Lcaron" xMin="-51" yMin="0" xMax="297" yMax="794">
      <contour>
        <pt x="142" y="73" on="1"/>
        <pt x="297" y="73" on="1"/>
        <pt x="297" y="0" on="1"/>
        <pt x="52" y="0" on="1"/>
        <pt x="52" y="626" on="1"/>
        <pt x="142" y="626" on="1"/>
      </contour>
      <contour>
        <pt x="241" y="794" on="1"/>
        <pt x="146" y="662" on="1"/>
        <pt x="45" y="662" on="1"/>
        <pt x="-51" y="794" on="1"/>
        <pt x="43" y="794" on="1"/>
        <pt x="95" y="713" on="1"/>
        <pt x="148" y="794" on="1"/>
      </contour>
    </TTGlyph>
    <TTGlyph name="Lslash" xMin="-22" yMin="0" xMax="299" yMax="626">
      <contour>
        <pt x="144" y="73" on="1"/>
        <pt x="299" y="73" on="1"/>
        <pt x="299" y="0" on="1"/>
        <pt x="54" y="0" on="1"/>
        <pt x="54" y="253" on="1"/>
        <pt x="-22" y="217" on="1"/>
        <pt x="-22" y="288" on="1"/>
        <pt x="54" y="323" on="1"/>
        <pt x="54" y="626" on="1"/>
        <pt x="144" y="626" on="1"/>
        <pt x="144" y="365" on="1"/>
        <pt x="244" y="412" on="1"/>
        <pt x="244" y="342" on="1"/>
        <pt x="144" y="295" on="1"/>
      </contour>
    </TTGlyph>
    <TTGlyph name="M" xMin="52" yMin="0" xMax="464" yMax="626">
      <contour>
        <pt x="131" y="0" on="1"/>
        <pt x="52" y="0" on="1"/>
        <pt x="52" y="626" on="1"/>
        <pt x="151" y="626" on="1"/>
        <pt x="258" y="238" on="1"/>
        <pt x="365" y="626" on="1"/>
        <pt x="464" y="626" on="1"/>
        <pt x="464" y="0" on="1"/>
        <pt x="385" y="0" on="1"/>
        <pt x="385" y="458" on="1"/>
        <pt x="299" y="136" on="1"/>
        <pt x="217" y="136" on="1"/>
        <pt x="131" y="457" on="1"/>
      </contour>
    </TTGlyph>
    <TTGlyph name="N" xMin="52" yMin="0" xMax="358" yMax="626">
      <contour>
        <pt x="275" y="626" on="1"/>
        <pt x="358" y="626" on="1"/>
        <pt x="358" y="0" on="1"/>
        <pt x="267" y="0" on="1"/>
        <pt x="135" y="452" on="1"/>
        <pt x="135" y="0" on="1"/>
        <pt x="52" y="0" on="1"/>
        <pt x="52" y="626" on="1"/>
        <pt x="147" y="626" on="1"/>
        <pt x="275" y="187" on="1"/>
      </contour>
    </TTGlyph>
    <TTGlyph name="Nacute" xMin="52" yMin="0" xMax="358" yMax="789">
      <contour>
        <pt x="275" y="626" on="1"/>
        <pt x="358" y="626" on="1"/>
        <pt x="358" y="0" on="1"/>
        <pt x="267" y="0" on="1"/>
        <pt x="135" y="452" on="1"/>
        <pt x="135" y="0" on="1"/>
        <pt x="52" y="0" on="1"/>
        <pt x="52" y="626" on="1"/>
        <pt x="147" y="626" on="1"/>
        <pt x="275" y="187" on="1"/>
      </contour>
      <contour>
        <pt x="167" y="657" on="1"/>
        <pt x="249" y="789" on="1"/>
        <pt x="349" y="789" on="1"/>
        <pt x="244" y="657" on="1"/>
      </contour>
    </TTGlyph>
    <TTGlyph name="Ncaron" xMin="52" yMin="0" xMax="358" yMax="789">
      <contour>
        <pt x="275" y="626" on="1"/>
        <pt x="358" y="626" on="1"/>
        <pt x="358" y="0" on="1"/>
        <pt x="267" y="0" on="1"/>
        <pt x="135" y="452" on="1"/>
        <pt x="135" y="0" on="1"/>
        <pt x="52" y="0" on="1"/>
        <pt x="52" y="626" on="1"/>
        <pt x="147" y="626" on="1"/>
        <pt x="275" y="187" on="1"/>
      </contour>
      <contour>
        <pt x="157" y="657" on="1"/>
        <pt x="61" y="789" on="1"/>
        <pt x="155" y="789" on="1"/>
        <pt x="207" y="708" on="1"/>
        <pt x="260" y="789" on="1"/>
        <pt x="353" y="789" on="1"/>
        <pt x="258" y="657" on="1"/>
      </contour>
    </TTGlyph>
    <TTGlyph name="Ntilde" xMin="52" yMin="0" xMax="358" yMax="760">
      <contour>
        <pt x="261" y="658" on="1"/>
        <pt x="235" y="658" on="0"/>
        <pt x="169" y="696" on="0"/>
        <pt x="160" y="696" on="1"/>
        <pt x="143" y="696" on="0"/>
        <pt x="143" y="673" on="1"/>
        <pt x="143" y="658" on="1"/>
        <pt x="65" y="658" on="1"/>
        <pt x="65" y="680" on="1"/>
        <pt x="65" y="720" on="0"/>
        <pt x="101" y="760" on="0"/>
        <pt x="143" y="760" on="1"/>
        <pt x="152" y="760" on="1"/>
        <pt x="177" y="760" on="0"/>
        <pt x="240" y="722" on="0"/>
        <pt x="260" y="722" on="0"/>
        <pt x="268" y="731" on="0"/>
        <pt x="268" y="746" on="1"/>
        <pt x="268" y="760" on="1"/>
        <pt x="345" y="760" on="1"/>
        <pt x="345" y="737" on="1"/>
        <pt x="345" y="698" on="0"/>
        <pt x="311" y="658" on="0"/>
        <pt x="268" y="658" on="1"/>
      </contour>
      <contour>
        <pt x="275" y="626" on="1"/>
        <pt x="358" y="626" on="1"/>
        <pt x="358" y="0" on="1"/>
        <pt x="267" y="0" on="1"/>
        <pt x="135" y="452" on="1"/>
        <pt x="135" y="0" on="1"/>
        <pt x="52" y="0" on="1"/>
        <pt x="52" y="626" on="1"/>
        <pt x="147" y="626" on="1"/>
        <pt x="275" y="187" on="1"/>
      </contour>
    </TTGlyph>
    <TTGlyph name="O" xMin="47" yMin="0" xMax="345" yMax="626">
      <contour>
        <pt x="141" y="626" on="1"/>
        <pt x="252" y="626" on="1"/>
        <pt x="345" y="626" on="0"/>
        <pt x="345" y="538" on="1"/>
        <pt x="345" y="88" on="1"/>
        <pt x="345" y="0" on="0"/>
        <pt x="252" y="0" on="1"/>
        <pt x="141" y="0" on="1"/>
        <pt x="47" y="0" on="0"/>
        <pt x="47" y="88" on="1"/>
        <pt x="47" y="538" on="1"/>
        <pt x="47" y="626" on="0"/>
      </contour>
      <contour>
        <pt x="255" y="102" on="1"/>
        <pt x="255" y="524" on="1"/>
        <pt x="255" y="542" on="0"/>
        <pt x="243" y="553" on="0"/>
        <pt x="225" y="553" on="1"/>
        <pt x="167" y="553" on="1"/>
        <pt x="149" y="553" on="0"/>
        <pt x="138" y="542" on="0"/>
        <pt x="138" y="524" on="1"/>
        <pt x="138" y="102" on="1"/>
        <pt x="138" y="84" on="0"/>
        <pt x="149" y="73" on="0"/>
        <pt x="167" y="73" on="1"/>
        <pt x="225" y="73" on="1"/>
        <pt x="243" y="73" on="0"/>
        <pt x="255" y="84" on="0"/>
      </contour>
    </TTGlyph>
    <TTGlyph name="OE" xMin="53" yMin="0" xMax="537" yMax="626">
      <contour>
        <pt x="356" y="71" on="1"/>
        <pt x="537" y="71" on="1"/>
        <pt x="537" y="0" on="1"/>
        <pt x="283" y="0" on="1"/>
        <pt x="283" y="19" on="1"/>
        <pt x="262" y="0" on="0"/>
        <pt x="224" y="0" on="1"/>
        <pt x="146" y="0" on="1"/>
        <pt x="53" y="0" on="0"/>
        <pt x="53" y="88" on="1"/>
        <pt x="53" y="538" on="1"/>
        <pt x="53" y="626" on="0"/>
        <pt x="146" y="626" on="1"/>
        <pt x="223" y="626" on="1"/>
        <pt x="261" y="626" on="0"/>
        <pt x="283" y="607" on="1"/>
        <pt x="283" y="626" on="1"/>
        <pt x="530" y="626" on="1"/>
        <pt x="530" y="555" on="1"/>
        <pt x="356" y="555" on="1"/>
        <pt x="356" y="359" on="1"/>
        <pt x="500" y="359" on="1"/>
        <pt x="500" y="288" on="1"/>
        <pt x="356" y="288" on="1"/>
      </contour>
      <contour>
        <pt x="261" y="100" on="1"/>
        <pt x="261" y="526" on="1"/>
        <pt x="261" y="544" on="0"/>
        <pt x="249" y="555" on="0"/>
        <pt x="231" y="555" on="1"/>
        <pt x="173" y="555" on="1"/>
        <pt x="155" y="555" on="0"/>
        <pt x="144" y="544" on="0"/>
        <pt x="144" y="526" on="1"/>
        <pt x="144" y="100" on="1"/>
        <pt x="144" y="82" on="0"/>
        <pt x="155" y="71" on="0"/>
        <pt x="173" y="71" on="1"/>
        <pt x="231" y="71" on="1"/>
        <pt x="249" y="71" on="0"/>
        <pt x="261" y="82" on="0"/>
      </contour>
    </TTGlyph>
    <TTGlyph name="Oacute" xMin="47" yMin="0" xMax="345" yMax="789">
      <contour>
        <pt x="141" y="626" on="1"/>
        <pt x="252" y="626" on="1"/>
        <pt x="345" y="626" on="0"/>
        <pt x="345" y="538" on="1"/>
        <pt x="345" y="88" on="1"/>
        <pt x="345" y="0" on="0"/>
        <pt x="252" y="0" on="1"/>
        <pt x="141" y="0" on="1"/>
        <pt x="47" y="0" on="0"/>
        <pt x="47" y="88" on="1"/>
        <pt x="47" y="538" on="1"/>
        <pt x="47" y="626" on="0"/>
      </contour>
      <contour>
        <pt x="255" y="102" on="1"/>
        <pt x="255" y="524" on="1"/>
        <pt x="255" y="542" on="0"/>
        <pt x="243" y="553" on="0"/>
        <pt x="225" y="553" on="1"/>
        <pt x="167" y="553" on="1"/>
        <pt x="149" y="553" on="0"/>
        <pt x="138" y="542" on="0"/>
        <pt x="138" y="524" on="1"/>
        <pt x="138" y="102" on="1"/>
        <pt x="138" y="84" on="0"/>
        <pt x="149" y="73" on="0"/>
        <pt x="167" y="73" on="1"/>
        <pt x="225" y="73" on="1"/>
        <pt x="243" y="73" on="0"/>
        <pt x="255" y="84" on="0"/>
      </contour>
      <contour>
        <pt x="334" y="789" on="1"/>
        <pt x="229" y="657" on="1"/>
        <pt x="152" y="657" on="1"/>
        <pt x="234" y="789" on="1"/>
      </contour>
    </TTGlyph>
    <TTGlyph name="Ocircumflex" xMin="47" yMin="0" xMax="345" yMax="789">
      <contour>
        <pt x="141" y="626" on="1"/>
        <pt x="252" y="626" on="1"/>
        <pt x="345" y="626" on="0"/>
        <pt x="345" y="538" on="1"/>
        <pt x="345" y="88" on="1"/>
        <pt x="345" y="0" on="0"/>
        <pt x="252" y="0" on="1"/>
        <pt x="141" y="0" on="1"/>
        <pt x="47" y="0" on="0"/>
        <pt x="47" y="88" on="1"/>
        <pt x="47" y="538" on="1"/>
        <pt x="47" y="626" on="0"/>
      </contour>
      <contour>
        <pt x="255" y="102" on="1"/>
        <pt x="255" y="524" on="1"/>
        <pt x="255" y="542" on="0"/>
        <pt x="243" y="553" on="0"/>
        <pt x="225" y="553" on="1"/>
        <pt x="167" y="553" on="1"/>
        <pt x="149" y="553" on="0"/>
        <pt x="138" y="542" on="0"/>
        <pt x="138" y="524" on="1"/>
        <pt x="138" y="102" on="1"/>
        <pt x="138" y="84" on="0"/>
        <pt x="149" y="73" on="0"/>
        <pt x="167" y="73" on="1"/>
        <pt x="225" y="73" on="1"/>
        <pt x="243" y="73" on="0"/>
        <pt x="255" y="84" on="0"/>
      </contour>
      <contour>
        <pt x="195" y="738" on="1"/>
        <pt x="143" y="657" on="1"/>
        <pt x="49" y="657" on="1"/>
        <pt x="145" y="789" on="1"/>
        <pt x="246" y="789" on="1"/>
        <pt x="341" y="657" on="1"/>
        <pt x="248" y="657" on="1"/>
      </contour>
    </TTGlyph>
    <TTGlyph name="Odieresis" xMin="47" yMin="0" xMax="345" yMax="751">
      <contour>
        <pt x="141" y="626" on="1"/>
        <pt x="252" y="626" on="1"/>
        <pt x="345" y="626" on="0"/>
        <pt x="345" y="538" on="1"/>
        <pt x="345" y="88" on="1"/>
        <pt x="345" y="0" on="0"/>
        <pt x="252" y="0" on="1"/>
        <pt x="141" y="0" on="1"/>
        <pt x="47" y="0" on="0"/>
        <pt x="47" y="88" on="1"/>
        <pt x="47" y="538" on="1"/>
        <pt x="47" y="626" on="0"/>
      </contour>
      <contour>
        <pt x="255" y="102" on="1"/>
        <pt x="255" y="524" on="1"/>
        <pt x="255" y="542" on="0"/>
        <pt x="243" y="553" on="0"/>
        <pt x="225" y="553" on="1"/>
        <pt x="167" y="553" on="1"/>
        <pt x="149" y="553" on="0"/>
        <pt x="138" y="542" on="0"/>
        <pt x="138" y="524" on="1"/>
        <pt x="138" y="102" on="1"/>
        <pt x="138" y="84" on="0"/>
        <pt x="149" y="73" on="0"/>
        <pt x="167" y="73" on="1"/>
        <pt x="225" y="73" on="1"/>
        <pt x="243" y="73" on="0"/>
        <pt x="255" y="84" on="0"/>
      </contour>
      <contour>
        <pt x="153" y="751" on="1"/>
        <pt x="153" y="657" on="1"/>
        <pt x="51" y="657" on="1"/>
        <pt x="51" y="751" on="1"/>
      </contour>
      <contour>
        <pt x="342" y="751" on="1"/>
        <pt x="342" y="657" on="1"/>
        <pt x="241" y="657" on="1"/>
        <pt x="241" y="751" on="1"/>
      </contour>
    </TTGlyph>
    <TTGlyph name="Ograve" xMin="43" yMin="0" xMax="345" yMax="789">
      <contour>
        <pt x="141" y="626" on="1"/>
        <pt x="252" y="626" on="1"/>
        <pt x="345" y="626" on="0"/>
        <pt x="345" y="538" on="1"/>
        <pt x="345" y="88" on="1"/>
        <pt x="345" y="0" on="0"/>
        <pt x="252" y="0" on="1"/>
        <pt x="141" y="0" on="1"/>
        <pt x="47" y="0" on="0"/>
        <pt x="47" y="88" on="1"/>
        <pt x="47" y="538" on="1"/>
        <pt x="47" y="626" on="0"/>
      </contour>
      <contour>
        <pt x="255" y="102" on="1"/>
        <pt x="255" y="524" on="1"/>
        <pt x="255" y="542" on="0"/>
        <pt x="243" y="553" on="0"/>
        <pt x="225" y="553" on="1"/>
        <pt x="167" y="553" on="1"/>
        <pt x="149" y="553" on="0"/>
        <pt x="138" y="542" on="0"/>
        <pt x="138" y="524" on="1"/>
        <pt x="138" y="102" on="1"/>
        <pt x="138" y="84" on="0"/>
        <pt x="149" y="73" on="0"/>
        <pt x="167" y="73" on="1"/>
        <pt x="225" y="73" on="1"/>
        <pt x="243" y="73" on="0"/>
        <pt x="255" y="84" on="0"/>
      </contour>
      <contour>
        <pt x="225" y="657" on="1"/>
        <pt x="148" y="657" on="1"/>
        <pt x="43" y="789" on="1"/>
        <pt x="143" y="789" on="1"/>
      </contour>
    </TTGlyph>
    <TTGlyph name="Ohungarumlaut" xMin="47" yMin="0" xMax="394" yMax="789">
      <contour>
        <pt x="141" y="626" on="1"/>
        <pt x="252" y="626" on="1"/>
        <pt x="345" y="626" on="0"/>
        <pt x="345" y="538" on="1"/>
        <pt x="345" y="88" on="1"/>
        <pt x="345" y="0" on="0"/>
        <pt x="252" y="0" on="1"/>
        <pt x="141" y="0" on="1"/>
        <pt x="47" y="0" on="0"/>
        <pt x="47" y="88" on="1"/>
        <pt x="47" y="538" on="1"/>
        <pt x="47" y="626" on="0"/>
      </contour>
      <contour>
        <pt x="255" y="102" on="1"/>
        <pt x="255" y="524" on="1"/>
        <pt x="255" y="542" on="0"/>
        <pt x="243" y="553" on="0"/>
        <pt x="225" y="553" on="1"/>
        <pt x="167" y="553" on="1"/>
        <pt x="149" y="553" on="0"/>
        <pt x="138" y="542" on="0"/>
        <pt x="138" y="524" on="1"/>
        <pt x="138" y="102" on="1"/>
        <pt x="138" y="84" on="0"/>
        <pt x="149" y="73" on="0"/>
        <pt x="167" y="73" on="1"/>
        <pt x="225" y="73" on="1"/>
        <pt x="243" y="73" on="0"/>
        <pt x="255" y="84" on="0"/>
      </contour>
      <contour>
        <pt x="275" y="789" on="1"/>
        <pt x="169" y="657" on="1"/>
        <pt x="103" y="657" on="1"/>
        <pt x="185" y="789" on="1"/>
      </contour>
      <contour>
        <pt x="288" y="657" on="1"/>
        <pt x="222" y="657" on="1"/>
        <pt x="304" y="789" on="1"/>
        <pt x="394" y="789" on="1"/>
      </contour>
    </TTGlyph>
    <TTGlyph name="Omacron" xMin="47" yMin="0" xMax="345" yMax="726">
      <contour>
        <pt x="141" y="626" on="1"/>
        <pt x="252" y="626" on="1"/>
        <pt x="345" y="626" on="0"/>
        <pt x="345" y="538" on="1"/>
        <pt x="345" y="88" on="1"/>
        <pt x="345" y="0" on="0"/>
        <pt x="252" y="0" on="1"/>
        <pt x="141" y="0" on="1"/>
        <pt x="47" y="0" on="0"/>
        <pt x="47" y="88" on="1"/>
        <pt x="47" y="538" on="1"/>
        <pt x="47" y="626" on="0"/>
      </contour>
      <contour>
        <pt x="255" y="102" on="1"/>
        <pt x="255" y="524" on="1"/>
        <pt x="255" y="542" on="0"/>
        <pt x="243" y="553" on="0"/>
        <pt x="225" y="553" on="1"/>
        <pt x="167" y="553" on="1"/>
        <pt x="149" y="553" on="0"/>
        <pt x="138" y="542" on="0"/>
        <pt x="138" y="524" on="1"/>
        <pt x="138" y="102" on="1"/>
        <pt x="138" y="84" on="0"/>
        <pt x="149" y="73" on="0"/>
        <pt x="167" y="73" on="1"/>
        <pt x="225" y="73" on="1"/>
        <pt x="243" y="73" on="0"/>
        <pt x="255" y="84" on="0"/>
      </contour>
      <contour>
        <pt x="330" y="726" on="1"/>
        <pt x="330" y="658" on="1"/>
        <pt x="62" y="658" on="1"/>
        <pt x="62" y="726" on="1"/>
      </contour>
    </TTGlyph>
    <TTGlyph name="Oslash" xMin="50" yMin="-20" xMax="352" yMax="646">
      <contour>
        <pt x="349" y="538" on="1"/>
        <pt x="349" y="88" on="1"/>
        <pt x="349" y="0" on="0"/>
        <pt x="256" y="0" on="1"/>
        <pt x="145" y="0" on="1"/>
        <pt x="127" y="0" on="0"/>
        <pt x="112" y="3" on="1"/>
        <pt x="103" y="-20" on="1"/>
        <pt x="50" y="-20" on="1"/>
        <pt x="68" y="29" on="1"/>
        <pt x="51" y="51" on="0"/>
        <pt x="51" y="88" on="1"/>
        <pt x="51" y="538" on="1"/>
        <pt x="51" y="626" on="0"/>
        <pt x="145" y="626" on="1"/>
        <pt x="256" y="626" on="1"/>
        <pt x="277" y="626" on="0"/>
        <pt x="290" y="622" on="1"/>
        <pt x="299" y="646" on="1"/>
        <pt x="352" y="646" on="1"/>
        <pt x="333" y="596" on="1"/>
        <pt x="349" y="576" on="0"/>
      </contour>
      <contour>
        <pt x="139" y="529" on="1"/>
        <pt x="139" y="218" on="1"/>
        <pt x="261" y="543" on="1"/>
        <pt x="257" y="558" on="0"/>
        <pt x="231" y="558" on="1"/>
        <pt x="169" y="558" on="1"/>
        <pt x="150" y="558" on="0"/>
        <pt x="139" y="546" on="0"/>
      </contour>
      <contour>
        <pt x="262" y="98" on="1"/>
        <pt x="262" y="405" on="1"/>
        <pt x="141" y="81" on="1"/>
        <pt x="145" y="68" on="0"/>
        <pt x="169" y="68" on="1"/>
        <pt x="231" y="68" on="1"/>
        <pt x="250" y="68" on="0"/>
        <pt x="262" y="80" on="0"/>
      </contour>
    </TTGlyph>
    <TTGlyph name="Otilde" xMin="47" yMin="0" xMax="345" yMax="760">
      <contour>
        <pt x="141" y="626" on="1"/>
        <pt x="252" y="626" on="1"/>
        <pt x="345" y="626" on="0"/>
        <pt x="345" y="538" on="1"/>
        <pt x="345" y="88" on="1"/>
        <pt x="345" y="0" on="0"/>
        <pt x="252" y="0" on="1"/>
        <pt x="141" y="0" on="1"/>
        <pt x="47" y="0" on="0"/>
        <pt x="47" y="88" on="1"/>
        <pt x="47" y="538" on="1"/>
        <pt x="47" y="626" on="0"/>
      </contour>
      <contour>
        <pt x="255" y="102" on="1"/>
        <pt x="255" y="524" on="1"/>
        <pt x="255" y="542" on="0"/>
        <pt x="243" y="553" on="0"/>
        <pt x="225" y="553" on="1"/>
        <pt x="167" y="553" on="1"/>
        <pt x="149" y="553" on="0"/>
        <pt x="138" y="542" on="0"/>
        <pt x="138" y="524" on="1"/>
        <pt x="138" y="102" on="1"/>
        <pt x="138" y="84" on="0"/>
        <pt x="149" y="73" on="0"/>
        <pt x="167" y="73" on="1"/>
        <pt x="225" y="73" on="1"/>
        <pt x="243" y="73" on="0"/>
        <pt x="255" y="84" on="0"/>
      </contour>
      <contour>
        <pt x="133" y="673" on="1"/>
        <pt x="133" y="658" on="1"/>
        <pt x="55" y="658" on="1"/>
        <pt x="55" y="680" on="1"/>
        <pt x="55" y="720" on="0"/>
        <pt x="91" y="760" on="0"/>
        <pt x="133" y="760" on="1"/>
        <pt x="142" y="760" on="1"/>
        <pt x="167" y="760" on="0"/>
        <pt x="230" y="722" on="0"/>
        <pt x="250" y="722" on="0"/>
        <pt x="258" y="731" on="0"/>
        <pt x="258" y="746" on="1"/>
        <pt x="258" y="760" on="1"/>
        <pt x="335" y="760" on="1"/>
        <pt x="335" y="737" on="1"/>
        <pt x="335" y="698" on="0"/>
        <pt x="301" y="658" on="0"/>
        <pt x="258" y="658" on="1"/>
        <pt x="251" y="658" on="1"/>
        <pt x="225" y="658" on="0"/>
        <pt x="159" y="696" on="0"/>
        <pt x="150" y="696" on="1"/>
        <pt x="133" y="696" on="0"/>
      </contour>
    </TTGlyph>
    <TTGlyph name="P" xMin="52" yMin="0" xMax="350" yMax="626">
      <contour>
        <pt x="52" y="626" on="1"/>
        <pt x="257" y="626" on="1"/>
        <pt x="350" y="626" on="0"/>
        <pt x="350" y="538" on="1"/>
        <pt x="350" y="330" on="1"/>
        <pt x="350" y="242" on="0"/>
        <pt x="257" y="242" on="1"/>
        <pt x="142" y="242" on="1"/>
        <pt x="142" y="0" on="1"/>
        <pt x="52" y="0" on="1"/>
      </contour>
      <contour>
        <pt x="260" y="344" on="1"/>
        <pt x="260" y="524" on="1"/>
        <pt x="260" y="542" on="0"/>
        <pt x="248" y="553" on="0"/>
        <pt x="230" y="553" on="1"/>
        <pt x="142" y="553" on="1"/>
        <pt x="142" y="314" on="1"/>
        <pt x="230" y="314" on="1"/>
        <pt x="248" y="314" on="0"/>
        <pt x="260" y="326" on="0"/>
      </contour>
    </TTGlyph>
    <TTGlyph name="Q" xMin="47" yMin="-91" xMax="360" yMax="626">
      <contour>
        <pt x="141" y="0" on="1"/>
        <pt x="47" y="0" on="0"/>
        <pt x="47" y="88" on="1"/>
        <pt x="47" y="538" on="1"/>
        <pt x="47" y="626" on="0"/>
        <pt x="141" y="626" on="1"/>
        <pt x="252" y="626" on="1"/>
        <pt x="345" y="626" on="0"/>
        <pt x="345" y="538" on="1"/>
        <pt x="345" y="88" on="1"/>
        <pt x="345" y="20" on="0"/>
        <pt x="289" y="4" on="1"/>
        <pt x="360" y="-91" on="1"/>
        <pt x="264" y="-91" on="1"/>
        <pt x="198" y="0" on="1"/>
      </contour>
      <contour>
        <pt x="138" y="524" on="1"/>
        <pt x="138" y="102" on="1"/>
        <pt x="138" y="84" on="0"/>
        <pt x="149" y="73" on="0"/>
        <pt x="167" y="73" on="1"/>
        <pt x="225" y="73" on="1"/>
        <pt x="243" y="73" on="0"/>
        <pt x="255" y="84" on="0"/>
        <pt x="255" y="102" on="1"/>
        <pt x="255" y="524" on="1"/>
        <pt x="255" y="542" on="0"/>
        <pt x="243" y="553" on="0"/>
        <pt x="225" y="553" on="1"/>
        <pt x="167" y="553" on="1"/>
        <pt x="149" y="553" on="0"/>
        <pt x="138" y="542" on="0"/>
      </contour>
    </TTGlyph>
    <TTGlyph name="R" xMin="52" yMin="0" xMax="382" yMax="626">
      <contour>
        <pt x="142" y="253" on="1"/>
        <pt x="142" y="0" on="1"/>
        <pt x="52" y="0" on="1"/>
        <pt x="52" y="626" on="1"/>
        <pt x="257" y="626" on="1"/>
        <pt x="350" y="626" on="0"/>
        <pt x="350" y="538" on="1"/>
        <pt x="350" y="342" on="1"/>
        <pt x="350" y="266" on="0"/>
        <pt x="283" y="255" on="1"/>
        <pt x="382" y="0" on="1"/>
        <pt x="285" y="0" on="1"/>
        <pt x="191" y="253" on="1"/>
      </contour>
      <contour>
        <pt x="142" y="553" on="1"/>
        <pt x="142" y="325" on="1"/>
        <pt x="230" y="325" on="1"/>
        <pt x="248" y="325" on="0"/>
        <pt x="260" y="336" on="0"/>
        <pt x="260" y="354" on="1"/>
        <pt x="260" y="524" on="1"/>
        <pt x="260" y="542" on="0"/>
        <pt x="248" y="553" on="0"/>
        <pt x="230" y="553" on="1"/>
      </contour>
    </TTGlyph>
    <TTGlyph name="Racute" xMin="52" yMin="0" xMax="382" yMax="789">
      <contour>
        <pt x="142" y="253" on="1"/>
        <pt x="142" y="0" on="1"/>
        <pt x="52" y="0" on="1"/>
        <pt x="52" y="626" on="1"/>
        <pt x="257" y="626" on="1"/>
        <pt x="350" y="626" on="0"/>
        <pt x="350" y="538" on="1"/>
        <pt x="350" y="342" on="1"/>
        <pt x="350" y="266" on="0"/>
        <pt x="283" y="255" on="1"/>
        <pt x="382" y="0" on="1"/>
        <pt x="285" y="0" on="1"/>
        <pt x="191" y="253" on="1"/>
      </contour>
      <contour>
        <pt x="142" y="553" on="1"/>
        <pt x="142" y="325" on="1"/>
        <pt x="230" y="325" on="1"/>
        <pt x="248" y="325" on="0"/>
        <pt x="260" y="336" on="0"/>
        <pt x="260" y="354" on="1"/>
        <pt x="260" y="524" on="1"/>
        <pt x="260" y="542" on="0"/>
        <pt x="248" y="553" on="0"/>
        <pt x="230" y="553" on="1"/>
      </contour>
      <contour>
        <pt x="336" y="789" on="1"/>
        <pt x="231" y="657" on="1"/>
        <pt x="154" y="657" on="1"/>
        <pt x="236" y="789" on="1"/>
      </contour>
    </TTGlyph>
    <TTGlyph name="Rcaron" xMin="50" yMin="0" xMax="382" yMax="789">
      <contour>
        <pt x="142" y="253" on="1"/>
        <pt x="142" y="0" on="1"/>
        <pt x="52" y="0" on="1"/>
        <pt x="52" y="626" on="1"/>
        <pt x="257" y="626" on="1"/>
        <pt x="350" y="626" on="0"/>
        <pt x="350" y="538" on="1"/>
        <pt x="350" y="342" on="1"/>
        <pt x="350" y="266" on="0"/>
        <pt x="283" y="255" on="1"/>
        <pt x="382" y="0" on="1"/>
        <pt x="285" y="0" on="1"/>
        <pt x="191" y="253" on="1"/>
      </contour>
      <contour>
        <pt x="142" y="553" on="1"/>
        <pt x="142" y="325" on="1"/>
        <pt x="230" y="325" on="1"/>
        <pt x="248" y="325" on="0"/>
        <pt x="260" y="336" on="0"/>
        <pt x="260" y="354" on="1"/>
        <pt x="260" y="524" on="1"/>
        <pt x="260" y="542" on="0"/>
        <pt x="248" y="553" on="0"/>
        <pt x="230" y="553" on="1"/>
      </contour>
      <contour>
        <pt x="247" y="657" on="1"/>
        <pt x="146" y="657" on="1"/>
        <pt x="50" y="789" on="1"/>
        <pt x="144" y="789" on="1"/>
        <pt x="196" y="708" on="1"/>
        <pt x="249" y="789" on="1"/>
        <pt x="342" y="789" on="1"/>
      </contour>
    </TTGlyph>
    <TTGlyph name="S" xMin="38" yMin="0" xMax="324" yMax="626">
      <contour>
        <pt x="232" y="102" on="1"/>
        <pt x="232" y="255" on="1"/>
        <pt x="232" y="273" on="0"/>
        <pt x="221" y="284" on="0"/>
        <pt x="203" y="284" on="1"/>
        <pt x="129" y="284" on="1"/>
        <pt x="38" y="284" on="0"/>
        <pt x="38" y="373" on="1"/>
        <pt x="38" y="538" on="1"/>
        <pt x="38" y="626" on="0"/>
        <pt x="131" y="626" on="1"/>
        <pt x="229" y="626" on="1"/>
        <pt x="322" y="626" on="0"/>
        <pt x="322" y="538" on="1"/>
        <pt x="322" y="446" on="1"/>
        <pt x="231" y="446" on="1"/>
        <pt x="231" y="524" on="1"/>
        <pt x="231" y="542" on="0"/>
        <pt x="219" y="553" on="0"/>
        <pt x="201" y="553" on="1"/>
        <pt x="159" y="553" on="1"/>
        <pt x="141" y="553" on="0"/>
        <pt x="129" y="542" on="0"/>
        <pt x="129" y="524" on="1"/>
        <pt x="129" y="385" on="1"/>
        <pt x="129" y="367" on="0"/>
        <pt x="141" y="356" on="0"/>
        <pt x="159" y="356" on="1"/>
        <pt x="232" y="356" on="1"/>
        <pt x="324" y="356" on="0"/>
        <pt x="324" y="268" on="1"/>
        <pt x="324" y="88" on="1"/>
        <pt x="324" y="0" on="0"/>
        <pt x="230" y="0" on="1"/>
        <pt x="133" y="0" on="1"/>
        <pt x="40" y="0" on="0"/>
        <pt x="40" y="88" on="1"/>
        <pt x="40" y="180" on="1"/>
        <pt x="131" y="180" on="1"/>
        <pt x="131" y="102" on="1"/>
        <pt x="131" y="84" on="0"/>
        <pt x="143" y="73" on="0"/>
        <pt x="161" y="73" on="1"/>
        <pt x="203" y="73" on="1"/>
        <pt x="221" y="73" on="0"/>
        <pt x="232" y="84" on="0"/>
      </contour>
    </TTGlyph>
    <TTGlyph name="Sacute" xMin="38" yMin="0" xMax="324" yMax="789">
      <contour>
        <pt x="232" y="102" on="1"/>
        <pt x="232" y="255" on="1"/>
        <pt x="232" y="273" on="0"/>
        <pt x="221" y="284" on="0"/>
        <pt x="203" y="284" on="1"/>
        <pt x="129" y="284" on="1"/>
        <pt x="38" y="284" on="0"/>
        <pt x="38" y="373" on="1"/>
        <pt x="38" y="538" on="1"/>
        <pt x="38" y="626" on="0"/>
        <pt x="131" y="626" on="1"/>
        <pt x="229" y="626" on="1"/>
        <pt x="322" y="626" on="0"/>
        <pt x="322" y="538" on="1"/>
        <pt x="322" y="446" on="1"/>
        <pt x="231" y="446" on="1"/>
        <pt x="231" y="524" on="1"/>
        <pt x="231" y="542" on="0"/>
        <pt x="219" y="553" on="0"/>
        <pt x="201" y="553" on="1"/>
        <pt x="159" y="553" on="1"/>
        <pt x="141" y="553" on="0"/>
        <pt x="129" y="542" on="0"/>
        <pt x="129" y="524" on="1"/>
        <pt x="129" y="385" on="1"/>
        <pt x="129" y="367" on="0"/>
        <pt x="141" y="356" on="0"/>
        <pt x="159" y="356" on="1"/>
        <pt x="232" y="356" on="1"/>
        <pt x="324" y="356" on="0"/>
        <pt x="324" y="268" on="1"/>
        <pt x="324" y="88" on="1"/>
        <pt x="324" y="0" on="0"/>
        <pt x="230" y="0" on="1"/>
        <pt x="133" y="0" on="1"/>
        <pt x="40" y="0" on="0"/>
        <pt x="40" y="88" on="1"/>
        <pt x="40" y="180" on="1"/>
        <pt x="131" y="180" on="1"/>
        <pt x="131" y="102" on="1"/>
        <pt x="131" y="84" on="0"/>
        <pt x="143" y="73" on="0"/>
        <pt x="161" y="73" on="1"/>
        <pt x="203" y="73" on="1"/>
        <pt x="221" y="73" on="0"/>
        <pt x="232" y="84" on="0"/>
      </contour>
      <contour>
        <pt x="142" y="657" on="1"/>
        <pt x="224" y="789" on="1"/>
        <pt x="324" y="789" on="1"/>
        <pt x="219" y="657" on="1"/>
      </contour>
    </TTGlyph>
    <TTGlyph name="Scaron" xMin="35" yMin="0" xMax="327" yMax="789">
      <contour>
        <pt x="232" y="102" on="1"/>
        <pt x="232" y="255" on="1"/>
        <pt x="232" y="273" on="0"/>
        <pt x="221" y="284" on="0"/>
        <pt x="203" y="284" on="1"/>
        <pt x="129" y="284" on="1"/>
        <pt x="38" y="284" on="0"/>
        <pt x="38" y="373" on="1"/>
        <pt x="38" y="538" on="1"/>
        <pt x="38" y="626" on="0"/>
        <pt x="131" y="626" on="1"/>
        <pt x="229" y="626" on="1"/>
        <pt x="322" y="626" on="0"/>
        <pt x="322" y="538" on="1"/>
        <pt x="322" y="446" on="1"/>
        <pt x="231" y="446" on="1"/>
        <pt x="231" y="524" on="1"/>
        <pt x="231" y="542" on="0"/>
        <pt x="219" y="553" on="0"/>
        <pt x="201" y="553" on="1"/>
        <pt x="159" y="553" on="1"/>
        <pt x="141" y="553" on="0"/>
        <pt x="129" y="542" on="0"/>
        <pt x="129" y="524" on="1"/>
        <pt x="129" y="385" on="1"/>
        <pt x="129" y="367" on="0"/>
        <pt x="141" y="356" on="0"/>
        <pt x="159" y="356" on="1"/>
        <pt x="232" y="356" on="1"/>
        <pt x="324" y="356" on="0"/>
        <pt x="324" y="268" on="1"/>
        <pt x="324" y="88" on="1"/>
        <pt x="324" y="0" on="0"/>
        <pt x="230" y="0" on="1"/>
        <pt x="133" y="0" on="1"/>
        <pt x="40" y="0" on="0"/>
        <pt x="40" y="88" on="1"/>
        <pt x="40" y="180" on="1"/>
        <pt x="131" y="180" on="1"/>
        <pt x="131" y="102" on="1"/>
        <pt x="131" y="84" on="0"/>
        <pt x="143" y="73" on="0"/>
        <pt x="161" y="73" on="1"/>
        <pt x="203" y="73" on="1"/>
        <pt x="221" y="73" on="0"/>
        <pt x="232" y="84" on="0"/>
      </contour>
      <contour>
        <pt x="131" y="657" on="1"/>
        <pt x="35" y="789" on="1"/>
        <pt x="129" y="789" on="1"/>
        <pt x="181" y="708" on="1"/>
        <pt x="234" y="789" on="1"/>
        <pt x="327" y="789" on="1"/>
        <pt x="232" y="657" on="1"/>
      </contour>
    </TTGlyph>
    <TTGlyph name="T" xMin="5" yMin="0" xMax="305" yMax="626">
      <contour>
        <pt x="305" y="626" on="1"/>
        <pt x="305" y="553" on="1"/>
        <pt x="200" y="553" on="1"/>
        <pt x="200" y="0" on="1"/>
        <pt x="110" y="0" on="1"/>
        <pt x="110" y="553" on="1"/>
        <pt x="5" y="553" on="1"/>
        <pt x="5" y="626" on="1"/>
      </contour>
    </TTGlyph>
    <TTGlyph name="Tcaron" xMin="5" yMin="0" xMax="305" yMax="789">
      <contour>
        <pt x="305" y="626" on="1"/>
        <pt x="305" y="553" on="1"/>
        <pt x="200" y="553" on="1"/>
        <pt x="200" y="0" on="1"/>
        <pt x="110" y="0" on="1"/>
        <pt x="110" y="553" on="1"/>
        <pt x="5" y="553" on="1"/>
        <pt x="5" y="626" on="1"/>
      </contour>
      <contour>
        <pt x="206" y="657" on="1"/>
        <pt x="105" y="657" on="1"/>
        <pt x="9" y="789" on="1"/>
        <pt x="103" y="789" on="1"/>
        <pt x="155" y="708" on="1"/>
        <pt x="208" y="789" on="1"/>
        <pt x="301" y="789" on="1"/>
      </contour>
    </TTGlyph>
    <TTGlyph name="Thorn" xMin="53" yMin="0" xMax="349" yMax="626">
      <contour>
        <pt x="143" y="503" on="1"/>
        <pt x="256" y="503" on="1"/>
        <pt x="349" y="503" on="0"/>
        <pt x="349" y="415" on="1"/>
        <pt x="349" y="211" on="1"/>
        <pt x="349" y="123" on="0"/>
        <pt x="256" y="123" on="1"/>
        <pt x="143" y="123" on="1"/>
        <pt x="143" y="0" on="1"/>
        <pt x="53" y="0" on="1"/>
        <pt x="53" y="626" on="1"/>
        <pt x="143" y="626" on="1"/>
      </contour>
      <contour>
        <pt x="259" y="224" on="1"/>
        <pt x="259" y="402" on="1"/>
        <pt x="259" y="420" on="0"/>
        <pt x="247" y="431" on="0"/>
        <pt x="229" y="431" on="1"/>
        <pt x="143" y="431" on="1"/>
        <pt x="143" y="195" on="1"/>
        <pt x="229" y="195" on="1"/>
        <pt x="247" y="195" on="0"/>
        <pt x="259" y="206" on="0"/>
      </contour>
    </TTGlyph>
    <TTGlyph name="U" xMin="49" yMin="0" xMax="348" yMax="626">
      <contour>
        <pt x="257" y="626" on="1"/>
        <pt x="348" y="626" on="1"/>
        <pt x="348" y="88" on="1"/>
        <pt x="348" y="0" on="0"/>
        <pt x="254" y="0" on="1"/>
        <pt x="143" y="0" on="1"/>
        <pt x="49" y="0" on="0"/>
        <pt x="49" y="88" on="1"/>
        <pt x="49" y="626" on="1"/>
        <pt x="140" y="626" on="1"/>
        <pt x="140" y="102" on="1"/>
        <pt x="140" y="84" on="0"/>
        <pt x="152" y="73" on="0"/>
        <pt x="170" y="73" on="1"/>
        <pt x="227" y="73" on="1"/>
        <pt x="246" y="73" on="0"/>
        <pt x="257" y="84" on="0"/>
        <pt x="257" y="102" on="1"/>
      </contour>
    </TTGlyph>
    <TTGlyph name="Uacute" xMin="49" yMin="0" xMax="348" yMax="789">
      <contour>
        <pt x="257" y="626" on="1"/>
        <pt x="348" y="626" on="1"/>
        <pt x="348" y="88" on="1"/>
        <pt x="348" y="0" on="0"/>
        <pt x="254" y="0" on="1"/>
        <pt x="143" y="0" on="1"/>
        <pt x="49" y="0" on="0"/>
        <pt x="49" y="88" on="1"/>
        <pt x="49" y="626" on="1"/>
        <pt x="140" y="626" on="1"/>
        <pt x="140" y="102" on="1"/>
        <pt x="140" y="84" on="0"/>
        <pt x="152" y="73" on="0"/>
        <pt x="170" y="73" on="1"/>
        <pt x="227" y="73" on="1"/>
        <pt x="246" y="73" on="0"/>
        <pt x="257" y="84" on="0"/>
        <pt x="257" y="102" on="1"/>
      </contour>
      <contour>
        <pt x="340" y="789" on="1"/>
        <pt x="235" y="657" on="1"/>
        <pt x="158" y="657" on="1"/>
        <pt x="240" y="789" on="1"/>
      </contour>
    </TTGlyph>
    <TTGlyph name="Ucircumflex" xMin="49" yMin="0" xMax="348" yMax="789">
      <contour>
        <pt x="257" y="626" on="1"/>
        <pt x="348" y="626" on="1"/>
        <pt x="348" y="88" on="1"/>
        <pt x="348" y="0" on="0"/>
        <pt x="254" y="0" on="1"/>
        <pt x="143" y="0" on="1"/>
        <pt x="49" y="0" on="0"/>
        <pt x="49" y="88" on="1"/>
        <pt x="49" y="626" on="1"/>
        <pt x="140" y="626" on="1"/>
        <pt x="140" y="102" on="1"/>
        <pt x="140" y="84" on="0"/>
        <pt x="152" y="73" on="0"/>
        <pt x="170" y="73" on="1"/>
        <pt x="227" y="73" on="1"/>
        <pt x="246" y="73" on="0"/>
        <pt x="257" y="84" on="0"/>
        <pt x="257" y="102" on="1"/>
      </contour>
      <contour>
        <pt x="198" y="738" on="1"/>
        <pt x="146" y="657" on="1"/>
        <pt x="52" y="657" on="1"/>
        <pt x="148" y="789" on="1"/>
        <pt x="249" y="789" on="1"/>
        <pt x="344" y="657" on="1"/>
        <pt x="251" y="657" on="1"/>
      </contour>
    </TTGlyph>
    <TTGlyph name="Udieresis" xMin="49" yMin="0" xMax="348" yMax="751">
      <contour>
        <pt x="257" y="626" on="1"/>
        <pt x="348" y="626" on="1"/>
        <pt x="348" y="88" on="1"/>
        <pt x="348" y="0" on="0"/>
        <pt x="254" y="0" on="1"/>
        <pt x="143" y="0" on="1"/>
        <pt x="49" y="0" on="0"/>
        <pt x="49" y="88" on="1"/>
        <pt x="49" y="626" on="1"/>
        <pt x="140" y="626" on="1"/>
        <pt x="140" y="102" on="1"/>
        <pt x="140" y="84" on="0"/>
        <pt x="152" y="73" on="0"/>
        <pt x="170" y="73" on="1"/>
        <pt x="227" y="73" on="1"/>
        <pt x="246" y="73" on="0"/>
        <pt x="257" y="84" on="0"/>
        <pt x="257" y="102" on="1"/>
      </contour>
      <contour>
        <pt x="155" y="751" on="1"/>
        <pt x="155" y="657" on="1"/>
        <pt x="53" y="657" on="1"/>
        <pt x="53" y="751" on="1"/>
      </contour>
      <contour>
        <pt x="344" y="751" on="1"/>
        <pt x="344" y="657" on="1"/>
        <pt x="243" y="657" on="1"/>
        <pt x="243" y="751" on="1"/>
      </contour>
    </TTGlyph>
    <TTGlyph name="Ugrave" xMin="49" yMin="0" xMax="348" yMax="789">
      <contour>
        <pt x="257" y="626" on="1"/>
        <pt x="348" y="626" on="1"/>
        <pt x="348" y="88" on="1"/>
        <pt x="348" y="0" on="0"/>
        <pt x="254" y="0" on="1"/>
        <pt x="143" y="0" on="1"/>
        <pt x="49" y="0" on="0"/>
        <pt x="49" y="88" on="1"/>
        <pt x="49" y="626" on="1"/>
        <pt x="140" y="626" on="1"/>
        <pt x="140" y="102" on="1"/>
        <pt x="140" y="84" on="0"/>
        <pt x="152" y="73" on="0"/>
        <pt x="170" y="73" on="1"/>
        <pt x="227" y="73" on="1"/>
        <pt x="246" y="73" on="0"/>
        <pt x="257" y="84" on="0"/>
        <pt x="257" y="102" on="1"/>
      </contour>
      <contour>
        <pt x="237" y="657" on="1"/>
        <pt x="160" y="657" on="1"/>
        <pt x="55" y="789" on="1"/>
        <pt x="155" y="789" on="1"/>
      </contour>
    </TTGlyph>
    <TTGlyph name="Uhungarumlaut" xMin="49" yMin="0" xMax="392" yMax="789">
      <contour>
        <pt x="257" y="102" on="1"/>
        <pt x="257" y="626" on="1"/>
        <pt x="348" y="626" on="1"/>
        <pt x="348" y="88" on="1"/>
        <pt x="348" y="0" on="0"/>
        <pt x="254" y="0" on="1"/>
        <pt x="143" y="0" on="1"/>
        <pt x="49" y="0" on="0"/>
        <pt x="49" y="88" on="1"/>
        <pt x="49" y="626" on="1"/>
        <pt x="140" y="626" on="1"/>
        <pt x="140" y="102" on="1"/>
        <pt x="140" y="84" on="0"/>
        <pt x="152" y="73" on="0"/>
        <pt x="170" y="73" on="1"/>
        <pt x="227" y="73" on="1"/>
        <pt x="246" y="73" on="0"/>
        <pt x="257" y="84" on="0"/>
      </contour>
      <contour>
        <pt x="273" y="789" on="1"/>
        <pt x="167" y="657" on="1"/>
        <pt x="101" y="657" on="1"/>
        <pt x="183" y="789" on="1"/>
      </contour>
      <contour>
        <pt x="286" y="657" on="1"/>
        <pt x="220" y="657" on="1"/>
        <pt x="302" y="789" on="1"/>
        <pt x="392" y="789" on="1"/>
      </contour>
    </TTGlyph>
    <TTGlyph name="Umacron" xMin="49" yMin="0" xMax="348" yMax="726">
      <contour>
        <pt x="257" y="626" on="1"/>
        <pt x="348" y="626" on="1"/>
        <pt x="348" y="88" on="1"/>
        <pt x="348" y="0" on="0"/>
        <pt x="254" y="0" on="1"/>
        <pt x="143" y="0" on="1"/>
        <pt x="49" y="0" on="0"/>
        <pt x="49" y="88" on="1"/>
        <pt x="49" y="626" on="1"/>
        <pt x="140" y="626" on="1"/>
        <pt x="140" y="102" on="1"/>
        <pt x="140" y="84" on="0"/>
        <pt x="152" y="73" on="0"/>
        <pt x="170" y="73" on="1"/>
        <pt x="227" y="73" on="1"/>
        <pt x="246" y="73" on="0"/>
        <pt x="257" y="84" on="0"/>
        <pt x="257" y="102" on="1"/>
      </contour>
      <contour>
        <pt x="333" y="726" on="1"/>
        <pt x="333" y="658" on="1"/>
        <pt x="65" y="658" on="1"/>
        <pt x="65" y="726" on="1"/>
      </contour>
    </TTGlyph>
    <TTGlyph name="Uogonek" xMin="49" yMin="-225" xMax="348" yMax="626">
      <contour>
        <pt x="257" y="626" on="1"/>
        <pt x="348" y="626" on="1"/>
        <pt x="348" y="88" on="1"/>
        <pt x="348" y="0" on="0"/>
        <pt x="254" y="0" on="1"/>
        <pt x="242" y="0" on="1"/>
        <pt x="242" y="-86" on="1"/>
        <pt x="179" y="-86" on="1"/>
        <pt x="161" y="-86" on="0"/>
        <pt x="150" y="-96" on="0"/>
        <pt x="150" y="-113" on="1"/>
        <pt x="150" y="-135" on="1"/>
        <pt x="150" y="-152" on="0"/>
        <pt x="161" y="-162" on="0"/>
        <pt x="179" y="-162" on="1"/>
        <pt x="260" y="-162" on="1"/>
        <pt x="260" y="-225" on="1"/>
        <pt x="163" y="-225" on="1"/>
        <pt x="77" y="-225" on="0"/>
        <pt x="77" y="-141" on="1"/>
        <pt x="77" y="-108" on="1"/>
        <pt x="77" y="-23" on="0"/>
        <pt x="163" y="-23" on="1"/>
        <pt x="171" y="-23" on="1"/>
        <pt x="171" y="0" on="1"/>
        <pt x="143" y="0" on="1"/>
        <pt x="49" y="0" on="0"/>
        <pt x="49" y="88" on="1"/>
        <pt x="49" y="626" on="1"/>
        <pt x="140" y="626" on="1"/>
        <pt x="140" y="102" on="1"/>
        <pt x="140" y="84" on="0"/>
        <pt x="152" y="73" on="0"/>
        <pt x="170" y="73" on="1"/>
        <pt x="227" y="73" on="1"/>
        <pt x="246" y="73" on="0"/>
        <pt x="257" y="84" on="0"/>
        <pt x="257" y="102" on="1"/>
      </contour>
    </TTGlyph>
    <TTGlyph name="Uring" xMin="49" yMin="0" xMax="348" yMax="815">
      <contour>
        <pt x="257" y="626" on="1"/>
        <pt x="348" y="626" on="1"/>
        <pt x="348" y="88" on="1"/>
        <pt x="348" y="0" on="0"/>
        <pt x="254" y="0" on="1"/>
        <pt x="143" y="0" on="1"/>
        <pt x="49" y="0" on="0"/>
        <pt x="49" y="88" on="1"/>
        <pt x="49" y="626" on="1"/>
        <pt x="140" y="626" on="1"/>
        <pt x="140" y="102" on="1"/>
        <pt x="140" y="84" on="0"/>
        <pt x="152" y="73" on="0"/>
        <pt x="170" y="73" on="1"/>
        <pt x="227" y="73" on="1"/>
        <pt x="246" y="73" on="0"/>
        <pt x="257" y="84" on="0"/>
        <pt x="257" y="102" on="1"/>
      </contour>
      <contour>
        <pt x="230" y="658" on="1"/>
        <pt x="165" y="658" on="1"/>
        <pt x="92" y="658" on="0"/>
        <pt x="92" y="728" on="1"/>
        <pt x="92" y="745" on="1"/>
        <pt x="92" y="815" on="0"/>
        <pt x="165" y="815" on="1"/>
        <pt x="230" y="815" on="1"/>
        <pt x="303" y="815" on="0"/>
        <pt x="303" y="745" on="1"/>
        <pt x="303" y="728" on="1"/>
        <pt x="303" y="658" on="0"/>
      </contour>
      <contour>
        <pt x="155" y="740" on="1"/>
        <pt x="155" y="733" on="1"/>
        <pt x="155" y="718" on="0"/>
        <pt x="164" y="708" on="0"/>
        <pt x="181" y="708" on="1"/>
        <pt x="214" y="708" on="1"/>
        <pt x="231" y="708" on="0"/>
        <pt x="240" y="718" on="0"/>
        <pt x="240" y="733" on="1"/>
        <pt x="240" y="740" on="1"/>
        <pt x="240" y="755" on="0"/>
        <pt x="231" y="765" on="0"/>
        <pt x="214" y="765" on="1"/>
        <pt x="181" y="765" on="1"/>
        <pt x="164" y="765" on="0"/>
        <pt x="155" y="755" on="0"/>
      </contour>
    </TTGlyph>
    <TTGlyph name="V" xMin="5" yMin="0" xMax="359" yMax="626">
      <contour>
        <pt x="266" y="626" on="1"/>
        <pt x="359" y="626" on="1"/>
        <pt x="246" y="0" on="1"/>
        <pt x="118" y="0" on="1"/>
        <pt x="5" y="626" on="1"/>
        <pt x="98" y="626" on="1"/>
        <pt x="181" y="83" on="1"/>
      </contour>
    </TTGlyph>
    <TTGlyph name="W" xMin="10" yMin="0" xMax="599" yMax="626">
      <contour>
        <pt x="508" y="626" on="1"/>
        <pt x="599" y="626" on="1"/>
        <pt x="499" y="0" on="1"/>
        <pt x="374" y="0" on="1"/>
        <pt x="304" y="470" on="1"/>
        <pt x="235" y="0" on="1"/>
        <pt x="110" y="0" on="1"/>
        <pt x="10" y="626" on="1"/>
        <pt x="103" y="626" on="1"/>
        <pt x="173" y="82" on="1"/>
        <pt x="254" y="626" on="1"/>
        <pt x="354" y="626" on="1"/>
        <pt x="435" y="82" on="1"/>
      </contour>
    </TTGlyph>
    <TTGlyph name="X" xMin="4" yMin="0" xMax="369" yMax="626">
      <contour>
        <pt x="235" y="320" on="1"/>
        <pt x="369" y="0" on="1"/>
        <pt x="269" y="0" on="1"/>
        <pt x="185" y="238" on="1"/>
        <pt x="101" y="0" on="1"/>
        <pt x="4" y="0" on="1"/>
        <pt x="136" y="320" on="1"/>
        <pt x="13" y="626" on="1"/>
        <pt x="113" y="626" on="1"/>
        <pt x="185" y="401" on="1"/>
        <pt x="258" y="626" on="1"/>
        <pt x="356" y="626" on="1"/>
      </contour>
    </TTGlyph>
    <TTGlyph name="Y" xMin="4" yMin="0" xMax="357" yMax="626">
      <contour>
        <pt x="229" y="0" on="1"/>
        <pt x="138" y="0" on="1"/>
        <pt x="138" y="198" on="1"/>
        <pt x="4" y="626" on="1"/>
        <pt x="96" y="626" on="1"/>
        <pt x="183" y="281" on="1"/>
        <pt x="265" y="626" on="1"/>
        <pt x="357" y="626" on="1"/>
        <pt x="229" y="198" on="1"/>
      </contour>
    </TTGlyph>
    <TTGlyph name="Yacute" xMin="4" yMin="0" xMax="357" yMax="789">
      <contour>
        <pt x="229" y="0" on="1"/>
        <pt x="138" y="0" on="1"/>
        <pt x="138" y="198" on="1"/>
        <pt x="4" y="626" on="1"/>
        <pt x="96" y="626" on="1"/>
        <pt x="183" y="281" on="1"/>
        <pt x="265" y="626" on="1"/>
        <pt x="357" y="626" on="1"/>
        <pt x="229" y="198" on="1"/>
      </contour>
      <contour>
        <pt x="325" y="789" on="1"/>
        <pt x="220" y="657" on="1"/>
        <pt x="143" y="657" on="1"/>
        <pt x="225" y="789" on="1"/>
      </contour>
    </TTGlyph>
    <TTGlyph name="Ydieresis" xMin="4" yMin="0" xMax="357" yMax="755">
      <contour>
        <pt x="229" y="0" on="1"/>
        <pt x="138" y="0" on="1"/>
        <pt x="138" y="198" on="1"/>
        <pt x="4" y="626" on="1"/>
        <pt x="96" y="626" on="1"/>
        <pt x="183" y="281" on="1"/>
        <pt x="265" y="626" on="1"/>
        <pt x="357" y="626" on="1"/>
        <pt x="229" y="198" on="1"/>
      </contour>
      <contour>
        <pt x="138" y="755" on="1"/>
        <pt x="138" y="661" on="1"/>
        <pt x="36" y="661" on="1"/>
        <pt x="36" y="755" on="1"/>
      </contour>
      <contour>
        <pt x="327" y="755" on="1"/>
        <pt x="327" y="661" on="1"/>
        <pt x="226" y="661" on="1"/>
        <pt x="226" y="755" on="1"/>
      </contour>
    </TTGlyph>
    <TTGlyph name="Z" xMin="8" yMin="0" xMax="305" yMax="627">
      <contour>
        <pt x="305" y="627" on="1"/>
        <pt x="305" y="554" on="1"/>
        <pt x="100" y="73" on="1"/>
        <pt x="300" y="73" on="1"/>
        <pt x="300" y="0" on="1"/>
        <pt x="8" y="0" on="1"/>
        <pt x="8" y="73" on="1"/>
        <pt x="213" y="554" on="1"/>
        <pt x="19" y="554" on="1"/>
        <pt x="19" y="627" on="1"/>
      </contour>
    </TTGlyph>
    <TTGlyph name="Zacute" xMin="8" yMin="0" xMax="309" yMax="789">
      <contour>
        <pt x="19" y="554" on="1"/>
        <pt x="19" y="627" on="1"/>
        <pt x="305" y="627" on="1"/>
        <pt x="305" y="554" on="1"/>
        <pt x="100" y="73" on="1"/>
        <pt x="300" y="73" on="1"/>
        <pt x="300" y="0" on="1"/>
        <pt x="8" y="0" on="1"/>
        <pt x="8" y="73" on="1"/>
        <pt x="213" y="554" on="1"/>
      </contour>
      <contour>
        <pt x="309" y="789" on="1"/>
        <pt x="204" y="657" on="1"/>
        <pt x="127" y="657" on="1"/>
        <pt x="209" y="789" on="1"/>
      </contour>
    </TTGlyph>
    <TTGlyph name="Zcaron" xMin="8" yMin="0" xMax="308" yMax="789">
      <contour>
        <pt x="19" y="554" on="1"/>
        <pt x="19" y="627" on="1"/>
        <pt x="305" y="627" on="1"/>
        <pt x="305" y="554" on="1"/>
        <pt x="100" y="73" on="1"/>
        <pt x="300" y="73" on="1"/>
        <pt x="300" y="0" on="1"/>
        <pt x="8" y="0" on="1"/>
        <pt x="8" y="73" on="1"/>
        <pt x="213" y="554" on="1"/>
      </contour>
      <contour>
        <pt x="213" y="657" on="1"/>
        <pt x="112" y="657" on="1"/>
        <pt x="16" y="789" on="1"/>
        <pt x="110" y="789" on="1"/>
        <pt x="162" y="708" on="1"/>
        <pt x="215" y="789" on="1"/>
        <pt x="308" y="789" on="1"/>
      </contour>
    </TTGlyph>
    <TTGlyph name="Zdotaccent" xMin="8" yMin="0" xMax="305" yMax="753">
      <contour>
        <pt x="305" y="627" on="1"/>
        <pt x="305" y="554" on="1"/>
        <pt x="100" y="73" on="1"/>
        <pt x="300" y="73" on="1"/>
        <pt x="300" y="0" on="1"/>
        <pt x="8" y="0" on="1"/>
        <pt x="8" y="73" on="1"/>
        <pt x="213" y="554" on="1"/>
        <pt x="19" y="554" on="1"/>
        <pt x="19" y="627" on="1"/>
      </contour>
      <contour>
        <pt x="218" y="753" on="1"/>
        <pt x="218" y="657" on="1"/>
        <pt x="111" y="657" on="1"/>
        <pt x="111" y="753" on="1"/>
      </contour>
    </TTGlyph>
    <TTGlyph name="a" xMin="38" yMin="0" xMax="316" yMax="488">
      <contour>
        <pt x="226" y="488" on="1"/>
        <pt x="316" y="488" on="1"/>
        <pt x="316" y="0" on="1"/>
        <pt x="226" y="0" on="1"/>
        <pt x="226" y="39" on="1"/>
        <pt x="213" y="0" on="0"/>
        <pt x="164" y="0" on="1"/>
        <pt x="128" y="0" on="1"/>
        <pt x="38" y="0" on="0"/>
        <pt x="38" y="88" on="1"/>
        <pt x="38" y="399" on="1"/>
        <pt x="38" y="488" on="0"/>
        <pt x="128" y="488" on="1"/>
        <pt x="164" y="488" on="1"/>
        <pt x="213" y="488" on="0"/>
        <pt x="226" y="449" on="1"/>
      </contour>
      <contour>
        <pt x="158" y="73" on="1"/>
        <pt x="193" y="73" on="1"/>
        <pt x="211" y="73" on="0"/>
        <pt x="226" y="89" on="0"/>
        <pt x="226" y="108" on="1"/>
        <pt x="226" y="380" on="1"/>
        <pt x="226" y="399" on="0"/>
        <pt x="211" y="415" on="0"/>
        <pt x="193" y="415" on="1"/>
        <pt x="158" y="415" on="1"/>
        <pt x="140" y="415" on="0"/>
        <pt x="128" y="404" on="0"/>
        <pt x="128" y="386" on="1"/>
        <pt x="128" y="102" on="1"/>
        <pt x="128" y="84" on="0"/>
        <pt x="140" y="73" on="0"/>
      </contour>
    </TTGlyph>
    <TTGlyph name="aacute" xMin="38" yMin="0" xMax="328" yMax="651">
      <contour>
        <pt x="226" y="488" on="1"/>
        <pt x="316" y="488" on="1"/>
        <pt x="316" y="0" on="1"/>
        <pt x="226" y="0" on="1"/>
        <pt x="226" y="39" on="1"/>
        <pt x="213" y="0" on="0"/>
        <pt x="164" y="0" on="1"/>
        <pt x="128" y="0" on="1"/>
        <pt x="38" y="0" on="0"/>
        <pt x="38" y="88" on="1"/>
        <pt x="38" y="399" on="1"/>
        <pt x="38" y="488" on="0"/>
        <pt x="128" y="488" on="1"/>
        <pt x="164" y="488" on="1"/>
        <pt x="213" y="488" on="0"/>
        <pt x="226" y="449" on="1"/>
      </contour>
      <contour>
        <pt x="158" y="73" on="1"/>
        <pt x="193" y="73" on="1"/>
        <pt x="211" y="73" on="0"/>
        <pt x="226" y="89" on="0"/>
        <pt x="226" y="108" on="1"/>
        <pt x="226" y="380" on="1"/>
        <pt x="226" y="399" on="0"/>
        <pt x="211" y="415" on="0"/>
        <pt x="193" y="415" on="1"/>
        <pt x="158" y="415" on="1"/>
        <pt x="140" y="415" on="0"/>
        <pt x="128" y="404" on="0"/>
        <pt x="128" y="386" on="1"/>
        <pt x="128" y="102" on="1"/>
        <pt x="128" y="84" on="0"/>
        <pt x="140" y="73" on="0"/>
      </contour>
      <contour>
        <pt x="328" y="651" on="1"/>
        <pt x="223" y="519" on="1"/>
        <pt x="146" y="519" on="1"/>
        <pt x="228" y="651" on="1"/>
      </contour>
    </TTGlyph>
    <TTGlyph name="abreve" xMin="38" yMin="0" xMax="327" yMax="651">
      <contour>
        <pt x="243" y="651" on="1"/>
        <pt x="327" y="651" on="1"/>
        <pt x="327" y="608" on="1"/>
        <pt x="327" y="519" on="0"/>
        <pt x="233" y="519" on="1"/>
        <pt x="132" y="519" on="1"/>
        <pt x="38" y="519" on="0"/>
        <pt x="38" y="608" on="1"/>
        <pt x="38" y="651" on="1"/>
        <pt x="122" y="651" on="1"/>
        <pt x="122" y="613" on="1"/>
        <pt x="122" y="595" on="0"/>
        <pt x="134" y="584" on="0"/>
        <pt x="152" y="584" on="1"/>
        <pt x="213" y="584" on="1"/>
        <pt x="231" y="584" on="0"/>
        <pt x="243" y="595" on="0"/>
        <pt x="243" y="613" on="1"/>
      </contour>
      <contour>
        <pt x="226" y="488" on="1"/>
        <pt x="316" y="488" on="1"/>
        <pt x="316" y="0" on="1"/>
        <pt x="226" y="0" on="1"/>
        <pt x="226" y="39" on="1"/>
        <pt x="213" y="0" on="0"/>
        <pt x="164" y="0" on="1"/>
        <pt x="128" y="0" on="1"/>
        <pt x="38" y="0" on="0"/>
        <pt x="38" y="88" on="1"/>
        <pt x="38" y="399" on="1"/>
        <pt x="38" y="488" on="0"/>
        <pt x="128" y="488" on="1"/>
        <pt x="164" y="488" on="1"/>
        <pt x="213" y="488" on="0"/>
        <pt x="226" y="449" on="1"/>
      </contour>
      <contour>
        <pt x="158" y="73" on="1"/>
        <pt x="193" y="73" on="1"/>
        <pt x="211" y="73" on="0"/>
        <pt x="226" y="89" on="0"/>
        <pt x="226" y="108" on="1"/>
        <pt x="226" y="380" on="1"/>
        <pt x="226" y="399" on="0"/>
        <pt x="211" y="415" on="0"/>
        <pt x="193" y="415" on="1"/>
        <pt x="158" y="415" on="1"/>
        <pt x="140" y="415" on="0"/>
        <pt x="128" y="404" on="0"/>
        <pt x="128" y="386" on="1"/>
        <pt x="128" y="102" on="1"/>
        <pt x="128" y="84" on="0"/>
        <pt x="140" y="73" on="0"/>
      </contour>
    </TTGlyph>
    <TTGlyph name="acircumflex" xMin="36" yMin="0" xMax="328" yMax="651">
      <contour>
        <pt x="226" y="488" on="1"/>
        <pt x="316" y="488" on="1"/>
        <pt x="316" y="0" on="1"/>
        <pt x="226" y="0" on="1"/>
        <pt x="226" y="39" on="1"/>
        <pt x="213" y="0" on="0"/>
        <pt x="164" y="0" on="1"/>
        <pt x="128" y="0" on="1"/>
        <pt x="38" y="0" on="0"/>
        <pt x="38" y="88" on="1"/>
        <pt x="38" y="399" on="1"/>
        <pt x="38" y="488" on="0"/>
        <pt x="128" y="488" on="1"/>
        <pt x="164" y="488" on="1"/>
        <pt x="213" y="488" on="0"/>
        <pt x="226" y="449" on="1"/>
      </contour>
      <contour>
        <pt x="158" y="73" on="1"/>
        <pt x="193" y="73" on="1"/>
        <pt x="211" y="73" on="0"/>
        <pt x="226" y="89" on="0"/>
        <pt x="226" y="108" on="1"/>
        <pt x="226" y="380" on="1"/>
        <pt x="226" y="399" on="0"/>
        <pt x="211" y="415" on="0"/>
        <pt x="193" y="415" on="1"/>
        <pt x="158" y="415" on="1"/>
        <pt x="140" y="415" on="0"/>
        <pt x="128" y="404" on="0"/>
        <pt x="128" y="386" on="1"/>
        <pt x="128" y="102" on="1"/>
        <pt x="128" y="84" on="0"/>
        <pt x="140" y="73" on="0"/>
      </contour>
      <contour>
        <pt x="182" y="600" on="1"/>
        <pt x="130" y="519" on="1"/>
        <pt x="36" y="519" on="1"/>
        <pt x="132" y="651" on="1"/>
        <pt x="233" y="651" on="1"/>
        <pt x="328" y="519" on="1"/>
        <pt x="235" y="519" on="1"/>
      </contour>
    </TTGlyph>
    <TTGlyph name="acute" xMin="118" yMin="519" xMax="300" yMax="651">
      <contour>
        <pt x="118" y="519" on="1"/>
        <pt x="200" y="651" on="1"/>
        <pt x="300" y="651" on="1"/>
        <pt x="195" y="519" on="1"/>
      </contour>
    </TTGlyph>
    <TTGlyph name="adieresis" xMin="33" yMin="0" xMax="324" yMax="635">
      <contour>
        <pt x="223" y="635" on="1"/>
        <pt x="324" y="635" on="1"/>
        <pt x="324" y="541" on="1"/>
        <pt x="223" y="541" on="1"/>
      </contour>
      <contour>
        <pt x="226" y="488" on="1"/>
        <pt x="316" y="488" on="1"/>
        <pt x="316" y="0" on="1"/>
        <pt x="226" y="0" on="1"/>
        <pt x="226" y="39" on="1"/>
        <pt x="213" y="0" on="0"/>
        <pt x="164" y="0" on="1"/>
        <pt x="128" y="0" on="1"/>
        <pt x="38" y="0" on="0"/>
        <pt x="38" y="88" on="1"/>
        <pt x="38" y="399" on="1"/>
        <pt x="38" y="488" on="0"/>
        <pt x="128" y="488" on="1"/>
        <pt x="164" y="488" on="1"/>
        <pt x="213" y="488" on="0"/>
        <pt x="226" y="449" on="1"/>
      </contour>
      <contour>
        <pt x="158" y="73" on="1"/>
        <pt x="193" y="73" on="1"/>
        <pt x="211" y="73" on="0"/>
        <pt x="226" y="89" on="0"/>
        <pt x="226" y="108" on="1"/>
        <pt x="226" y="380" on="1"/>
        <pt x="226" y="399" on="0"/>
        <pt x="211" y="415" on="0"/>
        <pt x="193" y="415" on="1"/>
        <pt x="158" y="415" on="1"/>
        <pt x="140" y="415" on="0"/>
        <pt x="128" y="404" on="0"/>
        <pt x="128" y="386" on="1"/>
        <pt x="128" y="102" on="1"/>
        <pt x="128" y="84" on="0"/>
        <pt x="140" y="73" on="0"/>
      </contour>
      <contour>
        <pt x="135" y="635" on="1"/>
        <pt x="135" y="541" on="1"/>
        <pt x="33" y="541" on="1"/>
        <pt x="33" y="635" on="1"/>
      </contour>
    </TTGlyph>
    <TTGlyph name="ae" xMin="43" yMin="0" xMax="515" yMax="488">
      <contour>
        <pt x="505" y="215" on="1"/>
        <pt x="320" y="215" on="1"/>
        <pt x="320" y="101" on="1"/>
        <pt x="320" y="83" on="0"/>
        <pt x="331" y="72" on="0"/>
        <pt x="349" y="72" on="1"/>
        <pt x="394" y="72" on="1"/>
        <pt x="412" y="72" on="0"/>
        <pt x="424" y="83" on="0"/>
        <pt x="424" y="101" on="1"/>
        <pt x="424" y="141" on="1"/>
        <pt x="513" y="141" on="1"/>
        <pt x="513" y="88" on="1"/>
        <pt x="513" y="0" on="0"/>
        <pt x="420" y="0" on="1"/>
        <pt x="343" y="0" on="1"/>
        <pt x="317" y="0" on="0"/>
        <pt x="279" y="24" on="0"/>
        <pt x="272" y="42" on="1"/>
        <pt x="266" y="24" on="0"/>
        <pt x="229" y="0" on="0"/>
        <pt x="203" y="0" on="1"/>
        <pt x="133" y="0" on="1"/>
        <pt x="43" y="0" on="0"/>
        <pt x="43" y="88" on="1"/>
        <pt x="43" y="202" on="1"/>
        <pt x="231" y="279" on="1"/>
        <pt x="231" y="385" on="1"/>
        <pt x="228" y="415" on="0"/>
        <pt x="198" y="415" on="1"/>
        <pt x="163" y="415" on="1"/>
        <pt x="145" y="415" on="0"/>
        <pt x="133" y="404" on="0"/>
        <pt x="133" y="386" on="1"/>
        <pt x="133" y="311" on="1"/>
        <pt x="43" y="311" on="1"/>
        <pt x="43" y="399" on="1"/>
        <pt x="43" y="488" on="0"/>
        <pt x="133" y="488" on="1"/>
        <pt x="204" y="488" on="1"/>
        <pt x="229" y="488" on="0"/>
        <pt x="267" y="463" on="0"/>
        <pt x="273" y="446" on="1"/>
        <pt x="279" y="464" on="0"/>
        <pt x="317" y="488" on="0"/>
        <pt x="344" y="488" on="1"/>
        <pt x="422" y="488" on="1"/>
        <pt x="515" y="488" on="0"/>
        <pt x="515" y="399" on="1"/>
        <pt x="515" y="220" on="1"/>
        <pt x="505" y="220" on="1"/>
      </contour>
      <contour>
        <pt x="397" y="416" on="1"/>
        <pt x="349" y="416" on="1"/>
        <pt x="331" y="416" on="0"/>
        <pt x="320" y="405" on="0"/>
        <pt x="320" y="387" on="1"/>
        <pt x="320" y="283" on="1"/>
        <pt x="426" y="283" on="1"/>
        <pt x="426" y="387" on="1"/>
        <pt x="426" y="405" on="0"/>
        <pt x="415" y="416" on="0"/>
      </contour>
      <contour>
        <pt x="163" y="73" on="1"/>
        <pt x="198" y="73" on="1"/>
        <pt x="214" y="73" on="0"/>
        <pt x="230" y="86" on="0"/>
        <pt x="231" y="103" on="1"/>
        <pt x="231" y="207" on="1"/>
        <pt x="133" y="168" on="1"/>
        <pt x="133" y="102" on="1"/>
        <pt x="133" y="84" on="0"/>
        <pt x="145" y="73" on="0"/>
      </contour>
    </TTGlyph>
    <TTGlyph name="agrave" xMin="38" yMin="0" xMax="316" yMax="651">
      <contour>
        <pt x="226" y="488" on="1"/>
        <pt x="316" y="488" on="1"/>
        <pt x="316" y="0" on="1"/>
        <pt x="226" y="0" on="1"/>
        <pt x="226" y="39" on="1"/>
        <pt x="213" y="0" on="0"/>
        <pt x="164" y="0" on="1"/>
        <pt x="128" y="0" on="1"/>
        <pt x="38" y="0" on="0"/>
        <pt x="38" y="88" on="1"/>
        <pt x="38" y="399" on="1"/>
        <pt x="38" y="488" on="0"/>
        <pt x="128" y="488" on="1"/>
        <pt x="164" y="488" on="1"/>
        <pt x="213" y="488" on="0"/>
        <pt x="226" y="449" on="1"/>
      </contour>
      <contour>
        <pt x="158" y="73" on="1"/>
        <pt x="193" y="73" on="1"/>
        <pt x="211" y="73" on="0"/>
        <pt x="226" y="89" on="0"/>
        <pt x="226" y="108" on="1"/>
        <pt x="226" y="380" on="1"/>
        <pt x="226" y="399" on="0"/>
        <pt x="211" y="415" on="0"/>
        <pt x="193" y="415" on="1"/>
        <pt x="158" y="415" on="1"/>
        <pt x="140" y="415" on="0"/>
        <pt x="128" y="404" on="0"/>
        <pt x="128" y="386" on="1"/>
        <pt x="128" y="102" on="1"/>
        <pt x="128" y="84" on="0"/>
        <pt x="140" y="73" on="0"/>
      </contour>
      <contour>
        <pt x="245" y="519" on="1"/>
        <pt x="168" y="519" on="1"/>
        <pt x="63" y="651" on="1"/>
        <pt x="163" y="651" on="1"/>
      </contour>
    </TTGlyph>
    <TTGlyph name="amacron" xMin="38" yMin="0" xMax="316" yMax="619">
      <contour>
        <pt x="226" y="488" on="1"/>
        <pt x="316" y="488" on="1"/>
        <pt x="316" y="0" on="1"/>
        <pt x="226" y="0" on="1"/>
        <pt x="226" y="39" on="1"/>
        <pt x="213" y="0" on="0"/>
        <pt x="164" y="0" on="1"/>
        <pt x="128" y="0" on="1"/>
        <pt x="38" y="0" on="0"/>
        <pt x="38" y="88" on="1"/>
        <pt x="38" y="399" on="1"/>
        <pt x="38" y="488" on="0"/>
        <pt x="128" y="488" on="1"/>
        <pt x="164" y="488" on="1"/>
        <pt x="213" y="488" on="0"/>
        <pt x="226" y="449" on="1"/>
      </contour>
      <contour>
        <pt x="158" y="73" on="1"/>
        <pt x="193" y="73" on="1"/>
        <pt x="211" y="73" on="0"/>
        <pt x="226" y="89" on="0"/>
        <pt x="226" y="108" on="1"/>
        <pt x="226" y="380" on="1"/>
        <pt x="226" y="399" on="0"/>
        <pt x="211" y="415" on="0"/>
        <pt x="193" y="415" on="1"/>
        <pt x="158" y="415" on="1"/>
        <pt x="140" y="415" on="0"/>
        <pt x="128" y="404" on="0"/>
        <pt x="128" y="386" on="1"/>
        <pt x="128" y="102" on="1"/>
        <pt x="128" y="84" on="0"/>
        <pt x="140" y="73" on="0"/>
      </contour>
      <contour>
        <pt x="310" y="619" on="1"/>
        <pt x="310" y="551" on="1"/>
        <pt x="42" y="551" on="1"/>
        <pt x="42" y="619" on="1"/>
      </contour>
    </TTGlyph>
    <TTGlyph name="ampersand" xMin="38" yMin="-35" xMax="514" yMax="626">
      <contour>
        <pt x="339" y="0" on="1"/>
        <pt x="131" y="0" on="1"/>
        <pt x="38" y="0" on="0"/>
        <pt x="38" y="88" on="1"/>
        <pt x="38" y="192" on="1"/>
        <pt x="38" y="225" on="0"/>
        <pt x="64" y="266" on="0"/>
        <pt x="99" y="288" on="1"/>
        <pt x="129" y="310" on="1"/>
        <pt x="105" y="340" on="0"/>
        <pt x="83" y="370" on="0"/>
        <pt x="61" y="420" on="0"/>
        <pt x="61" y="442" on="1"/>
        <pt x="61" y="538" on="1"/>
        <pt x="61" y="626" on="0"/>
        <pt x="155" y="626" on="1"/>
        <pt x="252" y="626" on="1"/>
        <pt x="344" y="626" on="0"/>
        <pt x="344" y="538" on="1"/>
        <pt x="344" y="445" on="1"/>
        <pt x="344" y="394" on="0"/>
        <pt x="308" y="335" on="0"/>
        <pt x="268" y="309" on="1"/>
        <pt x="245" y="294" on="1"/>
        <pt x="360" y="153" on="1"/>
        <pt x="360" y="230" on="1"/>
        <pt x="433" y="230" on="1"/>
        <pt x="433" y="88" on="1"/>
        <pt x="433" y="80" on="0"/>
        <pt x="431" y="66" on="1"/>
        <pt x="514" y="-35" on="1"/>
        <pt x="418" y="-35" on="1"/>
        <pt x="383" y="7" on="1"/>
        <pt x="366" y="0" on="0"/>
      </contour>
      <contour>
        <pt x="151" y="527" on="1"/>
        <pt x="151" y="436" on="1"/>
        <pt x="151" y="405" on="0"/>
        <pt x="193" y="356" on="1"/>
        <pt x="199" y="361" on="1"/>
        <pt x="231" y="382" on="0"/>
        <pt x="256" y="416" on="0"/>
        <pt x="256" y="445" on="1"/>
        <pt x="256" y="527" on="1"/>
        <pt x="256" y="545" on="0"/>
        <pt x="244" y="556" on="0"/>
        <pt x="226" y="556" on="1"/>
        <pt x="180" y="556" on="1"/>
        <pt x="162" y="556" on="0"/>
        <pt x="151" y="545" on="0"/>
      </contour>
      <contour>
        <pt x="156" y="71" on="1"/>
        <pt x="329" y="71" on="1"/>
        <pt x="180" y="250" on="1"/>
        <pt x="156" y="234" on="1"/>
        <pt x="139" y="223" on="0"/>
        <pt x="126" y="200" on="0"/>
        <pt x="126" y="177" on="1"/>
        <pt x="126" y="100" on="1"/>
        <pt x="126" y="82" on="0"/>
        <pt x="138" y="71" on="0"/>
      </contour>
    </TTGlyph>
    <TTGlyph name="aogonek" xMin="38" yMin="-225" xMax="334" yMax="488">
      <contour>
        <pt x="253" y="-162" on="1"/>
        <pt x="334" y="-162" on="1"/>
        <pt x="334" y="-225" on="1"/>
        <pt x="237" y="-225" on="1"/>
        <pt x="151" y="-225" on="0"/>
        <pt x="151" y="-141" on="1"/>
        <pt x="151" y="-108" on="1"/>
        <pt x="151" y="-23" on="0"/>
        <pt x="237" y="-23" on="1"/>
        <pt x="245" y="-23" on="1"/>
        <pt x="245" y="0" on="1"/>
        <pt x="226" y="0" on="1"/>
        <pt x="226" y="39" on="1"/>
        <pt x="213" y="0" on="0"/>
        <pt x="164" y="0" on="1"/>
        <pt x="128" y="0" on="1"/>
        <pt x="38" y="0" on="0"/>
        <pt x="38" y="88" on="1"/>
        <pt x="38" y="399" on="1"/>
        <pt x="38" y="488" on="0"/>
        <pt x="128" y="488" on="1"/>
        <pt x="164" y="488" on="1"/>
        <pt x="213" y="488" on="0"/>
        <pt x="226" y="449" on="1"/>
        <pt x="226" y="488" on="1"/>
        <pt x="316" y="488" on="1"/>
        <pt x="316" y="-86" on="1"/>
        <pt x="253" y="-86" on="1"/>
        <pt x="235" y="-86" on="0"/>
        <pt x="224" y="-96" on="0"/>
        <pt x="224" y="-113" on="1"/>
        <pt x="224" y="-135" on="1"/>
        <pt x="224" y="-152" on="0"/>
        <pt x="235" y="-162" on="0"/>
      </contour>
      <contour>
        <pt x="158" y="73" on="1"/>
        <pt x="193" y="73" on="1"/>
        <pt x="211" y="73" on="0"/>
        <pt x="226" y="89" on="0"/>
        <pt x="226" y="108" on="1"/>
        <pt x="226" y="380" on="1"/>
        <pt x="226" y="399" on="0"/>
        <pt x="211" y="415" on="0"/>
        <pt x="193" y="415" on="1"/>
        <pt x="158" y="415" on="1"/>
        <pt x="140" y="415" on="0"/>
        <pt x="128" y="404" on="0"/>
        <pt x="128" y="386" on="1"/>
        <pt x="128" y="102" on="1"/>
        <pt x="128" y="84" on="0"/>
        <pt x="140" y="73" on="0"/>
      </contour>
    </TTGlyph>
    <TTGlyph name="approxequal" xMin="46" yMin="200" xMax="446" yMax="518">
      <contour>
        <pt x="326" y="200" on="1"/>
        <pt x="296" y="200" on="0"/>
        <pt x="247" y="224" on="0"/>
        <pt x="233" y="238" on="1"/>
        <pt x="196" y="277" on="0"/>
        <pt x="158" y="277" on="1"/>
        <pt x="129" y="277" on="0"/>
        <pt x="129" y="243" on="1"/>
        <pt x="129" y="201" on="1"/>
        <pt x="46" y="201" on="1"/>
        <pt x="46" y="262" on="1"/>
        <pt x="46" y="343" on="0"/>
        <pt x="130" y="343" on="1"/>
        <pt x="167" y="343" on="1"/>
        <pt x="202" y="343" on="0"/>
        <pt x="256" y="304" on="0"/>
        <pt x="306" y="266" on="0"/>
        <pt x="352" y="266" on="0"/>
        <pt x="362" y="281" on="0"/>
        <pt x="362" y="300" on="1"/>
        <pt x="362" y="342" on="1"/>
        <pt x="446" y="342" on="1"/>
        <pt x="446" y="281" on="1"/>
        <pt x="446" y="200" on="0"/>
        <pt x="361" y="200" on="1"/>
      </contour>
      <contour>
        <pt x="326" y="375" on="1"/>
        <pt x="296" y="375" on="0"/>
        <pt x="247" y="399" on="0"/>
        <pt x="233" y="414" on="1"/>
        <pt x="196" y="452" on="0"/>
        <pt x="158" y="452" on="1"/>
        <pt x="141" y="452" on="0"/>
        <pt x="129" y="436" on="0"/>
        <pt x="129" y="418" on="1"/>
        <pt x="129" y="376" on="1"/>
        <pt x="46" y="376" on="1"/>
        <pt x="46" y="437" on="1"/>
        <pt x="46" y="518" on="0"/>
        <pt x="130" y="518" on="1"/>
        <pt x="167" y="518" on="1"/>
        <pt x="217" y="518" on="0"/>
        <pt x="294" y="441" on="0"/>
        <pt x="335" y="441" on="1"/>
        <pt x="352" y="441" on="0"/>
        <pt x="362" y="457" on="0"/>
        <pt x="362" y="476" on="1"/>
        <pt x="362" y="517" on="1"/>
        <pt x="446" y="517" on="1"/>
        <pt x="446" y="456" on="1"/>
        <pt x="446" y="375" on="0"/>
        <pt x="361" y="375" on="1"/>
      </contour>
    </TTGlyph>
    <TTGlyph name="aring" xMin="38" yMin="0" xMax="316" yMax="685">
      <contour>
        <pt x="226" y="488" on="1"/>
        <pt x="316" y="488" on="1"/>
        <pt x="316" y="0" on="1"/>
        <pt x="226" y="0" on="1"/>
        <pt x="226" y="39" on="1"/>
        <pt x="213" y="0" on="0"/>
        <pt x="164" y="0" on="1"/>
        <pt x="128" y="0" on="1"/>
        <pt x="38" y="0" on="0"/>
        <pt x="38" y="88" on="1"/>
        <pt x="38" y="399" on="1"/>
        <pt x="38" y="488" on="0"/>
        <pt x="128" y="488" on="1"/>
        <pt x="164" y="488" on="1"/>
        <pt x="213" y="488" on="0"/>
        <pt x="226" y="449" on="1"/>
      </contour>
      <contour>
        <pt x="158" y="73" on="1"/>
        <pt x="193" y="73" on="1"/>
        <pt x="211" y="73" on="0"/>
        <pt x="226" y="89" on="0"/>
        <pt x="226" y="108" on="1"/>
        <pt x="226" y="380" on="1"/>
        <pt x="226" y="399" on="0"/>
        <pt x="211" y="415" on="0"/>
        <pt x="193" y="415" on="1"/>
        <pt x="158" y="415" on="1"/>
        <pt x="140" y="415" on="0"/>
        <pt x="128" y="404" on="0"/>
        <pt x="128" y="386" on="1"/>
        <pt x="128" y="102" on="1"/>
        <pt x="128" y="84" on="0"/>
        <pt x="140" y="73" on="0"/>
      </contour>
      <contour>
        <pt x="216" y="528" on="1"/>
        <pt x="151" y="528" on="1"/>
        <pt x="78" y="528" on="0"/>
        <pt x="78" y="598" on="1"/>
        <pt x="78" y="615" on="1"/>
        <pt x="78" y="685" on="0"/>
        <pt x="151" y="685" on="1"/>
        <pt x="216" y="685" on="1"/>
        <pt x="289" y="685" on="0"/>
        <pt x="289" y="615" on="1"/>
        <pt x="289" y="598" on="1"/>
        <pt x="289" y="528" on="0"/>
      </contour>
      <contour>
        <pt x="141" y="610" on="1"/>
        <pt x="141" y="603" on="1"/>
        <pt x="141" y="588" on="0"/>
        <pt x="150" y="578" on="0"/>
        <pt x="167" y="578" on="1"/>
        <pt x="200" y="578" on="1"/>
        <pt x="217" y="578" on="0"/>
        <pt x="226" y="588" on="0"/>
        <pt x="226" y="603" on="1"/>
        <pt x="226" y="610" on="1"/>
        <pt x="226" y="625" on="0"/>
        <pt x="217" y="635" on="0"/>
        <pt x="200" y="635" on="1"/>
        <pt x="167" y="635" on="1"/>
        <pt x="150" y="635" on="0"/>
        <pt x="141" y="625" on="0"/>
      </contour>
    </TTGlyph>
    <TTGlyph name="asciicircum" xMin="55" yMin="317" xMax="434" yMax="671">
      <contour>
        <pt x="187" y="671" on="1"/>
        <pt x="301" y="671" on="1"/>
        <pt x="434" y="317" on="1"/>
        <pt x="340" y="317" on="1"/>
        <pt x="244" y="587" on="1"/>
        <pt x="149" y="317" on="1"/>
        <pt x="55" y="317" on="1"/>
      </contour>
    </TTGlyph>
    <TTGlyph name="asciitilde" xMin="61" yMin="213" xMax="463" yMax="361">
      <contour>
        <pt x="344" y="213" on="1"/>
        <pt x="314" y="213" on="0"/>
        <pt x="264" y="238" on="0"/>
        <pt x="250" y="254" on="1"/>
        <pt x="213" y="294" on="0"/>
        <pt x="174" y="294" on="1"/>
        <pt x="156" y="294" on="0"/>
        <pt x="144" y="278" on="0"/>
        <pt x="144" y="261" on="1"/>
        <pt x="144" y="214" on="1"/>
        <pt x="61" y="214" on="1"/>
        <pt x="61" y="280" on="1"/>
        <pt x="61" y="361" on="0"/>
        <pt x="145" y="361" on="1"/>
        <pt x="182" y="361" on="1"/>
        <pt x="210" y="361" on="0"/>
        <pt x="258" y="336" on="0"/>
        <pt x="272" y="320" on="1"/>
        <pt x="310" y="280" on="0"/>
        <pt x="353" y="280" on="1"/>
        <pt x="370" y="280" on="0"/>
        <pt x="380" y="295" on="0"/>
        <pt x="380" y="314" on="1"/>
        <pt x="380" y="360" on="1"/>
        <pt x="463" y="360" on="1"/>
        <pt x="463" y="295" on="1"/>
        <pt x="463" y="213" on="0"/>
        <pt x="378" y="213" on="1"/>
      </contour>
    </TTGlyph>
    <TTGlyph name="asterisk" xMin="16" yMin="351" xMax="305" yMax="626">
      <contour>
        <pt x="123" y="590" on="1"/>
        <pt x="123" y="626" on="1"/>
        <pt x="198" y="626" on="1"/>
        <pt x="198" y="590" on="1"/>
        <pt x="198" y="557" on="0"/>
        <pt x="191" y="529" on="1"/>
        <pt x="215" y="544" on="0"/>
        <pt x="248" y="554" on="1"/>
        <pt x="281" y="565" on="1"/>
        <pt x="305" y="493" on="1"/>
        <pt x="270" y="483" on="1"/>
        <pt x="245" y="474" on="0"/>
        <pt x="210" y="470" on="1"/>
        <pt x="230" y="454" on="0"/>
        <pt x="252" y="424" on="1"/>
        <pt x="273" y="395" on="1"/>
        <pt x="212" y="351" on="1"/>
        <pt x="191" y="381" on="1"/>
        <pt x="170" y="410" on="0"/>
        <pt x="161" y="434" on="1"/>
        <pt x="145" y="401" on="0"/>
        <pt x="130" y="379" on="1"/>
        <pt x="109" y="351" on="1"/>
        <pt x="47" y="395" on="1"/>
        <pt x="69" y="424" on="1"/>
        <pt x="90" y="453" on="0"/>
        <pt x="111" y="470" on="1"/>
        <pt x="84" y="472" on="0"/>
        <pt x="16" y="494" on="1"/>
        <pt x="39" y="565" on="1"/>
        <pt x="107" y="543" on="0"/>
        <pt x="130" y="528" on="1"/>
        <pt x="123" y="556" on="0"/>
      </contour>
    </TTGlyph>
    <TTGlyph name="at" xMin="76" yMin="-70" xMax="650" yMax="575">
      <contour>
        <pt x="318" y="332" on="1"/>
        <pt x="318" y="178" on="1"/>
        <pt x="318" y="161" on="0"/>
        <pt x="329" y="149" on="0"/>
        <pt x="347" y="149" on="1"/>
        <pt x="376" y="149" on="1"/>
        <pt x="408" y="149" on="0"/>
        <pt x="408" y="184" on="1"/>
        <pt x="408" y="326" on="1"/>
        <pt x="408" y="345" on="0"/>
        <pt x="393" y="360" on="0"/>
        <pt x="376" y="360" on="1"/>
        <pt x="347" y="360" on="1"/>
        <pt x="329" y="360" on="0"/>
        <pt x="318" y="349" on="0"/>
      </contour>
      <contour>
        <pt x="233" y="343" on="1"/>
        <pt x="233" y="429" on="0"/>
        <pt x="321" y="429" on="1"/>
        <pt x="348" y="429" on="1"/>
        <pt x="396" y="429" on="0"/>
        <pt x="409" y="390" on="1"/>
        <pt x="409" y="429" on="1"/>
        <pt x="491" y="429" on="1"/>
        <pt x="491" y="149" on="1"/>
        <pt x="535" y="149" on="1"/>
        <pt x="554" y="149" on="0"/>
        <pt x="565" y="160" on="0"/>
        <pt x="565" y="178" on="1"/>
        <pt x="565" y="473" on="1"/>
        <pt x="565" y="491" on="0"/>
        <pt x="554" y="503" on="0"/>
        <pt x="535" y="503" on="1"/>
        <pt x="191" y="503" on="1"/>
        <pt x="173" y="503" on="0"/>
        <pt x="162" y="491" on="0"/>
        <pt x="162" y="473" on="1"/>
        <pt x="162" y="31" on="1"/>
        <pt x="162" y="14" on="0"/>
        <pt x="173" y="2" on="0"/>
        <pt x="191" y="2" on="1"/>
        <pt x="492" y="2" on="1"/>
        <pt x="492" y="-70" on="1"/>
        <pt x="166" y="-70" on="1"/>
        <pt x="76" y="-70" on="0"/>
        <pt x="76" y="18" on="1"/>
        <pt x="76" y="487" on="1"/>
        <pt x="76" y="575" on="0"/>
        <pt x="166" y="575" on="1"/>
        <pt x="560" y="575" on="1"/>
        <pt x="650" y="575" on="0"/>
        <pt x="650" y="487" on="1"/>
        <pt x="650" y="169" on="1"/>
        <pt x="650" y="81" on="0"/>
        <pt x="559" y="81" on="1"/>
        <pt x="414" y="81" on="1"/>
        <pt x="414" y="132" on="1"/>
        <pt x="407" y="81" on="0"/>
        <pt x="348" y="81" on="1"/>
        <pt x="321" y="81" on="1"/>
        <pt x="233" y="81" on="0"/>
        <pt x="233" y="167" on="1"/>
      </contour>
    </TTGlyph>
    <TTGlyph name="atilde" xMin="35" yMin="0" xMax="316" yMax="636">
      <contour>
        <pt x="226" y="488" on="1"/>
        <pt x="316" y="488" on="1"/>
        <pt x="316" y="0" on="1"/>
        <pt x="226" y="0" on="1"/>
        <pt x="226" y="39" on="1"/>
        <pt x="213" y="0" on="0"/>
        <pt x="164" y="0" on="1"/>
        <pt x="128" y="0" on="1"/>
        <pt x="38" y="0" on="0"/>
        <pt x="38" y="88" on="1"/>
        <pt x="38" y="399" on="1"/>
        <pt x="38" y="488" on="0"/>
        <pt x="128" y="488" on="1"/>
        <pt x="164" y="488" on="1"/>
        <pt x="213" y="488" on="0"/>
        <pt x="226" y="449" on="1"/>
      </contour>
      <contour>
        <pt x="158" y="73" on="1"/>
        <pt x="193" y="73" on="1"/>
        <pt x="211" y="73" on="0"/>
        <pt x="226" y="89" on="0"/>
        <pt x="226" y="108" on="1"/>
        <pt x="226" y="380" on="1"/>
        <pt x="226" y="399" on="0"/>
        <pt x="211" y="415" on="0"/>
        <pt x="193" y="415" on="1"/>
        <pt x="158" y="415" on="1"/>
        <pt x="140" y="415" on="0"/>
        <pt x="128" y="404" on="0"/>
        <pt x="128" y="386" on="1"/>
        <pt x="128" y="102" on="1"/>
        <pt x="128" y="84" on="0"/>
        <pt x="140" y="73" on="0"/>
      </contour>
      <contour>
        <pt x="113" y="549" on="1"/>
        <pt x="113" y="534" on="1"/>
        <pt x="35" y="534" on="1"/>
        <pt x="35" y="556" on="1"/>
        <pt x="35" y="596" on="0"/>
        <pt x="71" y="636" on="0"/>
        <pt x="113" y="636" on="1"/>
        <pt x="122" y="636" on="1"/>
        <pt x="147" y="636" on="0"/>
        <pt x="210" y="598" on="0"/>
        <pt x="230" y="598" on="0"/>
        <pt x="238" y="607" on="0"/>
        <pt x="238" y="622" on="1"/>
        <pt x="238" y="636" on="1"/>
        <pt x="315" y="636" on="1"/>
        <pt x="315" y="613" on="1"/>
        <pt x="315" y="574" on="0"/>
        <pt x="281" y="534" on="0"/>
        <pt x="238" y="534" on="1"/>
        <pt x="231" y="534" on="1"/>
        <pt x="205" y="534" on="0"/>
        <pt x="139" y="572" on="0"/>
        <pt x="130" y="572" on="1"/>
        <pt x="113" y="572" on="0"/>
      </contour>
    </TTGlyph>
    <TTGlyph name="b" xMin="44" yMin="0" xMax="322" yMax="669">
      <contour>
        <pt x="196" y="489" on="1"/>
        <pt x="231" y="489" on="1"/>
        <pt x="322" y="489" on="0"/>
        <pt x="322" y="400" on="1"/>
        <pt x="322" y="88" on="1"/>
        <pt x="322" y="0" on="0"/>
        <pt x="231" y="0" on="1"/>
        <pt x="196" y="0" on="1"/>
        <pt x="147" y="0" on="0"/>
        <pt x="134" y="39" on="1"/>
        <pt x="134" y="0" on="1"/>
        <pt x="44" y="0" on="1"/>
        <pt x="44" y="669" on="1"/>
        <pt x="134" y="669" on="1"/>
        <pt x="134" y="450" on="1"/>
        <pt x="147" y="489" on="0"/>
      </contour>
      <contour>
        <pt x="232" y="102" on="1"/>
        <pt x="232" y="387" on="1"/>
        <pt x="232" y="404" on="0"/>
        <pt x="220" y="416" on="0"/>
        <pt x="202" y="416" on="1"/>
        <pt x="167" y="416" on="1"/>
        <pt x="149" y="416" on="0"/>
        <pt x="134" y="400" on="0"/>
        <pt x="134" y="381" on="1"/>
        <pt x="134" y="108" on="1"/>
        <pt x="134" y="89" on="0"/>
        <pt x="149" y="73" on="0"/>
        <pt x="167" y="73" on="1"/>
        <pt x="202" y="73" on="1"/>
        <pt x="220" y="73" on="0"/>
        <pt x="232" y="84" on="0"/>
      </contour>
    </TTGlyph>
    <TTGlyph name="backslash" xMin="31" yMin="-120" xMax="388" yMax="700">
      <contour>
        <pt x="31" y="700" on="1"/>
        <pt x="115" y="700" on="1"/>
        <pt x="388" y="-120" on="1"/>
        <pt x="304" y="-120" on="1"/>
      </contour>
    </TTGlyph>
    <TTGlyph name="bar" xMin="54" yMin="-118" xMax="141" yMax="743">
      <contour>
        <pt x="54" y="743" on="1"/>
        <pt x="141" y="743" on="1"/>
        <pt x="141" y="-118" on="1"/>
        <pt x="54" y="-118" on="1"/>
      </contour>
    </TTGlyph>
    <TTGlyph name="braceleft" xMin="7" yMin="-164" xMax="275" yMax="783">
      <contour>
        <pt x="198" y="682" on="1"/>
        <pt x="198" y="431" on="1"/>
        <pt x="198" y="321" on="0"/>
        <pt x="122" y="310" on="1"/>
        <pt x="198" y="301" on="0"/>
        <pt x="198" y="192" on="1"/>
        <pt x="198" y="-62" on="1"/>
        <pt x="198" y="-79" on="0"/>
        <pt x="212" y="-93" on="0"/>
        <pt x="230" y="-93" on="1"/>
        <pt x="275" y="-93" on="1"/>
        <pt x="275" y="-164" on="1"/>
        <pt x="193" y="-164" on="1"/>
        <pt x="146" y="-164" on="0"/>
        <pt x="107" y="-118" on="0"/>
        <pt x="107" y="-74" on="1"/>
        <pt x="107" y="167" on="1"/>
        <pt x="107" y="223" on="0"/>
        <pt x="67" y="275" on="0"/>
        <pt x="24" y="275" on="1"/>
        <pt x="7" y="275" on="1"/>
        <pt x="7" y="345" on="1"/>
        <pt x="24" y="345" on="1"/>
        <pt x="67" y="345" on="0"/>
        <pt x="107" y="398" on="0"/>
        <pt x="107" y="455" on="1"/>
        <pt x="107" y="693" on="1"/>
        <pt x="107" y="783" on="0"/>
        <pt x="193" y="783" on="1"/>
        <pt x="275" y="783" on="1"/>
        <pt x="275" y="712" on="1"/>
        <pt x="230" y="712" on="1"/>
        <pt x="212" y="712" on="0"/>
        <pt x="198" y="699" on="0"/>
      </contour>
    </TTGlyph>
    <TTGlyph name="braceright" xMin="7" yMin="-164" xMax="274" yMax="783">
      <contour>
        <pt x="84" y="431" on="1"/>
        <pt x="84" y="682" on="1"/>
        <pt x="84" y="699" on="0"/>
        <pt x="70" y="712" on="0"/>
        <pt x="52" y="712" on="1"/>
        <pt x="7" y="712" on="1"/>
        <pt x="7" y="783" on="1"/>
        <pt x="89" y="783" on="1"/>
        <pt x="136" y="783" on="0"/>
        <pt x="174" y="736" on="0"/>
        <pt x="174" y="693" on="1"/>
        <pt x="174" y="455" on="1"/>
        <pt x="174" y="398" on="0"/>
        <pt x="214" y="345" on="0"/>
        <pt x="258" y="345" on="1"/>
        <pt x="274" y="345" on="1"/>
        <pt x="274" y="275" on="1"/>
        <pt x="258" y="275" on="1"/>
        <pt x="214" y="275" on="0"/>
        <pt x="174" y="223" on="0"/>
        <pt x="174" y="167" on="1"/>
        <pt x="174" y="-74" on="1"/>
        <pt x="174" y="-118" on="0"/>
        <pt x="136" y="-164" on="0"/>
        <pt x="89" y="-164" on="1"/>
        <pt x="7" y="-164" on="1"/>
        <pt x="7" y="-93" on="1"/>
        <pt x="52" y="-93" on="1"/>
        <pt x="70" y="-93" on="0"/>
        <pt x="84" y="-79" on="0"/>
        <pt x="84" y="-62" on="1"/>
        <pt x="84" y="192" on="1"/>
        <pt x="84" y="301" on="0"/>
        <pt x="160" y="310" on="1"/>
        <pt x="84" y="321" on="0"/>
      </contour>
    </TTGlyph>
    <TTGlyph name="bracketleft" xMin="58" yMin="-165" xMax="249" yMax="783">
      <contour>
        <pt x="249" y="710" on="1"/>
        <pt x="149" y="710" on="1"/>
        <pt x="149" y="-92" on="1"/>
        <pt x="249" y="-92" on="1"/>
        <pt x="249" y="-165" on="1"/>
        <pt x="58" y="-165" on="1"/>
        <pt x="58" y="783" on="1"/>
        <pt x="249" y="783" on="1"/>
      </contour>
    </TTGlyph>
    <TTGlyph name="bracketright" xMin="44" yMin="-165" xMax="234" yMax="783">
      <contour>
        <pt x="234" y="783" on="1"/>
        <pt x="234" y="-165" on="1"/>
        <pt x="44" y="-165" on="1"/>
        <pt x="44" y="-92" on="1"/>
        <pt x="143" y="-92" on="1"/>
        <pt x="143" y="710" on="1"/>
        <pt x="44" y="710" on="1"/>
        <pt x="44" y="783" on="1"/>
      </contour>
    </TTGlyph>
    <TTGlyph name="breve" xMin="66" yMin="519" xMax="355" yMax="651">
      <contour>
        <pt x="271" y="651" on="1"/>
        <pt x="355" y="651" on="1"/>
        <pt x="355" y="608" on="1"/>
        <pt x="355" y="519" on="0"/>
        <pt x="261" y="519" on="1"/>
        <pt x="160" y="519" on="1"/>
        <pt x="66" y="519" on="0"/>
        <pt x="66" y="608" on="1"/>
        <pt x="66" y="651" on="1"/>
        <pt x="150" y="651" on="1"/>
        <pt x="150" y="613" on="1"/>
        <pt x="150" y="595" on="0"/>
        <pt x="162" y="584" on="0"/>
        <pt x="180" y="584" on="1"/>
        <pt x="241" y="584" on="1"/>
        <pt x="259" y="584" on="0"/>
        <pt x="271" y="595" on="0"/>
        <pt x="271" y="613" on="1"/>
      </contour>
    </TTGlyph>
    <TTGlyph name="brokenbar" xMin="52" yMin="-97" xMax="143" yMax="722">
      <contour>
        <pt x="143" y="375" on="1"/>
        <pt x="52" y="375" on="1"/>
        <pt x="52" y="722" on="1"/>
        <pt x="143" y="722" on="1"/>
      </contour>
      <contour>
        <pt x="52" y="250" on="1"/>
        <pt x="143" y="250" on="1"/>
        <pt x="143" y="-97" on="1"/>
        <pt x="52" y="-97" on="1"/>
      </contour>
    </TTGlyph>
    <TTGlyph name="bullet" xMin="67" yMin="190" xMax="329" yMax="452">
      <contour>
        <pt x="67" y="267" on="0"/>
        <pt x="67" y="375" on="0"/>
        <pt x="144" y="452" on="0"/>
        <pt x="252" y="452" on="0"/>
        <pt x="329" y="375" on="0"/>
        <pt x="329" y="267" on="0"/>
        <pt x="252" y="190" on="0"/>
        <pt x="144" y="190" on="0"/>
      </contour>
    </TTGlyph>
    <TTGlyph name="c" xMin="38" yMin="0" xMax="320" yMax="488">
      <contour>
        <pt x="320" y="334" on="1"/>
        <pt x="231" y="334" on="1"/>
        <pt x="231" y="386" on="1"/>
        <pt x="231" y="404" on="0"/>
        <pt x="219" y="415" on="0"/>
        <pt x="201" y="415" on="1"/>
        <pt x="158" y="415" on="1"/>
        <pt x="140" y="415" on="0"/>
        <pt x="128" y="404" on="0"/>
        <pt x="128" y="386" on="1"/>
        <pt x="128" y="102" on="1"/>
        <pt x="128" y="84" on="0"/>
        <pt x="140" y="73" on="0"/>
        <pt x="158" y="73" on="1"/>
        <pt x="201" y="73" on="1"/>
        <pt x="219" y="73" on="0"/>
        <pt x="231" y="84" on="0"/>
        <pt x="231" y="102" on="1"/>
        <pt x="231" y="154" on="1"/>
        <pt x="320" y="154" on="1"/>
        <pt x="320" y="88" on="1"/>
        <pt x="320" y="0" on="0"/>
        <pt x="226" y="0" on="1"/>
        <pt x="131" y="0" on="1"/>
        <pt x="38" y="0" on="0"/>
        <pt x="38" y="88" on="1"/>
        <pt x="38" y="399" on="1"/>
        <pt x="38" y="488" on="0"/>
        <pt x="131" y="488" on="1"/>
        <pt x="226" y="488" on="1"/>
        <pt x="320" y="488" on="0"/>
        <pt x="320" y="399" on="1"/>
      </contour>
    </TTGlyph>
    <TTGlyph name="cacute" xMin="38" yMin="0" xMax="321" yMax="651">
      <contour>
        <pt x="131" y="488" on="1"/>
        <pt x="226" y="488" on="1"/>
        <pt x="320" y="488" on="0"/>
        <pt x="320" y="399" on="1"/>
        <pt x="320" y="334" on="1"/>
        <pt x="231" y="334" on="1"/>
        <pt x="231" y="386" on="1"/>
        <pt x="231" y="404" on="0"/>
        <pt x="219" y="415" on="0"/>
        <pt x="201" y="415" on="1"/>
        <pt x="158" y="415" on="1"/>
        <pt x="140" y="415" on="0"/>
        <pt x="128" y="404" on="0"/>
        <pt x="128" y="386" on="1"/>
        <pt x="128" y="102" on="1"/>
        <pt x="128" y="84" on="0"/>
        <pt x="140" y="73" on="0"/>
        <pt x="158" y="73" on="1"/>
        <pt x="201" y="73" on="1"/>
        <pt x="219" y="73" on="0"/>
        <pt x="231" y="84" on="0"/>
        <pt x="231" y="102" on="1"/>
        <pt x="231" y="154" on="1"/>
        <pt x="320" y="154" on="1"/>
        <pt x="320" y="88" on="1"/>
        <pt x="320" y="0" on="0"/>
        <pt x="226" y="0" on="1"/>
        <pt x="131" y="0" on="1"/>
        <pt x="38" y="0" on="0"/>
        <pt x="38" y="88" on="1"/>
        <pt x="38" y="399" on="1"/>
        <pt x="38" y="488" on="0"/>
      </contour>
      <contour>
        <pt x="321" y="651" on="1"/>
        <pt x="216" y="519" on="1"/>
        <pt x="139" y="519" on="1"/>
        <pt x="221" y="651" on="1"/>
      </contour>
    </TTGlyph>
    <TTGlyph name="caron" xMin="64" yMin="519" xMax="356" yMax="651">
      <contour>
        <pt x="160" y="519" on="1"/>
        <pt x="64" y="651" on="1"/>
        <pt x="158" y="651" on="1"/>
        <pt x="210" y="570" on="1"/>
        <pt x="263" y="651" on="1"/>
        <pt x="356" y="651" on="1"/>
        <pt x="261" y="519" on="1"/>
      </contour>
    </TTGlyph>
    <TTGlyph name="ccaron" xMin="33" yMin="0" xMax="325" yMax="651">
      <contour>
        <pt x="131" y="488" on="1"/>
        <pt x="226" y="488" on="1"/>
        <pt x="320" y="488" on="0"/>
        <pt x="320" y="399" on="1"/>
        <pt x="320" y="334" on="1"/>
        <pt x="231" y="334" on="1"/>
        <pt x="231" y="386" on="1"/>
        <pt x="231" y="404" on="0"/>
        <pt x="219" y="415" on="0"/>
        <pt x="201" y="415" on="1"/>
        <pt x="158" y="415" on="1"/>
        <pt x="140" y="415" on="0"/>
        <pt x="128" y="404" on="0"/>
        <pt x="128" y="386" on="1"/>
        <pt x="128" y="102" on="1"/>
        <pt x="128" y="84" on="0"/>
        <pt x="140" y="73" on="0"/>
        <pt x="158" y="73" on="1"/>
        <pt x="201" y="73" on="1"/>
        <pt x="219" y="73" on="0"/>
        <pt x="231" y="84" on="0"/>
        <pt x="231" y="102" on="1"/>
        <pt x="231" y="154" on="1"/>
        <pt x="320" y="154" on="1"/>
        <pt x="320" y="88" on="1"/>
        <pt x="320" y="0" on="0"/>
        <pt x="226" y="0" on="1"/>
        <pt x="131" y="0" on="1"/>
        <pt x="38" y="0" on="0"/>
        <pt x="38" y="88" on="1"/>
        <pt x="38" y="399" on="1"/>
        <pt x="38" y="488" on="0"/>
      </contour>
      <contour>
        <pt x="230" y="519" on="1"/>
        <pt x="129" y="519" on="1"/>
        <pt x="33" y="651" on="1"/>
        <pt x="127" y="651" on="1"/>
        <pt x="179" y="570" on="1"/>
        <pt x="232" y="651" on="1"/>
        <pt x="325" y="651" on="1"/>
      </contour>
    </TTGlyph>
    <TTGlyph name="ccedilla" xMin="38" yMin="-187" xMax="320" yMax="488">
      <contour>
        <pt x="320" y="334" on="1"/>
        <pt x="231" y="334" on="1"/>
        <pt x="231" y="386" on="1"/>
        <pt x="231" y="404" on="0"/>
        <pt x="219" y="415" on="0"/>
        <pt x="201" y="415" on="1"/>
        <pt x="158" y="415" on="1"/>
        <pt x="140" y="415" on="0"/>
        <pt x="128" y="404" on="0"/>
        <pt x="128" y="386" on="1"/>
        <pt x="128" y="102" on="1"/>
        <pt x="128" y="84" on="0"/>
        <pt x="140" y="73" on="0"/>
        <pt x="158" y="73" on="1"/>
        <pt x="201" y="73" on="1"/>
        <pt x="219" y="73" on="0"/>
        <pt x="231" y="84" on="0"/>
        <pt x="231" y="102" on="1"/>
        <pt x="231" y="154" on="1"/>
        <pt x="320" y="154" on="1"/>
        <pt x="320" y="88" on="1"/>
        <pt x="320" y="0" on="0"/>
        <pt x="226" y="0" on="1"/>
        <pt x="131" y="0" on="1"/>
        <pt x="38" y="0" on="0"/>
        <pt x="38" y="88" on="1"/>
        <pt x="38" y="399" on="1"/>
        <pt x="38" y="488" on="0"/>
        <pt x="131" y="488" on="1"/>
        <pt x="226" y="488" on="1"/>
        <pt x="320" y="488" on="0"/>
        <pt x="320" y="399" on="1"/>
      </contour>
      <contour>
        <pt x="140" y="-84" on="1"/>
        <pt x="140" y="-50" on="1"/>
        <pt x="225" y="-50" on="1"/>
        <pt x="225" y="-91" on="1"/>
        <pt x="225" y="-187" on="0"/>
        <pt x="124" y="-187" on="1"/>
        <pt x="67" y="-187" on="1"/>
        <pt x="67" y="-117" on="1"/>
        <pt x="107" y="-117" on="1"/>
        <pt x="140" y="-117" on="0"/>
      </contour>
    </TTGlyph>
    <TTGlyph name="cedilla" xMin="133" yMin="-187" xMax="291" yMax="-50">
      <contour>
        <pt x="206" y="-84" on="1"/>
        <pt x="206" y="-50" on="1"/>
        <pt x="291" y="-50" on="1"/>
        <pt x="291" y="-91" on="1"/>
        <pt x="291" y="-187" on="0"/>
        <pt x="190" y="-187" on="1"/>
        <pt x="133" y="-187" on="1"/>
        <pt x="133" y="-117" on="1"/>
        <pt x="173" y="-117" on="1"/>
        <pt x="206" y="-117" on="0"/>
      </contour>
    </TTGlyph>
    <TTGlyph name="cent" xMin="38" yMin="-76" xMax="320" yMax="565">
      <contour>
        <pt x="320" y="334" on="1"/>
        <pt x="231" y="334" on="1"/>
        <pt x="231" y="386" on="1"/>
        <pt x="231" y="404" on="0"/>
        <pt x="219" y="415" on="0"/>
        <pt x="201" y="415" on="1"/>
        <pt x="158" y="415" on="1"/>
        <pt x="140" y="415" on="0"/>
        <pt x="128" y="404" on="0"/>
        <pt x="128" y="386" on="1"/>
        <pt x="128" y="102" on="1"/>
        <pt x="128" y="84" on="0"/>
        <pt x="140" y="73" on="0"/>
        <pt x="158" y="73" on="1"/>
        <pt x="201" y="73" on="1"/>
        <pt x="219" y="73" on="0"/>
        <pt x="231" y="84" on="0"/>
        <pt x="231" y="102" on="1"/>
        <pt x="231" y="154" on="1"/>
        <pt x="320" y="154" on="1"/>
        <pt x="320" y="88" on="1"/>
        <pt x="320" y="0" on="0"/>
        <pt x="226" y="0" on="1"/>
        <pt x="225" y="0" on="1"/>
        <pt x="225" y="-76" on="1"/>
        <pt x="139" y="-76" on="1"/>
        <pt x="139" y="0" on="1"/>
        <pt x="131" y="0" on="1"/>
        <pt x="38" y="0" on="0"/>
        <pt x="38" y="88" on="1"/>
        <pt x="38" y="399" on="1"/>
        <pt x="38" y="488" on="0"/>
        <pt x="131" y="488" on="1"/>
        <pt x="139" y="488" on="1"/>
        <pt x="139" y="565" on="1"/>
        <pt x="225" y="565" on="1"/>
        <pt x="225" y="488" on="1"/>
        <pt x="226" y="488" on="1"/>
        <pt x="320" y="488" on="0"/>
        <pt x="320" y="399" on="1"/>
      </contour>
    </TTGlyph>
    <TTGlyph name="circumflex" xMin="64" yMin="519" xMax="356" yMax="651">
      <contour>
        <pt x="64" y="519" on="1"/>
        <pt x="160" y="651" on="1"/>
        <pt x="261" y="651" on="1"/>
        <pt x="356" y="519" on="1"/>
        <pt x="263" y="519" on="1"/>
        <pt x="210" y="600" on="1"/>
        <pt x="158" y="519" on="1"/>
      </contour>
    </TTGlyph>
    <TTGlyph name="colon" xMin="32" yMin="70" xMax="133" yMax="418">
      <contour>
        <pt x="32" y="295" on="1"/>
        <pt x="32" y="418" on="1"/>
        <pt x="133" y="418" on="1"/>
        <pt x="133" y="295" on="1"/>
      </contour>
      <contour>
        <pt x="32" y="70" on="1"/>
        <pt x="32" y="193" on="1"/>
        <pt x="133" y="193" on="1"/>
        <pt x="133" y="70" on="1"/>
      </contour>
    </TTGlyph>
    <TTGlyph name="comma" xMin="32" yMin="-140" xMax="133" yMax="123">
      <contour>
        <pt x="32" y="123" on="1"/>
        <pt x="133" y="123" on="1"/>
        <pt x="133" y="58" on="1"/>
        <pt x="64" y="-140" on="1"/>
        <pt x="32" y="-140" on="1"/>
      </contour>
    </TTGlyph>
    <TTGlyph name="commaaccent" xMin="161" yMin="-229" xMax="260" yMax="-50">
      <contour>
        <pt x="161" y="-50" on="1"/>
        <pt x="260" y="-50" on="1"/>
        <pt x="260" y="-99" on="1"/>
        <pt x="194" y="-229" on="1"/>
        <pt x="161" y="-229" on="1"/>
      </contour>
    </TTGlyph>
    <TTGlyph name="copyright" xMin="45" yMin="0" xMax="670" yMax="626">
      <contour>
        <pt x="407" y="244" on="1"/>
        <pt x="407" y="270" on="1"/>
        <pt x="487" y="270" on="1"/>
        <pt x="487" y="231" on="1"/>
        <pt x="487" y="151" on="0"/>
        <pt x="403" y="151" on="1"/>
        <pt x="313" y="151" on="1"/>
        <pt x="229" y="151" on="0"/>
        <pt x="229" y="231" on="1"/>
        <pt x="229" y="405" on="1"/>
        <pt x="229" y="486" on="0"/>
        <pt x="313" y="486" on="1"/>
        <pt x="403" y="486" on="1"/>
        <pt x="487" y="486" on="0"/>
        <pt x="487" y="405" on="1"/>
        <pt x="487" y="367" on="1"/>
        <pt x="407" y="367" on="1"/>
        <pt x="407" y="392" on="1"/>
        <pt x="407" y="409" on="0"/>
        <pt x="396" y="420" on="0"/>
        <pt x="379" y="420" on="1"/>
        <pt x="336" y="420" on="1"/>
        <pt x="319" y="420" on="0"/>
        <pt x="308" y="409" on="0"/>
        <pt x="308" y="392" on="1"/>
        <pt x="308" y="244" on="1"/>
        <pt x="308" y="227" on="0"/>
        <pt x="319" y="217" on="0"/>
        <pt x="336" y="217" on="1"/>
        <pt x="379" y="217" on="1"/>
        <pt x="396" y="217" on="0"/>
        <pt x="407" y="227" on="0"/>
      </contour>
      <contour>
        <pt x="270" y="68" on="1"/>
        <pt x="445" y="68" on="1"/>
        <pt x="524" y="68" on="0"/>
        <pt x="590" y="173" on="0"/>
        <pt x="590" y="273" on="1"/>
        <pt x="590" y="346" on="1"/>
        <pt x="590" y="560" on="0"/>
        <pt x="445" y="560" on="1"/>
        <pt x="270" y="560" on="1"/>
        <pt x="125" y="560" on="0"/>
        <pt x="125" y="346" on="1"/>
        <pt x="125" y="273" on="1"/>
        <pt x="125" y="173" on="0"/>
        <pt x="191" y="68" on="0"/>
      </contour>
      <contour>
        <pt x="670" y="341" on="1"/>
        <pt x="670" y="278" on="1"/>
        <pt x="670" y="137" on="0"/>
        <pt x="568" y="0" on="0"/>
        <pt x="453" y="0" on="1"/>
        <pt x="262" y="0" on="1"/>
        <pt x="147" y="0" on="0"/>
        <pt x="45" y="137" on="0"/>
        <pt x="45" y="278" on="1"/>
        <pt x="45" y="341" on="1"/>
        <pt x="45" y="483" on="0"/>
        <pt x="148" y="626" on="0"/>
        <pt x="262" y="626" on="1"/>
        <pt x="453" y="626" on="1"/>
        <pt x="567" y="626" on="0"/>
        <pt x="670" y="483" on="0"/>
      </contour>
    </TTGlyph>
    <TTGlyph name="currency" xMin="58" yMin="60" xMax="432" yMax="544">
      <contour>
        <pt x="397" y="390" on="1"/>
        <pt x="397" y="208" on="1"/>
        <pt x="397" y="178" on="0"/>
        <pt x="390" y="160" on="1"/>
        <pt x="432" y="118" on="1"/>
        <pt x="374" y="60" on="1"/>
        <pt x="326" y="108" on="1"/>
        <pt x="308" y="106" on="0"/>
        <pt x="297" y="106" on="1"/>
        <pt x="200" y="106" on="1"/>
        <pt x="182" y="106" on="0"/>
        <pt x="165" y="109" on="1"/>
        <pt x="116" y="60" on="1"/>
        <pt x="58" y="118" on="1"/>
        <pt x="105" y="165" on="1"/>
        <pt x="100" y="185" on="0"/>
        <pt x="100" y="208" on="1"/>
        <pt x="100" y="390" on="1"/>
        <pt x="100" y="419" on="0"/>
        <pt x="107" y="437" on="1"/>
        <pt x="58" y="486" on="1"/>
        <pt x="116" y="544" on="1"/>
        <pt x="171" y="489" on="1"/>
        <pt x="189" y="491" on="0"/>
        <pt x="200" y="491" on="1"/>
        <pt x="297" y="491" on="1"/>
        <pt x="313" y="491" on="0"/>
        <pt x="320" y="490" on="1"/>
        <pt x="374" y="544" on="1"/>
        <pt x="432" y="486" on="1"/>
        <pt x="388" y="442" on="1"/>
        <pt x="397" y="421" on="0"/>
      </contour>
      <contour>
        <pt x="222" y="176" on="1"/>
        <pt x="274" y="176" on="1"/>
        <pt x="299" y="176" on="0"/>
        <pt x="315" y="191" on="0"/>
        <pt x="315" y="216" on="1"/>
        <pt x="315" y="381" on="1"/>
        <pt x="315" y="407" on="0"/>
        <pt x="299" y="422" on="0"/>
        <pt x="274" y="422" on="1"/>
        <pt x="222" y="422" on="1"/>
        <pt x="198" y="422" on="0"/>
        <pt x="182" y="407" on="0"/>
        <pt x="182" y="381" on="1"/>
        <pt x="182" y="216" on="1"/>
        <pt x="182" y="191" on="0"/>
        <pt x="198" y="176" on="0"/>
      </contour>
    </TTGlyph>
    <TTGlyph name="d" xMin="38" yMin="0" xMax="316" yMax="669">
      <contour>
        <pt x="226" y="669" on="1"/>
        <pt x="316" y="669" on="1"/>
        <pt x="316" y="0" on="1"/>
        <pt x="226" y="0" on="1"/>
        <pt x="226" y="39" on="1"/>
        <pt x="213" y="0" on="0"/>
        <pt x="164" y="0" on="1"/>
        <pt x="128" y="0" on="1"/>
        <pt x="38" y="0" on="0"/>
        <pt x="38" y="88" on="1"/>
        <pt x="38" y="400" on="1"/>
        <pt x="38" y="489" on="0"/>
        <pt x="128" y="489" on="1"/>
        <pt x="164" y="489" on="1"/>
        <pt x="213" y="489" on="0"/>
        <pt x="226" y="450" on="1"/>
      </contour>
      <contour>
        <pt x="158" y="73" on="1"/>
        <pt x="193" y="73" on="1"/>
        <pt x="211" y="73" on="0"/>
        <pt x="226" y="89" on="0"/>
        <pt x="226" y="108" on="1"/>
        <pt x="226" y="381" on="1"/>
        <pt x="226" y="400" on="0"/>
        <pt x="211" y="416" on="0"/>
        <pt x="193" y="416" on="1"/>
        <pt x="158" y="416" on="1"/>
        <pt x="140" y="416" on="0"/>
        <pt x="128" y="404" on="0"/>
        <pt x="128" y="387" on="1"/>
        <pt x="128" y="102" on="1"/>
        <pt x="128" y="84" on="0"/>
        <pt x="140" y="73" on="0"/>
      </contour>
    </TTGlyph>
    <TTGlyph name="dagger" xMin="6" yMin="-110" xMax="356" yMax="626">
      <contour>
        <pt x="356" y="465" on="1"/>
        <pt x="356" y="394" on="1"/>
        <pt x="226" y="394" on="1"/>
        <pt x="226" y="-110" on="1"/>
        <pt x="136" y="-110" on="1"/>
        <pt x="136" y="394" on="1"/>
        <pt x="6" y="394" on="1"/>
        <pt x="6" y="465" on="1"/>
        <pt x="136" y="465" on="1"/>
        <pt x="136" y="626" on="1"/>
        <pt x="226" y="626" on="1"/>
        <pt x="226" y="465" on="1"/>
      </contour>
    </TTGlyph>
    <TTGlyph name="daggerdbl" xMin="17" yMin="-153" xMax="367" yMax="626">
      <contour>
        <pt x="367" y="394" on="1"/>
        <pt x="237" y="394" on="1"/>
        <pt x="237" y="79" on="1"/>
        <pt x="367" y="79" on="1"/>
        <pt x="367" y="9" on="1"/>
        <pt x="237" y="9" on="1"/>
        <pt x="237" y="-153" on="1"/>
        <pt x="147" y="-153" on="1"/>
        <pt x="147" y="9" on="1"/>
        <pt x="17" y="9" on="1"/>
        <pt x="17" y="79" on="1"/>
        <pt x="147" y="79" on="1"/>
        <pt x="147" y="394" on="1"/>
        <pt x="17" y="394" on="1"/>
        <pt x="17" y="465" on="1"/>
        <pt x="147" y="465" on="1"/>
        <pt x="147" y="626" on="1"/>
        <pt x="237" y="626" on="1"/>
        <pt x="237" y="465" on="1"/>
        <pt x="367" y="465" on="1"/>
      </contour>
    </TTGlyph>
    <TTGlyph name="dcaron" xMin="38" yMin="0" xMax="433" yMax="669">
      <contour>
        <pt x="360" y="669" on="1"/>
        <pt x="433" y="669" on="1"/>
        <pt x="433" y="622" on="1"/>
        <pt x="389" y="498" on="1"/>
        <pt x="360" y="498" on="1"/>
      </contour>
      <contour>
        <pt x="226" y="669" on="1"/>
        <pt x="316" y="669" on="1"/>
        <pt x="316" y="0" on="1"/>
        <pt x="226" y="0" on="1"/>
        <pt x="226" y="39" on="1"/>
        <pt x="213" y="0" on="0"/>
        <pt x="164" y="0" on="1"/>
        <pt x="128" y="0" on="1"/>
        <pt x="38" y="0" on="0"/>
        <pt x="38" y="88" on="1"/>
        <pt x="38" y="400" on="1"/>
        <pt x="38" y="489" on="0"/>
        <pt x="128" y="489" on="1"/>
        <pt x="164" y="489" on="1"/>
        <pt x="213" y="489" on="0"/>
        <pt x="226" y="450" on="1"/>
      </contour>
      <contour>
        <pt x="158" y="73" on="1"/>
        <pt x="193" y="73" on="1"/>
        <pt x="211" y="73" on="0"/>
        <pt x="226" y="89" on="0"/>
        <pt x="226" y="108" on="1"/>
        <pt x="226" y="381" on="1"/>
        <pt x="226" y="400" on="0"/>
        <pt x="211" y="416" on="0"/>
        <pt x="193" y="416" on="1"/>
        <pt x="158" y="416" on="1"/>
        <pt x="140" y="416" on="0"/>
        <pt x="128" y="404" on="0"/>
        <pt x="128" y="387" on="1"/>
        <pt x="128" y="102" on="1"/>
        <pt x="128" y="84" on="0"/>
        <pt x="140" y="73" on="0"/>
      </contour>
    </TTGlyph>
    <TTGlyph name="dcroat" xMin="43" yMin="0" xMax="367" yMax="669">
      <contour>
        <pt x="367" y="607" on="1"/>
        <pt x="367" y="545" on="1"/>
        <pt x="321" y="545" on="1"/>
        <pt x="321" y="0" on="1"/>
        <pt x="231" y="0" on="1"/>
        <pt x="231" y="39" on="1"/>
        <pt x="218" y="0" on="0"/>
        <pt x="169" y="0" on="1"/>
        <pt x="133" y="0" on="1"/>
        <pt x="43" y="0" on="0"/>
        <pt x="43" y="88" on="1"/>
        <pt x="43" y="399" on="1"/>
        <pt x="43" y="488" on="0"/>
        <pt x="133" y="488" on="1"/>
        <pt x="169" y="488" on="1"/>
        <pt x="218" y="488" on="0"/>
        <pt x="231" y="449" on="1"/>
        <pt x="231" y="545" on="1"/>
        <pt x="151" y="545" on="1"/>
        <pt x="151" y="607" on="1"/>
        <pt x="231" y="607" on="1"/>
        <pt x="231" y="669" on="1"/>
        <pt x="321" y="669" on="1"/>
        <pt x="321" y="607" on="1"/>
      </contour>
      <contour>
        <pt x="163" y="73" on="1"/>
        <pt x="198" y="73" on="1"/>
        <pt x="216" y="73" on="0"/>
        <pt x="231" y="89" on="0"/>
        <pt x="231" y="108" on="1"/>
        <pt x="231" y="380" on="1"/>
        <pt x="231" y="399" on="0"/>
        <pt x="216" y="415" on="0"/>
        <pt x="198" y="415" on="1"/>
        <pt x="163" y="415" on="1"/>
        <pt x="145" y="415" on="0"/>
        <pt x="133" y="404" on="0"/>
        <pt x="133" y="386" on="1"/>
        <pt x="133" y="102" on="1"/>
        <pt x="133" y="84" on="0"/>
        <pt x="145" y="73" on="0"/>
      </contour>
    </TTGlyph>
    <TTGlyph name="degree" xMin="54" yMin="343" xMax="324" yMax="626">
      <contour>
        <pt x="240" y="437" on="1"/>
        <pt x="240" y="532" on="1"/>
        <pt x="240" y="549" on="0"/>
        <pt x="228" y="560" on="0"/>
        <pt x="210" y="560" on="1"/>
        <pt x="168" y="560" on="1"/>
        <pt x="150" y="560" on="0"/>
        <pt x="138" y="549" on="0"/>
        <pt x="138" y="532" on="1"/>
        <pt x="138" y="437" on="1"/>
        <pt x="138" y="420" on="0"/>
        <pt x="150" y="409" on="0"/>
        <pt x="168" y="409" on="1"/>
        <pt x="210" y="409" on="1"/>
        <pt x="229" y="409" on="0"/>
        <pt x="240" y="420" on="0"/>
      </contour>
      <contour>
        <pt x="324" y="539" on="1"/>
        <pt x="324" y="429" on="1"/>
        <pt x="324" y="343" on="0"/>
        <pt x="233" y="343" on="1"/>
        <pt x="145" y="343" on="1"/>
        <pt x="54" y="343" on="0"/>
        <pt x="54" y="429" on="1"/>
        <pt x="54" y="539" on="1"/>
        <pt x="54" y="626" on="0"/>
        <pt x="145" y="626" on="1"/>
        <pt x="233" y="626" on="1"/>
        <pt x="324" y="626" on="0"/>
      </contour>
    </TTGlyph>
    <TTGlyph name="dieresis" xMin="65" yMin="541" xMax="356" yMax="635">
      <contour>
        <pt x="255" y="541" on="1"/>
        <pt x="255" y="635" on="1"/>
        <pt x="356" y="635" on="1"/>
        <pt x="356" y="541" on="1"/>
      </contour>
      <contour>
        <pt x="65" y="541" on="1"/>
        <pt x="65" y="635" on="1"/>
        <pt x="167" y="635" on="1"/>
        <pt x="167" y="541" on="1"/>
      </contour>
    </TTGlyph>
    <TTGlyph name="divide" xMin="25" yMin="125" xMax="387" yMax="501">
      <contour>
        <pt x="161" y="212" on="1"/>
        <pt x="251" y="212" on="1"/>
        <pt x="251" y="125" on="1"/>
        <pt x="161" y="125" on="1"/>
      </contour>
      <contour>
        <pt x="161" y="501" on="1"/>
        <pt x="251" y="501" on="1"/>
        <pt x="251" y="413" on="1"/>
        <pt x="161" y="413" on="1"/>
      </contour>
      <contour>
        <pt x="25" y="276" on="1"/>
        <pt x="25" y="350" on="1"/>
        <pt x="387" y="350" on="1"/>
        <pt x="387" y="276" on="1"/>
      </contour>
    </TTGlyph>
    <TTGlyph name="dollar" xMin="38" yMin="-77" xMax="324" yMax="703">
      <contour>
        <pt x="159" y="356" on="1"/>
        <pt x="232" y="356" on="1"/>
        <pt x="324" y="356" on="0"/>
        <pt x="324" y="268" on="1"/>
        <pt x="324" y="88" on="1"/>
        <pt x="324" y="0" on="0"/>
        <pt x="230" y="0" on="1"/>
        <pt x="224" y="0" on="1"/>
        <pt x="224" y="-77" on="1"/>
        <pt x="138" y="-77" on="1"/>
        <pt x="138" y="0" on="1"/>
        <pt x="133" y="0" on="1"/>
        <pt x="40" y="0" on="0"/>
        <pt x="40" y="88" on="1"/>
        <pt x="40" y="180" on="1"/>
        <pt x="131" y="180" on="1"/>
        <pt x="131" y="102" on="1"/>
        <pt x="131" y="84" on="0"/>
        <pt x="143" y="73" on="0"/>
        <pt x="161" y="73" on="1"/>
        <pt x="203" y="73" on="1"/>
        <pt x="221" y="73" on="0"/>
        <pt x="232" y="84" on="0"/>
        <pt x="232" y="102" on="1"/>
        <pt x="232" y="255" on="1"/>
        <pt x="232" y="273" on="0"/>
        <pt x="221" y="284" on="0"/>
        <pt x="203" y="284" on="1"/>
        <pt x="129" y="284" on="1"/>
        <pt x="38" y="284" on="0"/>
        <pt x="38" y="373" on="1"/>
        <pt x="38" y="538" on="1"/>
        <pt x="38" y="626" on="0"/>
        <pt x="131" y="626" on="1"/>
        <pt x="138" y="626" on="1"/>
        <pt x="138" y="703" on="1"/>
        <pt x="224" y="703" on="1"/>
        <pt x="224" y="626" on="1"/>
        <pt x="229" y="626" on="1"/>
        <pt x="322" y="626" on="0"/>
        <pt x="322" y="538" on="1"/>
        <pt x="322" y="446" on="1"/>
        <pt x="231" y="446" on="1"/>
        <pt x="231" y="524" on="1"/>
        <pt x="231" y="542" on="0"/>
        <pt x="219" y="553" on="0"/>
        <pt x="201" y="553" on="1"/>
        <pt x="159" y="553" on="1"/>
        <pt x="141" y="553" on="0"/>
        <pt x="129" y="542" on="0"/>
        <pt x="129" y="524" on="1"/>
        <pt x="129" y="385" on="1"/>
        <pt x="129" y="367" on="0"/>
        <pt x="141" y="356" on="0"/>
      </contour>
    </TTGlyph>
    <TTGlyph name="dotaccent" xMin="157" yMin="537" xMax="264" yMax="633">
      <contour>
        <pt x="157" y="537" on="1"/>
        <pt x="157" y="633" on="1"/>
        <pt x="264" y="633" on="1"/>
        <pt x="264" y="537" on="1"/>
      </contour>
    </TTGlyph>
    <TTGlyph name="dotlessi" xMin="44" yMin="0" xMax="134" yMax="488">
      <contour>
        <pt x="134" y="0" on="1"/>
        <pt x="44" y="0" on="1"/>
        <pt x="44" y="488" on="1"/>
        <pt x="134" y="488" on="1"/>
      </contour>
    </TTGlyph>
    <TTGlyph name="dvBH_N" xMin="44" yMin="78" xMax="777" yMax="627">
      <contour>
        <pt x="409" y="626" on="1"/>
        <pt x="777" y="626" on="1"/>
        <pt x="777" y="556" on="1"/>
        <pt x="409" y="556" on="1"/>
      </contour>
      <contour>
        <pt x="325" y="405" on="1"/>
        <pt x="409" y="405" on="1"/>
        <pt x="413" y="482" on="0"/>
        <pt x="500" y="482" on="1"/>
        <pt x="777" y="482" on="1"/>
        <pt x="777" y="412" on="1"/>
        <pt x="675" y="412" on="1"/>
        <pt x="675" y="167" on="1"/>
        <pt x="675" y="121" on="0"/>
        <pt x="629" y="78" on="0"/>
        <pt x="579" y="78" on="1"/>
        <pt x="505" y="78" on="1"/>
        <pt x="455" y="78" on="0"/>
        <pt x="409" y="121" on="0"/>
        <pt x="409" y="167" on="1"/>
        <pt x="409" y="335" on="1"/>
        <pt x="325" y="335" on="1"/>
        <pt x="325" y="167" on="1"/>
        <pt x="325" y="121" on="0"/>
        <pt x="279" y="78" on="0"/>
        <pt x="229" y="78" on="1"/>
        <pt x="140" y="78" on="1"/>
        <pt x="90" y="78" on="0"/>
        <pt x="44" y="121" on="0"/>
        <pt x="44" y="167" on="1"/>
        <pt x="44" y="320" on="1"/>
        <pt x="44" y="363" on="0"/>
        <pt x="88" y="405" on="0"/>
        <pt x="136" y="405" on="1"/>
        <pt x="235" y="405" on="1"/>
        <pt x="235" y="528" on="1"/>
        <pt x="235" y="546" on="0"/>
        <pt x="223" y="557" on="0"/>
        <pt x="205" y="557" on="1"/>
        <pt x="172" y="557" on="1"/>
        <pt x="154" y="557" on="0"/>
        <pt x="142" y="546" on="0"/>
        <pt x="142" y="528" on="1"/>
        <pt x="142" y="479" on="1"/>
        <pt x="52" y="479" on="1"/>
        <pt x="52" y="540" on="1"/>
        <pt x="52" y="627" on="0"/>
        <pt x="144" y="627" on="1"/>
        <pt x="233" y="627" on="1"/>
        <pt x="325" y="627" on="0"/>
        <pt x="325" y="540" on="1"/>
      </contour>
      <contour>
        <pt x="235" y="178" on="1"/>
        <pt x="235" y="335" on="1"/>
        <pt x="163" y="335" on="1"/>
        <pt x="146" y="335" on="0"/>
        <pt x="134" y="324" on="0"/>
        <pt x="134" y="306" on="1"/>
        <pt x="134" y="178" on="1"/>
        <pt x="134" y="159" on="0"/>
        <pt x="146" y="148" on="0"/>
        <pt x="164" y="148" on="1"/>
        <pt x="205" y="148" on="1"/>
        <pt x="223" y="148" on="0"/>
        <pt x="235" y="159" on="0"/>
      </contour>
      <contour>
        <pt x="585" y="412" on="1"/>
        <pt x="528" y="412" on="1"/>
        <pt x="510" y="412" on="0"/>
        <pt x="499" y="401" on="0"/>
        <pt x="499" y="383" on="1"/>
        <pt x="499" y="178" on="1"/>
        <pt x="499" y="159" on="0"/>
        <pt x="511" y="148" on="0"/>
        <pt x="529" y="148" on="1"/>
        <pt x="555" y="148" on="1"/>
        <pt x="573" y="148" on="0"/>
        <pt x="585" y="159" on="0"/>
        <pt x="585" y="178" on="1"/>
      </contour>
    </TTGlyph>
    <TTGlyph name="dvB_N" xMin="-20" yMin="78" xMax="655" yMax="626">
      <contour>
        <pt x="-20" y="626" on="1"/>
        <pt x="655" y="626" on="1"/>
        <pt x="655" y="556" on="1"/>
        <pt x="-20" y="556" on="1"/>
      </contour>
      <contour>
        <pt x="286" y="272" on="1"/>
        <pt x="286" y="397" on="1"/>
        <pt x="286" y="441" on="0"/>
        <pt x="330" y="482" on="0"/>
        <pt x="378" y="482" on="1"/>
        <pt x="655" y="482" on="1"/>
        <pt x="655" y="412" on="1"/>
        <pt x="553" y="412" on="1"/>
        <pt x="553" y="167" on="1"/>
        <pt x="553" y="121" on="0"/>
        <pt x="507" y="78" on="0"/>
        <pt x="457" y="78" on="1"/>
        <pt x="383" y="78" on="1"/>
        <pt x="334" y="78" on="0"/>
        <pt x="310" y="99" on="1"/>
        <pt x="297" y="78" on="0"/>
        <pt x="256" y="78" on="1"/>
        <pt x="140" y="78" on="1"/>
        <pt x="50" y="78" on="0"/>
        <pt x="50" y="167" on="1"/>
        <pt x="50" y="397" on="1"/>
        <pt x="50" y="441" on="0"/>
        <pt x="94" y="482" on="0"/>
        <pt x="142" y="482" on="1"/>
        <pt x="246" y="482" on="1"/>
        <pt x="246" y="414" on="1"/>
        <pt x="171" y="414" on="1"/>
        <pt x="292" y="197" on="1"/>
        <pt x="286" y="222" on="0"/>
      </contour>
      <contour>
        <pt x="169" y="148" on="1"/>
        <pt x="258" y="148" on="1"/>
        <pt x="266" y="148" on="0"/>
        <pt x="270" y="149" on="1"/>
        <pt x="193" y="281" on="1"/>
        <pt x="181" y="304" on="0"/>
        <pt x="142" y="379" on="0"/>
        <pt x="140" y="382" on="1"/>
        <pt x="140" y="178" on="1"/>
        <pt x="140" y="160" on="0"/>
        <pt x="152" y="148" on="0"/>
      </contour>
      <contour>
        <pt x="463" y="412" on="1"/>
        <pt x="406" y="412" on="1"/>
        <pt x="388" y="412" on="0"/>
        <pt x="377" y="401" on="0"/>
        <pt x="377" y="383" on="1"/>
        <pt x="377" y="178" on="1"/>
        <pt x="377" y="160" on="0"/>
        <pt x="388" y="148" on="0"/>
        <pt x="406" y="148" on="1"/>
        <pt x="433" y="148" on="1"/>
        <pt x="451" y="148" on="0"/>
        <pt x="463" y="159" on="0"/>
        <pt x="463" y="178" on="1"/>
      </contour>
    </TTGlyph>
    <TTGlyph name="dvCH_N" xMin="-20" yMin="-391" xMax="563" yMax="626">
      <contour>
        <pt x="-20" y="626" on="1"/>
        <pt x="563" y="626" on="1"/>
        <pt x="563" y="556" on="1"/>
        <pt x="419" y="556" on="1"/>
        <pt x="419" y="481" on="1"/>
        <pt x="497" y="476" on="0"/>
        <pt x="497" y="397" on="1"/>
        <pt x="497" y="89" on="1"/>
        <pt x="497" y="0" on="0"/>
        <pt x="400" y="0" on="1"/>
        <pt x="394" y="0" on="1"/>
        <pt x="394" y="-231" on="1"/>
        <pt x="315" y="-231" on="1"/>
        <pt x="315" y="-128" on="1"/>
        <pt x="247" y="-128" on="1"/>
        <pt x="230" y="-128" on="0"/>
        <pt x="218" y="-139" on="0"/>
        <pt x="218" y="-157" on="1"/>
        <pt x="218" y="-186" on="1"/>
        <pt x="138" y="-186" on="1"/>
        <pt x="138" y="-145" on="1"/>
        <pt x="138" y="-60" on="0"/>
        <pt x="225" y="-60" on="1"/>
        <pt x="315" y="-60" on="1"/>
        <pt x="315" y="0" on="1"/>
        <pt x="147" y="0" on="1"/>
        <pt x="51" y="0" on="0"/>
        <pt x="51" y="89" on="1"/>
        <pt x="51" y="260" on="1"/>
        <pt x="51" y="303" on="0"/>
        <pt x="90" y="308" on="1"/>
        <pt x="90" y="310" on="1"/>
        <pt x="51" y="315" on="0"/>
        <pt x="51" y="359" on="1"/>
        <pt x="51" y="530" on="1"/>
        <pt x="51" y="546" on="0"/>
        <pt x="58" y="556" on="1"/>
        <pt x="-20" y="556" on="1"/>
      </contour>
      <contour>
        <pt x="335" y="556" on="1"/>
        <pt x="189" y="556" on="1"/>
        <pt x="196" y="555" on="1"/>
        <pt x="159" y="557" on="0"/>
        <pt x="141" y="548" on="0"/>
        <pt x="141" y="524" on="1"/>
        <pt x="141" y="375" on="1"/>
        <pt x="141" y="356" on="0"/>
        <pt x="152" y="345" on="0"/>
        <pt x="170" y="345" on="1"/>
        <pt x="206" y="345" on="1"/>
        <pt x="206" y="275" on="1"/>
        <pt x="170" y="275" on="1"/>
        <pt x="152" y="275" on="0"/>
        <pt x="141" y="264" on="0"/>
        <pt x="141" y="245" on="1"/>
        <pt x="141" y="100" on="1"/>
        <pt x="141" y="82" on="0"/>
        <pt x="152" y="71" on="0"/>
        <pt x="170" y="71" on="1"/>
        <pt x="381" y="71" on="1"/>
        <pt x="399" y="71" on="0"/>
        <pt x="410" y="82" on="0"/>
        <pt x="410" y="100" on="1"/>
        <pt x="410" y="387" on="1"/>
        <pt x="410" y="405" on="0"/>
        <pt x="399" y="416" on="0"/>
        <pt x="381" y="416" on="1"/>
        <pt x="362" y="416" on="1"/>
        <pt x="344" y="416" on="0"/>
        <pt x="333" y="405" on="0"/>
        <pt x="333" y="387" on="1"/>
        <pt x="333" y="275" on="1"/>
        <pt x="333" y="257" on="0"/>
        <pt x="344" y="246" on="0"/>
        <pt x="362" y="246" on="1"/>
        <pt x="380" y="246" on="1"/>
        <pt x="380" y="180" on="1"/>
        <pt x="343" y="180" on="1"/>
        <pt x="255" y="180" on="0"/>
        <pt x="255" y="265" on="1"/>
        <pt x="255" y="397" on="1"/>
        <pt x="255" y="476" on="0"/>
        <pt x="335" y="482" on="1"/>
      </contour>
      <contour>
        <pt x="307" y="-257" on="1"/>
        <pt x="402" y="-257" on="1"/>
        <pt x="508" y="-391" on="1"/>
        <pt x="413" y="-391" on="1"/>
      </contour>
    </TTGlyph>
    <TTGlyph name="dvC_N" xMin="-20" yMin="78" xMax="643" yMax="626">
      <contour>
        <pt x="-20" y="626" on="1"/>
        <pt x="643" y="626" on="1"/>
        <pt x="643" y="556" on="1"/>
        <pt x="-20" y="556" on="1"/>
      </contour>
      <contour>
        <pt x="272" y="182" on="1"/>
        <pt x="272" y="397" on="1"/>
        <pt x="272" y="441" on="0"/>
        <pt x="316" y="482" on="0"/>
        <pt x="364" y="482" on="1"/>
        <pt x="643" y="482" on="1"/>
        <pt x="643" y="412" on="1"/>
        <pt x="539" y="412" on="1"/>
        <pt x="539" y="167" on="1"/>
        <pt x="539" y="121" on="0"/>
        <pt x="493" y="78" on="0"/>
        <pt x="443" y="78" on="1"/>
        <pt x="368" y="78" on="1"/>
        <pt x="321" y="78" on="0"/>
        <pt x="296" y="98" on="1"/>
        <pt x="287" y="78" on="0"/>
        <pt x="254" y="78" on="1"/>
        <pt x="153" y="78" on="1"/>
        <pt x="63" y="78" on="0"/>
        <pt x="63" y="167" on="1"/>
        <pt x="63" y="380" on="1"/>
        <pt x="63" y="403" on="0"/>
        <pt x="74" y="412" on="1"/>
        <pt x="1" y="412" on="1"/>
        <pt x="1" y="482" on="1"/>
        <pt x="220" y="482" on="1"/>
        <pt x="220" y="412" on="1"/>
        <pt x="183" y="412" on="1"/>
        <pt x="165" y="411" on="0"/>
        <pt x="153" y="400" on="0"/>
        <pt x="153" y="382" on="1"/>
        <pt x="153" y="178" on="1"/>
        <pt x="153" y="160" on="0"/>
        <pt x="164" y="148" on="0"/>
        <pt x="182" y="148" on="1"/>
        <pt x="238" y="148" on="1"/>
        <pt x="258" y="148" on="0"/>
        <pt x="272" y="162" on="0"/>
      </contour>
      <contour>
        <pt x="449" y="412" on="1"/>
        <pt x="392" y="412" on="1"/>
        <pt x="374" y="412" on="0"/>
        <pt x="362" y="401" on="0"/>
        <pt x="362" y="383" on="1"/>
        <pt x="362" y="178" on="1"/>
        <pt x="362" y="159" on="0"/>
        <pt x="374" y="148" on="0"/>
        <pt x="392" y="148" on="1"/>
        <pt x="419" y="148" on="1"/>
        <pt x="437" y="148" on="0"/>
        <pt x="449" y="159" on="0"/>
        <pt x="449" y="178" on="1"/>
      </contour>
    </TTGlyph>
    <TTGlyph name="dvDDH_DDHA" xMin="-20" yMin="-174" xMax="426" yMax="626">
      <contour>
        <pt x="317" y="412" on="1"/>
        <pt x="172" y="412" on="1"/>
        <pt x="154" y="412" on="0"/>
        <pt x="142" y="401" on="0"/>
        <pt x="142" y="382" on="1"/>
        <pt x="142" y="221" on="1"/>
        <pt x="142" y="202" on="0"/>
        <pt x="154" y="191" on="0"/>
        <pt x="172" y="191" on="1"/>
        <pt x="255" y="191" on="1"/>
        <pt x="273" y="191" on="0"/>
        <pt x="285" y="202" on="0"/>
        <pt x="285" y="221" on="1"/>
        <pt x="285" y="242" on="1"/>
        <pt x="285" y="261" on="0"/>
        <pt x="273" y="272" on="0"/>
        <pt x="255" y="272" on="1"/>
        <pt x="192" y="272" on="1"/>
        <pt x="192" y="342" on="1"/>
        <pt x="279" y="342" on="1"/>
        <pt x="329" y="342" on="0"/>
        <pt x="375" y="300" on="0"/>
        <pt x="375" y="253" on="1"/>
        <pt x="375" y="210" on="1"/>
        <pt x="375" y="164" on="0"/>
        <pt x="329" y="121" on="0"/>
        <pt x="279" y="121" on="1"/>
        <pt x="171" y="121" on="1"/>
        <pt x="154" y="121" on="0"/>
        <pt x="142" y="110" on="0"/>
        <pt x="142" y="92" on="1"/>
        <pt x="142" y="-74" on="1"/>
        <pt x="142" y="-93" on="0"/>
        <pt x="154" y="-104" on="0"/>
        <pt x="172" y="-104" on="1"/>
        <pt x="255" y="-104" on="1"/>
        <pt x="273" y="-104" on="0"/>
        <pt x="285" y="-93" on="0"/>
        <pt x="285" y="-74" on="1"/>
        <pt x="285" y="-56" on="1"/>
        <pt x="285" y="-38" on="0"/>
        <pt x="273" y="-27" on="0"/>
        <pt x="255" y="-27" on="1"/>
        <pt x="192" y="-27" on="1"/>
        <pt x="192" y="43" on="1"/>
        <pt x="279" y="43" on="1"/>
        <pt x="329" y="43" on="0"/>
        <pt x="375" y="1" on="0"/>
        <pt x="375" y="-46" on="1"/>
        <pt x="375" y="-85" on="1"/>
        <pt x="375" y="-131" on="0"/>
        <pt x="329" y="-174" on="0"/>
        <pt x="279" y="-174" on="1"/>
        <pt x="148" y="-174" on="1"/>
        <pt x="98" y="-174" on="0"/>
        <pt x="52" y="-131" on="0"/>
        <pt x="52" y="-85" on="1"/>
        <pt x="52" y="93" on="1"/>
        <pt x="52" y="139" on="0"/>
        <pt x="91" y="142" on="1"/>
        <pt x="91" y="145" on="1"/>
        <pt x="52" y="148" on="0"/>
        <pt x="52" y="196" on="1"/>
        <pt x="52" y="397" on="1"/>
        <pt x="52" y="441" on="0"/>
        <pt x="96" y="482" on="0"/>
        <pt x="144" y="482" on="1"/>
        <pt x="227" y="482" on="1"/>
        <pt x="227" y="556" on="1"/>
        <pt x="-20" y="556" on="1"/>
        <pt x="-20" y="626" on="1"/>
        <pt x="426" y="626" on="1"/>
        <pt x="426" y="556" on="1"/>
        <pt x="317" y="556" on="1"/>
      </contour>
    </TTGlyph>
    <TTGlyph name="dvDD_GA" xMin="-20" yMin="-175" xMax="396" yMax="626">
      <contour>
        <pt x="307" y="414" on="1"/>
        <pt x="174" y="414" on="1"/>
        <pt x="156" y="414" on="0"/>
        <pt x="145" y="403" on="0"/>
        <pt x="145" y="385" on="1"/>
        <pt x="145" y="325" on="1"/>
        <pt x="145" y="308" on="0"/>
        <pt x="156" y="297" on="0"/>
        <pt x="174" y="297" on="1"/>
        <pt x="228" y="297" on="1"/>
        <pt x="276" y="297" on="0"/>
        <pt x="320" y="255" on="0"/>
        <pt x="320" y="212" on="1"/>
        <pt x="320" y="85" on="1"/>
        <pt x="320" y="33" on="0"/>
        <pt x="288" y="13" on="1"/>
        <pt x="288" y="-175" on="1"/>
        <pt x="209" y="-175" on="1"/>
        <pt x="209" y="0" on="1"/>
        <pt x="156" y="0" on="1"/>
        <pt x="156" y="-64" on="1"/>
        <pt x="156" y="-133" on="0"/>
        <pt x="84" y="-133" on="1"/>
        <pt x="34" y="-133" on="1"/>
        <pt x="34" y="-77" on="1"/>
        <pt x="53" y="-77" on="1"/>
        <pt x="68" y="-77" on="0"/>
        <pt x="77" y="-67" on="0"/>
        <pt x="77" y="-53" on="1"/>
        <pt x="77" y="13" on="1"/>
        <pt x="44" y="32" on="0"/>
        <pt x="44" y="85" on="1"/>
        <pt x="44" y="164" on="1"/>
        <pt x="134" y="164" on="1"/>
        <pt x="134" y="97" on="1"/>
        <pt x="134" y="79" on="0"/>
        <pt x="145" y="68" on="0"/>
        <pt x="162" y="68" on="1"/>
        <pt x="201" y="68" on="1"/>
        <pt x="218" y="68" on="0"/>
        <pt x="230" y="79" on="0"/>
        <pt x="230" y="97" on="1"/>
        <pt x="230" y="200" on="1"/>
        <pt x="230" y="217" on="0"/>
        <pt x="218" y="228" on="0"/>
        <pt x="201" y="228" on="1"/>
        <pt x="146" y="228" on="1"/>
        <pt x="99" y="228" on="0"/>
        <pt x="55" y="270" on="0"/>
        <pt x="55" y="313" on="1"/>
        <pt x="55" y="397" on="1"/>
        <pt x="55" y="441" on="0"/>
        <pt x="98" y="482" on="0"/>
        <pt x="146" y="482" on="1"/>
        <pt x="217" y="482" on="1"/>
        <pt x="217" y="556" on="1"/>
        <pt x="-20" y="556" on="1"/>
        <pt x="-20" y="626" on="1"/>
        <pt x="396" y="626" on="1"/>
        <pt x="396" y="556" on="1"/>
        <pt x="307" y="556" on="1"/>
      </contour>
    </TTGlyph>
    <TTGlyph name="dvDD_N" xMin="-20" yMin="-391" xMax="404" yMax="626">
      <contour>
        <pt x="298" y="-257" on="1"/>
        <pt x="404" y="-391" on="1"/>
        <pt x="309" y="-391" on="1"/>
        <pt x="203" y="-257" on="1"/>
      </contour>
      <contour>
        <pt x="211" y="-231" on="1"/>
        <pt x="211" y="-128" on="1"/>
        <pt x="174" y="-128" on="1"/>
        <pt x="156" y="-128" on="0"/>
        <pt x="144" y="-139" on="0"/>
        <pt x="144" y="-157" on="1"/>
        <pt x="144" y="-186" on="1"/>
        <pt x="64" y="-186" on="1"/>
        <pt x="64" y="-145" on="1"/>
        <pt x="64" y="-60" on="0"/>
        <pt x="151" y="-60" on="1"/>
        <pt x="211" y="-60" on="1"/>
        <pt x="211" y="0" on="1"/>
        <pt x="136" y="0" on="1"/>
        <pt x="88" y="0" on="0"/>
        <pt x="44" y="42" on="0"/>
        <pt x="44" y="85" on="1"/>
        <pt x="44" y="164" on="1"/>
        <pt x="134" y="164" on="1"/>
        <pt x="134" y="97" on="1"/>
        <pt x="134" y="79" on="0"/>
        <pt x="145" y="68" on="0"/>
        <pt x="162" y="68" on="1"/>
        <pt x="201" y="68" on="1"/>
        <pt x="218" y="68" on="0"/>
        <pt x="230" y="79" on="0"/>
        <pt x="230" y="97" on="1"/>
        <pt x="230" y="200" on="1"/>
        <pt x="230" y="217" on="0"/>
        <pt x="218" y="228" on="0"/>
        <pt x="201" y="228" on="1"/>
        <pt x="146" y="228" on="1"/>
        <pt x="99" y="228" on="0"/>
        <pt x="55" y="270" on="0"/>
        <pt x="55" y="313" on="1"/>
        <pt x="55" y="397" on="1"/>
        <pt x="55" y="441" on="0"/>
        <pt x="98" y="482" on="0"/>
        <pt x="146" y="482" on="1"/>
        <pt x="217" y="482" on="1"/>
        <pt x="217" y="556" on="1"/>
        <pt x="-20" y="556" on="1"/>
        <pt x="-20" y="626" on="1"/>
        <pt x="396" y="626" on="1"/>
        <pt x="396" y="556" on="1"/>
        <pt x="307" y="556" on="1"/>
        <pt x="307" y="414" on="1"/>
        <pt x="174" y="414" on="1"/>
        <pt x="156" y="414" on="0"/>
        <pt x="145" y="403" on="0"/>
        <pt x="145" y="385" on="1"/>
        <pt x="145" y="325" on="1"/>
        <pt x="145" y="308" on="0"/>
        <pt x="156" y="297" on="0"/>
        <pt x="174" y="297" on="1"/>
        <pt x="228" y="297" on="1"/>
        <pt x="276" y="297" on="0"/>
        <pt x="320" y="255" on="0"/>
        <pt x="320" y="212" on="1"/>
        <pt x="320" y="85" on="1"/>
        <pt x="320" y="35" on="0"/>
        <pt x="291" y="15" on="1"/>
        <pt x="291" y="-231" on="1"/>
      </contour>
    </TTGlyph>
    <TTGlyph name="dvDH_N" xMin="67" yMin="78" xMax="732" yMax="631">
      <contour>
        <pt x="337" y="626" on="1"/>
        <pt x="732" y="626" on="1"/>
        <pt x="732" y="556" on="1"/>
        <pt x="337" y="556" on="1"/>
      </contour>
      <contour>
        <pt x="337" y="182" on="1"/>
        <pt x="337" y="397" on="1"/>
        <pt x="337" y="441" on="0"/>
        <pt x="381" y="482" on="0"/>
        <pt x="429" y="482" on="1"/>
        <pt x="732" y="482" on="1"/>
        <pt x="732" y="412" on="1"/>
        <pt x="604" y="412" on="1"/>
        <pt x="604" y="167" on="1"/>
        <pt x="604" y="121" on="0"/>
        <pt x="558" y="78" on="0"/>
        <pt x="508" y="78" on="1"/>
        <pt x="434" y="78" on="1"/>
        <pt x="385" y="78" on="0"/>
        <pt x="361" y="99" on="1"/>
        <pt x="353" y="78" on="0"/>
        <pt x="319" y="78" on="1"/>
        <pt x="157" y="78" on="1"/>
        <pt x="67" y="78" on="0"/>
        <pt x="67" y="163" on="1"/>
        <pt x="67" y="294" on="1"/>
        <pt x="67" y="337" on="0"/>
        <pt x="106" y="342" on="1"/>
        <pt x="106" y="344" on="1"/>
        <pt x="67" y="349" on="0"/>
        <pt x="67" y="393" on="1"/>
        <pt x="67" y="547" on="1"/>
        <pt x="67" y="631" on="0"/>
        <pt x="157" y="631" on="1"/>
        <pt x="196" y="631" on="1"/>
        <pt x="286" y="631" on="0"/>
        <pt x="286" y="547" on="1"/>
        <pt x="286" y="489" on="1"/>
        <pt x="226" y="489" on="1"/>
        <pt x="226" y="532" on="1"/>
        <pt x="226" y="550" on="0"/>
        <pt x="214" y="561" on="0"/>
        <pt x="196" y="561" on="1"/>
        <pt x="187" y="561" on="1"/>
        <pt x="169" y="561" on="0"/>
        <pt x="158" y="550" on="0"/>
        <pt x="158" y="532" on="1"/>
        <pt x="158" y="409" on="1"/>
        <pt x="158" y="390" on="0"/>
        <pt x="169" y="379" on="0"/>
        <pt x="187" y="379" on="1"/>
        <pt x="255" y="379" on="1"/>
        <pt x="255" y="309" on="1"/>
        <pt x="187" y="309" on="1"/>
        <pt x="169" y="309" on="0"/>
        <pt x="158" y="298" on="0"/>
        <pt x="158" y="279" on="1"/>
        <pt x="158" y="178" on="1"/>
        <pt x="158" y="159" on="0"/>
        <pt x="169" y="148" on="0"/>
        <pt x="187" y="148" on="1"/>
        <pt x="303" y="148" on="1"/>
        <pt x="322" y="148" on="0"/>
        <pt x="337" y="162" on="0"/>
      </contour>
      <contour>
        <pt x="514" y="412" on="1"/>
        <pt x="457" y="412" on="1"/>
        <pt x="439" y="412" on="0"/>
        <pt x="428" y="401" on="0"/>
        <pt x="428" y="383" on="1"/>
        <pt x="428" y="178" on="1"/>
        <pt x="428" y="160" on="0"/>
        <pt x="440" y="148" on="0"/>
        <pt x="457" y="148" on="1"/>
        <pt x="484" y="148" on="1"/>
        <pt x="502" y="148" on="0"/>
        <pt x="514" y="159" on="0"/>
        <pt x="514" y="178" on="1"/>
      </contour>
    </TTGlyph>
    <TTGlyph name="dvD_N" xMin="-23" yMin="-315" xMax="438" yMax="626">
      <contour>
        <pt x="332" y="-181" on="1"/>
        <pt x="438" y="-315" on="1"/>
        <pt x="343" y="-315" on="1"/>
        <pt x="237" y="-181" on="1"/>
      </contour>
      <contour>
        <pt x="241" y="-154" on="1"/>
        <pt x="241" y="-50" on="1"/>
        <pt x="193" y="-50" on="1"/>
        <pt x="175" y="-50" on="0"/>
        <pt x="163" y="-61" on="0"/>
        <pt x="163" y="-80" on="1"/>
        <pt x="163" y="-109" on="1"/>
        <pt x="84" y="-109" on="1"/>
        <pt x="84" y="-68" on="1"/>
        <pt x="84" y="17" on="0"/>
        <pt x="170" y="17" on="1"/>
        <pt x="241" y="17" on="1"/>
        <pt x="241" y="88" on="1"/>
        <pt x="230" y="78" on="0"/>
        <pt x="205" y="78" on="1"/>
        <pt x="145" y="78" on="1"/>
        <pt x="95" y="78" on="0"/>
        <pt x="49" y="121" on="0"/>
        <pt x="49" y="167" on="1"/>
        <pt x="49" y="397" on="1"/>
        <pt x="49" y="441" on="0"/>
        <pt x="93" y="482" on="0"/>
        <pt x="141" y="482" on="1"/>
        <pt x="232" y="482" on="1"/>
        <pt x="232" y="556" on="1"/>
        <pt x="-23" y="556" on="1"/>
        <pt x="-23" y="626" on="1"/>
        <pt x="394" y="626" on="1"/>
        <pt x="394" y="556" on="1"/>
        <pt x="322" y="556" on="1"/>
        <pt x="322" y="412" on="1"/>
        <pt x="169" y="412" on="1"/>
        <pt x="151" y="412" on="0"/>
        <pt x="139" y="401" on="0"/>
        <pt x="139" y="382" on="1"/>
        <pt x="139" y="178" on="1"/>
        <pt x="139" y="160" on="0"/>
        <pt x="150" y="148" on="0"/>
        <pt x="168" y="148" on="1"/>
        <pt x="210" y="148" on="1"/>
        <pt x="227" y="148" on="0"/>
        <pt x="241" y="162" on="0"/>
        <pt x="241" y="180" on="1"/>
        <pt x="241" y="271" on="1"/>
        <pt x="327" y="271" on="1"/>
        <pt x="327" y="-154" on="1"/>
      </contour>
    </TTGlyph>
    <TTGlyph name="dvGH_N" xMin="-20" yMin="78" xMax="667" yMax="626">
      <contour>
        <pt x="667" y="556" on="1"/>
        <pt x="181" y="556" on="1"/>
        <pt x="152" y="556" on="0"/>
        <pt x="137" y="546" on="0"/>
        <pt x="137" y="524" on="1"/>
        <pt x="137" y="416" on="1"/>
        <pt x="137" y="398" on="0"/>
        <pt x="148" y="387" on="0"/>
        <pt x="166" y="387" on="1"/>
        <pt x="227" y="387" on="1"/>
        <pt x="227" y="316" on="1"/>
        <pt x="166" y="316" on="1"/>
        <pt x="148" y="316" on="0"/>
        <pt x="137" y="305" on="0"/>
        <pt x="137" y="287" on="1"/>
        <pt x="137" y="178" on="1"/>
        <pt x="137" y="159" on="0"/>
        <pt x="148" y="148" on="0"/>
        <pt x="166" y="148" on="1"/>
        <pt x="264" y="148" on="1"/>
        <pt x="284" y="148" on="0"/>
        <pt x="298" y="162" on="0"/>
        <pt x="298" y="182" on="1"/>
        <pt x="298" y="397" on="1"/>
        <pt x="298" y="441" on="0"/>
        <pt x="342" y="482" on="0"/>
        <pt x="390" y="482" on="1"/>
        <pt x="667" y="482" on="1"/>
        <pt x="667" y="412" on="1"/>
        <pt x="565" y="412" on="1"/>
        <pt x="565" y="167" on="1"/>
        <pt x="565" y="121" on="0"/>
        <pt x="519" y="78" on="0"/>
        <pt x="469" y="78" on="1"/>
        <pt x="395" y="78" on="1"/>
        <pt x="346" y="78" on="0"/>
        <pt x="322" y="99" on="1"/>
        <pt x="314" y="78" on="0"/>
        <pt x="280" y="78" on="1"/>
        <pt x="143" y="78" on="1"/>
        <pt x="46" y="78" on="0"/>
        <pt x="46" y="167" on="1"/>
        <pt x="46" y="301" on="1"/>
        <pt x="46" y="346" on="0"/>
        <pt x="85" y="349" on="1"/>
        <pt x="85" y="352" on="1"/>
        <pt x="46" y="355" on="0"/>
        <pt x="46" y="401" on="1"/>
        <pt x="46" y="526" on="1"/>
        <pt x="46" y="547" on="0"/>
        <pt x="57" y="556" on="1"/>
        <pt x="-20" y="556" on="1"/>
        <pt x="-20" y="626" on="1"/>
        <pt x="667" y="626" on="1"/>
      </contour>
      <contour>
        <pt x="389" y="383" on="1"/>
        <pt x="389" y="178" on="1"/>
        <pt x="389" y="160" on="0"/>
        <pt x="400" y="148" on="0"/>
        <pt x="418" y="148" on="1"/>
        <pt x="445" y="148" on="1"/>
        <pt x="463" y="148" on="0"/>
        <pt x="475" y="159" on="0"/>
        <pt x="475" y="178" on="1"/>
        <pt x="475" y="412" on="1"/>
        <pt x="418" y="412" on="1"/>
        <pt x="400" y="412" on="0"/>
        <pt x="389" y="401" on="0"/>
      </contour>
    </TTGlyph>
    <TTGlyph name="dvG_N" xMin="-20" yMin="78" xMax="797" yMax="626">
      <contour>
        <pt x="797" y="626" on="1"/>
        <pt x="797" y="556" on="1"/>
        <pt x="316" y="556" on="1"/>
        <pt x="316" y="167" on="1"/>
        <pt x="316" y="121" on="0"/>
        <pt x="270" y="78" on="0"/>
        <pt x="220" y="78" on="1"/>
        <pt x="130" y="78" on="1"/>
        <pt x="80" y="78" on="0"/>
        <pt x="34" y="121" on="0"/>
        <pt x="34" y="167" on="1"/>
        <pt x="34" y="349" on="1"/>
        <pt x="34" y="436" on="0"/>
        <pt x="134" y="436" on="1"/>
        <pt x="226" y="436" on="1"/>
        <pt x="226" y="556" on="1"/>
        <pt x="-20" y="556" on="1"/>
        <pt x="-20" y="626" on="1"/>
      </contour>
      <contour>
        <pt x="153" y="148" on="1"/>
        <pt x="196" y="148" on="1"/>
        <pt x="214" y="148" on="0"/>
        <pt x="226" y="159" on="0"/>
        <pt x="226" y="178" on="1"/>
        <pt x="226" y="365" on="1"/>
        <pt x="155" y="365" on="1"/>
        <pt x="136" y="365" on="0"/>
        <pt x="124" y="354" on="0"/>
        <pt x="124" y="334" on="1"/>
        <pt x="124" y="178" on="1"/>
        <pt x="124" y="160" on="0"/>
        <pt x="136" y="148" on="0"/>
      </contour>
      <contour>
        <pt x="407" y="167" on="1"/>
        <pt x="407" y="397" on="1"/>
        <pt x="407" y="441" on="0"/>
        <pt x="451" y="482" on="0"/>
        <pt x="499" y="482" on="1"/>
        <pt x="797" y="482" on="1"/>
        <pt x="797" y="412" on="1"/>
        <pt x="674" y="412" on="1"/>
        <pt x="674" y="167" on="1"/>
        <pt x="674" y="121" on="0"/>
        <pt x="627" y="78" on="0"/>
        <pt x="577" y="78" on="1"/>
        <pt x="503" y="78" on="1"/>
        <pt x="453" y="78" on="0"/>
        <pt x="407" y="121" on="0"/>
      </contour>
      <contour>
        <pt x="583" y="412" on="1"/>
        <pt x="526" y="412" on="1"/>
        <pt x="509" y="412" on="0"/>
        <pt x="497" y="401" on="0"/>
        <pt x="497" y="383" on="1"/>
        <pt x="497" y="178" on="1"/>
        <pt x="497" y="159" on="0"/>
        <pt x="509" y="148" on="0"/>
        <pt x="527" y="148" on="1"/>
        <pt x="554" y="148" on="1"/>
        <pt x="572" y="148" on="0"/>
        <pt x="583" y="160" on="0"/>
        <pt x="583" y="178" on="1"/>
      </contour>
    </TTGlyph>
    <TTGlyph name="dvJH_N" xMin="-24" yMin="-13" xMax="797" yMax="626">
      <contour>
        <pt x="314" y="414" on="1"/>
        <pt x="158" y="414" on="1"/>
        <pt x="140" y="414" on="0"/>
        <pt x="129" y="403" on="0"/>
        <pt x="129" y="385" on="1"/>
        <pt x="129" y="349" on="1"/>
        <pt x="129" y="331" on="0"/>
        <pt x="140" y="320" on="0"/>
        <pt x="158" y="320" on="1"/>
        <pt x="407" y="320" on="1"/>
        <pt x="407" y="397" on="1"/>
        <pt x="407" y="441" on="0"/>
        <pt x="451" y="482" on="0"/>
        <pt x="499" y="482" on="1"/>
        <pt x="797" y="482" on="1"/>
        <pt x="797" y="412" on="1"/>
        <pt x="674" y="412" on="1"/>
        <pt x="674" y="167" on="1"/>
        <pt x="674" y="121" on="0"/>
        <pt x="627" y="78" on="0"/>
        <pt x="577" y="78" on="1"/>
        <pt x="503" y="78" on="1"/>
        <pt x="453" y="78" on="0"/>
        <pt x="407" y="121" on="0"/>
        <pt x="407" y="167" on="1"/>
        <pt x="407" y="252" on="1"/>
        <pt x="322" y="252" on="1"/>
        <pt x="324" y="238" on="0"/>
        <pt x="324" y="231" on="1"/>
        <pt x="324" y="147" on="1"/>
        <pt x="324" y="103" on="0"/>
        <pt x="280" y="62" on="0"/>
        <pt x="232" y="62" on="1"/>
        <pt x="130" y="62" on="1"/>
        <pt x="130" y="-13" on="1"/>
        <pt x="40" y="-13" on="1"/>
        <pt x="40" y="185" on="1"/>
        <pt x="130" y="185" on="1"/>
        <pt x="130" y="130" on="1"/>
        <pt x="204" y="130" on="1"/>
        <pt x="222" y="130" on="0"/>
        <pt x="234" y="141" on="0"/>
        <pt x="234" y="159" on="1"/>
        <pt x="234" y="223" on="1"/>
        <pt x="234" y="241" on="0"/>
        <pt x="222" y="252" on="0"/>
        <pt x="204" y="252" on="1"/>
        <pt x="130" y="252" on="1"/>
        <pt x="82" y="252" on="0"/>
        <pt x="39" y="293" on="0"/>
        <pt x="39" y="337" on="1"/>
        <pt x="39" y="397" on="1"/>
        <pt x="39" y="441" on="0"/>
        <pt x="82" y="482" on="0"/>
        <pt x="130" y="482" on="1"/>
        <pt x="223" y="482" on="1"/>
        <pt x="223" y="556" on="1"/>
        <pt x="-24" y="556" on="1"/>
        <pt x="-24" y="626" on="1"/>
        <pt x="797" y="626" on="1"/>
        <pt x="797" y="556" on="1"/>
        <pt x="314" y="556" on="1"/>
      </contour>
      <contour>
        <pt x="497" y="383" on="1"/>
        <pt x="497" y="178" on="1"/>
        <pt x="497" y="159" on="0"/>
        <pt x="509" y="148" on="0"/>
        <pt x="527" y="148" on="1"/>
        <pt x="554" y="148" on="1"/>
        <pt x="572" y="148" on="0"/>
        <pt x="583" y="160" on="0"/>
        <pt x="583" y="178" on="1"/>
        <pt x="583" y="412" on="1"/>
        <pt x="526" y="412" on="1"/>
        <pt x="509" y="412" on="0"/>
        <pt x="497" y="401" on="0"/>
      </contour>
    </TTGlyph>
    <TTGlyph name="dvJ_N" xMin="-20" yMin="78" xMax="795" yMax="626">
      <contour>
        <pt x="-20" y="626" on="1"/>
        <pt x="795" y="626" on="1"/>
        <pt x="795" y="556" on="1"/>
        <pt x="-20" y="556" on="1"/>
      </contour>
      <contour>
        <pt x="795" y="482" on="1"/>
        <pt x="795" y="412" on="1"/>
        <pt x="671" y="412" on="1"/>
        <pt x="671" y="167" on="1"/>
        <pt x="671" y="121" on="0"/>
        <pt x="625" y="78" on="0"/>
        <pt x="575" y="78" on="1"/>
        <pt x="501" y="78" on="1"/>
        <pt x="451" y="78" on="0"/>
        <pt x="405" y="121" on="0"/>
        <pt x="405" y="167" on="1"/>
        <pt x="405" y="397" on="1"/>
        <pt x="405" y="407" on="0"/>
        <pt x="406" y="412" on="1"/>
        <pt x="314" y="412" on="1"/>
        <pt x="314" y="167" on="1"/>
        <pt x="314" y="121" on="0"/>
        <pt x="268" y="78" on="0"/>
        <pt x="218" y="78" on="1"/>
        <pt x="140" y="78" on="1"/>
        <pt x="90" y="78" on="0"/>
        <pt x="44" y="121" on="0"/>
        <pt x="44" y="167" on="1"/>
        <pt x="44" y="482" on="1"/>
        <pt x="134" y="482" on="1"/>
        <pt x="134" y="178" on="1"/>
        <pt x="134" y="159" on="0"/>
        <pt x="146" y="148" on="0"/>
        <pt x="164" y="148" on="1"/>
        <pt x="195" y="148" on="1"/>
        <pt x="212" y="148" on="0"/>
        <pt x="224" y="160" on="0"/>
        <pt x="224" y="178" on="1"/>
        <pt x="224" y="482" on="1"/>
      </contour>
      <contour>
        <pt x="581" y="412" on="1"/>
        <pt x="524" y="412" on="1"/>
        <pt x="506" y="412" on="0"/>
        <pt x="495" y="401" on="0"/>
        <pt x="495" y="383" on="1"/>
        <pt x="495" y="178" on="1"/>
        <pt x="495" y="159" on="0"/>
        <pt x="507" y="148" on="0"/>
        <pt x="525" y="148" on="1"/>
        <pt x="551" y="148" on="1"/>
        <pt x="569" y="148" on="0"/>
        <pt x="581" y="159" on="0"/>
        <pt x="581" y="178" on="1"/>
      </contour>
    </TTGlyph>
    <TTGlyph name="dvKH_N" xMin="-20" yMin="0" xMax="927" yMax="626">
      <contour>
        <pt x="-20" y="626" on="1"/>
        <pt x="927" y="626" on="1"/>
        <pt x="927" y="556" on="1"/>
        <pt x="282" y="556" on="1"/>
        <pt x="290" y="548" on="0"/>
        <pt x="290" y="530" on="1"/>
        <pt x="290" y="329" on="1"/>
        <pt x="290" y="243" on="0"/>
        <pt x="198" y="243" on="1"/>
        <pt x="137" y="243" on="1"/>
        <pt x="137" y="104" on="1"/>
        <pt x="137" y="84" on="0"/>
        <pt x="148" y="73" on="0"/>
        <pt x="168" y="73" on="1"/>
        <pt x="389" y="73" on="1"/>
        <pt x="389" y="0" on="1"/>
        <pt x="147" y="0" on="1"/>
        <pt x="95" y="0" on="0"/>
        <pt x="46" y="42" on="0"/>
        <pt x="46" y="87" on="1"/>
        <pt x="46" y="471" on="1"/>
        <pt x="137" y="471" on="1"/>
        <pt x="137" y="313" on="1"/>
        <pt x="168" y="313" on="1"/>
        <pt x="188" y="313" on="0"/>
        <pt x="200" y="326" on="0"/>
        <pt x="200" y="345" on="1"/>
        <pt x="200" y="524" on="1"/>
        <pt x="200" y="544" on="0"/>
        <pt x="188" y="556" on="0"/>
        <pt x="168" y="556" on="1"/>
        <pt x="-20" y="556" on="1"/>
      </contour>
      <contour>
        <pt x="518" y="217" on="1"/>
        <pt x="518" y="397" on="1"/>
        <pt x="518" y="441" on="0"/>
        <pt x="562" y="482" on="0"/>
        <pt x="610" y="482" on="1"/>
        <pt x="927" y="482" on="1"/>
        <pt x="927" y="412" on="1"/>
        <pt x="785" y="412" on="1"/>
        <pt x="785" y="167" on="1"/>
        <pt x="785" y="121" on="0"/>
        <pt x="738" y="78" on="0"/>
        <pt x="688" y="78" on="1"/>
        <pt x="614" y="78" on="1"/>
        <pt x="542" y="78" on="0"/>
        <pt x="524" y="125" on="1"/>
        <pt x="512" y="110" on="0"/>
        <pt x="482" y="110" on="1"/>
        <pt x="424" y="110" on="1"/>
        <pt x="334" y="110" on="0"/>
        <pt x="334" y="199" on="1"/>
        <pt x="334" y="397" on="1"/>
        <pt x="334" y="441" on="0"/>
        <pt x="378" y="482" on="0"/>
        <pt x="426" y="482" on="1"/>
        <pt x="486" y="482" on="1"/>
        <pt x="486" y="414" on="1"/>
        <pt x="450" y="414" on="1"/>
        <pt x="432" y="414" on="0"/>
        <pt x="421" y="403" on="0"/>
        <pt x="421" y="385" on="1"/>
        <pt x="421" y="210" on="1"/>
        <pt x="421" y="192" on="0"/>
        <pt x="432" y="181" on="0"/>
        <pt x="450" y="181" on="1"/>
        <pt x="481" y="181" on="1"/>
        <pt x="501" y="181" on="0"/>
        <pt x="518" y="197" on="0"/>
      </contour>
      <contour>
        <pt x="694" y="412" on="1"/>
        <pt x="638" y="412" on="1"/>
        <pt x="620" y="412" on="0"/>
        <pt x="608" y="401" on="0"/>
        <pt x="608" y="383" on="1"/>
        <pt x="608" y="178" on="1"/>
        <pt x="608" y="159" on="0"/>
        <pt x="620" y="148" on="0"/>
        <pt x="638" y="148" on="1"/>
        <pt x="665" y="148" on="1"/>
        <pt x="682" y="148" on="0"/>
        <pt x="694" y="160" on="0"/>
        <pt x="694" y="178" on="1"/>
      </contour>
    </TTGlyph>
    <TTGlyph name="dvK_N" xMin="-20" yMin="0" xMax="803" yMax="626">
      <contour>
        <pt x="803" y="556" on="1"/>
        <pt x="319" y="556" on="1"/>
        <pt x="319" y="442" on="1"/>
        <pt x="330" y="452" on="0"/>
        <pt x="355" y="452" on="1"/>
        <pt x="803" y="452" on="1"/>
        <pt x="803" y="382" on="1"/>
        <pt x="684" y="382" on="1"/>
        <pt x="684" y="167" on="1"/>
        <pt x="684" y="121" on="0"/>
        <pt x="638" y="78" on="0"/>
        <pt x="588" y="78" on="1"/>
        <pt x="514" y="78" on="1"/>
        <pt x="464" y="78" on="0"/>
        <pt x="418" y="121" on="0"/>
        <pt x="418" y="167" on="1"/>
        <pt x="418" y="367" on="1"/>
        <pt x="418" y="377" on="0"/>
        <pt x="419" y="382" on="1"/>
        <pt x="351" y="382" on="1"/>
        <pt x="333" y="382" on="0"/>
        <pt x="319" y="369" on="0"/>
        <pt x="319" y="350" on="1"/>
        <pt x="319" y="0" on="1"/>
        <pt x="229" y="0" on="1"/>
        <pt x="229" y="89" on="1"/>
        <pt x="218" y="78" on="0"/>
        <pt x="192" y="78" on="1"/>
        <pt x="130" y="78" on="1"/>
        <pt x="40" y="78" on="0"/>
        <pt x="40" y="167" on="1"/>
        <pt x="40" y="397" on="1"/>
        <pt x="40" y="441" on="0"/>
        <pt x="84" y="482" on="0"/>
        <pt x="132" y="482" on="1"/>
        <pt x="188" y="482" on="1"/>
        <pt x="188" y="414" on="1"/>
        <pt x="159" y="414" on="1"/>
        <pt x="142" y="414" on="0"/>
        <pt x="130" y="403" on="0"/>
        <pt x="130" y="385" on="1"/>
        <pt x="130" y="178" on="1"/>
        <pt x="130" y="160" on="0"/>
        <pt x="142" y="148" on="0"/>
        <pt x="159" y="148" on="1"/>
        <pt x="197" y="148" on="1"/>
        <pt x="215" y="148" on="0"/>
        <pt x="229" y="162" on="0"/>
        <pt x="229" y="180" on="1"/>
        <pt x="229" y="556" on="1"/>
        <pt x="-20" y="556" on="1"/>
        <pt x="-20" y="626" on="1"/>
        <pt x="803" y="626" on="1"/>
      </contour>
      <contour>
        <pt x="594" y="382" on="1"/>
        <pt x="537" y="382" on="1"/>
        <pt x="519" y="382" on="0"/>
        <pt x="508" y="371" on="0"/>
        <pt x="508" y="353" on="1"/>
        <pt x="508" y="178" on="1"/>
        <pt x="508" y="159" on="0"/>
        <pt x="520" y="148" on="0"/>
        <pt x="538" y="148" on="1"/>
        <pt x="564" y="148" on="1"/>
        <pt x="582" y="148" on="0"/>
        <pt x="594" y="159" on="0"/>
        <pt x="594" y="178" on="1"/>
      </contour>
    </TTGlyph>
    <TTGlyph name="dvM_N" xMin="-20" yMin="78" xMax="787" yMax="626">
      <contour>
        <pt x="787" y="556" on="1"/>
        <pt x="668" y="556" on="1"/>
        <pt x="668" y="432" on="1"/>
        <pt x="787" y="432" on="1"/>
        <pt x="787" y="362" on="1"/>
        <pt x="668" y="362" on="1"/>
        <pt x="668" y="167" on="1"/>
        <pt x="668" y="121" on="0"/>
        <pt x="621" y="78" on="0"/>
        <pt x="571" y="78" on="1"/>
        <pt x="483" y="78" on="1"/>
        <pt x="433" y="78" on="0"/>
        <pt x="387" y="121" on="0"/>
        <pt x="387" y="167" on="1"/>
        <pt x="387" y="347" on="1"/>
        <pt x="387" y="357" on="0"/>
        <pt x="388" y="362" on="1"/>
        <pt x="301" y="362" on="1"/>
        <pt x="301" y="167" on="1"/>
        <pt x="301" y="121" on="0"/>
        <pt x="254" y="78" on="0"/>
        <pt x="204" y="78" on="1"/>
        <pt x="130" y="78" on="1"/>
        <pt x="80" y="78" on="0"/>
        <pt x="34" y="121" on="0"/>
        <pt x="34" y="167" on="1"/>
        <pt x="34" y="347" on="1"/>
        <pt x="34" y="390" on="0"/>
        <pt x="78" y="432" on="0"/>
        <pt x="126" y="432" on="1"/>
        <pt x="577" y="432" on="1"/>
        <pt x="577" y="556" on="1"/>
        <pt x="-20" y="556" on="1"/>
        <pt x="-20" y="626" on="1"/>
        <pt x="787" y="626" on="1"/>
      </contour>
      <contour>
        <pt x="210" y="178" on="1"/>
        <pt x="210" y="362" on="1"/>
        <pt x="153" y="362" on="1"/>
        <pt x="136" y="362" on="0"/>
        <pt x="124" y="351" on="0"/>
        <pt x="124" y="333" on="1"/>
        <pt x="124" y="178" on="1"/>
        <pt x="124" y="159" on="0"/>
        <pt x="136" y="148" on="0"/>
        <pt x="154" y="148" on="1"/>
        <pt x="181" y="148" on="1"/>
        <pt x="198" y="148" on="0"/>
        <pt x="210" y="160" on="0"/>
      </contour>
      <contour>
        <pt x="577" y="178" on="1"/>
        <pt x="577" y="362" on="1"/>
        <pt x="502" y="362" on="1"/>
        <pt x="485" y="362" on="0"/>
        <pt x="473" y="351" on="0"/>
        <pt x="473" y="333" on="1"/>
        <pt x="473" y="178" on="1"/>
        <pt x="473" y="159" on="0"/>
        <pt x="485" y="148" on="0"/>
        <pt x="503" y="148" on="1"/>
        <pt x="548" y="148" on="1"/>
        <pt x="566" y="148" on="0"/>
        <pt x="577" y="160" on="0"/>
      </contour>
    </TTGlyph>
    <TTGlyph name="dvMatraI.a33" xMin="-20" yMin="0" xMax="1264" yMax="822">
      <contour>
        <pt x="1176" y="822" on="1"/>
        <pt x="1264" y="822" on="0"/>
        <pt x="1264" y="737" on="1"/>
        <pt x="1264" y="669" on="1"/>
        <pt x="1174" y="669" on="1"/>
        <pt x="1174" y="720" on="1"/>
        <pt x="1174" y="740" on="0"/>
        <pt x="1162" y="752" on="0"/>
        <pt x="1142" y="752" on="1"/>
        <pt x="174" y="752" on="1"/>
        <pt x="154" y="752" on="0"/>
        <pt x="142" y="740" on="0"/>
        <pt x="142" y="720" on="1"/>
        <pt x="142" y="626" on="1"/>
        <pt x="214" y="626" on="1"/>
        <pt x="214" y="556" on="1"/>
        <pt x="142" y="556" on="1"/>
        <pt x="142" y="0" on="1"/>
        <pt x="52" y="0" on="1"/>
        <pt x="52" y="556" on="1"/>
        <pt x="-20" y="556" on="1"/>
        <pt x="-20" y="626" on="1"/>
        <pt x="52" y="626" on="1"/>
        <pt x="52" y="737" on="1"/>
        <pt x="52" y="822" on="0"/>
        <pt x="140" y="822" on="1"/>
      </contour>
    </TTGlyph>
    <TTGlyph name="dvMatraI.a34" xMin="-20" yMin="0" xMax="1289" yMax="822">
      <contour>
        <pt x="1200" y="822" on="1"/>
        <pt x="1289" y="822" on="0"/>
        <pt x="1289" y="737" on="1"/>
        <pt x="1289" y="669" on="1"/>
        <pt x="1198" y="669" on="1"/>
        <pt x="1198" y="720" on="1"/>
        <pt x="1198" y="740" on="0"/>
        <pt x="1186" y="752" on="0"/>
        <pt x="1166" y="752" on="1"/>
        <pt x="174" y="752" on="1"/>
        <pt x="154" y="752" on="0"/>
        <pt x="142" y="740" on="0"/>
        <pt x="142" y="720" on="1"/>
        <pt x="142" y="626" on="1"/>
        <pt x="214" y="626" on="1"/>
        <pt x="214" y="556" on="1"/>
        <pt x="142" y="556" on="1"/>
        <pt x="142" y="0" on="1"/>
        <pt x="52" y="0" on="1"/>
        <pt x="52" y="556" on="1"/>
        <pt x="-20" y="556" on="1"/>
        <pt x="-20" y="626" on="1"/>
        <pt x="52" y="626" on="1"/>
        <pt x="52" y="737" on="1"/>
        <pt x="52" y="822" on="0"/>
        <pt x="140" y="822" on="1"/>
      </contour>
    </TTGlyph>
</ttFont>
